<?xml version="1.0" encoding="us-ascii" standalone="no"?><svg xmlns="http://www.w3.org/2000/svg" xmlns:xlink="http://www.w3.org/1999/xlink" contentStyleType="text/css" height="479px" preserveAspectRatio="none" style="width:554px;height:479px;background:#777777;" version="1.1" viewBox="0 0 554 479" width="554px" zoomAndPan="magnify"><defs/><g><rect fill="#777777" height="479" style="stroke:none;stroke-width:1.0;" width="554" x="0" y="0"/><!--class IActor--><g id="elem_IActor"><rect codeLine="2" fill="#2E2E2E" height="67.6094" id="IActor" rx="2.5" ry="2.5" style="stroke:#1B1B1B;stroke-width:0.5;" width="167" x="31" y="7"/><ellipse cx="94.5" cy="20" fill="#B4A7E5" rx="8" ry="8" style="stroke:#181818;stroke-width:1.0;"/><path d="M93.5156,15.9844 L95.5781,15.9844 L95.5781,24 L93.5156,24 L93.5156,15.9844 Z " fill="#000000"/><text fill="#AAAAAA" font-family="Verdana" font-size="11" font-style="italic" lengthAdjust="spacing" textLength="33" x="110.5" y="23.8081">IActor</text><line style="stroke:#1B1B1B;stroke-width:0.5;" x1="32" x2="197" y1="33" y2="33"/><line style="stroke:#1B1B1B;stroke-width:0.5;" x1="32" x2="197" y1="41" y2="41"/><ellipse cx="42" cy="52.4023" fill="#84BE84" rx="3" ry="3" style="stroke:#038048;stroke-width:1.0;"/><text fill="#AAAAAA" font-family="sans-serif" font-size="11" lengthAdjust="spacing" textLength="144" x="48" y="55.2104">accept(TargyVisitor): void</text><ellipse cx="42" cy="65.207" fill="#84BE84" rx="3" ry="3" style="stroke:#038048;stroke-width:1.0;"/><text fill="#AAAAAA" font-family="sans-serif" font-size="11" lengthAdjust="spacing" textLength="126" x="48" y="68.0151">mozog(Szoba): Szoba</text></g><!--class TargyVisitor--><g id="elem_TargyVisitor"><rect codeLine="6" fill="#2E2E2E" height="42" id="TargyVisitor" rx="2.5" ry="2.5" style="stroke:#1B1B1B;stroke-width:0.5;" width="95" x="233" y="20"/><ellipse cx="245" cy="33" fill="#B4A7E5" rx="8" ry="8" style="stroke:#181818;stroke-width:1.0;"/><path d="M244.0156,28.9844 L246.0781,28.9844 L246.0781,37 L244.0156,37 L244.0156,28.9844 Z " fill="#000000"/><text fill="#AAAAAA" font-family="Verdana" font-size="11" font-style="italic" lengthAdjust="spacing" textLength="69" x="256" y="36.8081">TargyVisitor</text><line style="stroke:#1B1B1B;stroke-width:0.5;" x1="234" x2="327" y1="46" y2="46"/><line style="stroke:#1B1B1B;stroke-width:0.5;" x1="234" x2="327" y1="54" y2="54"/></g><!--class SzobaEventListener--><g id="elem_SzobaEventListener"><rect codeLine="7" fill="#2E2E2E" height="54.8047" id="SzobaEventListener" rx="2.5" ry="2.5" style="stroke:#1B1B1B;stroke-width:0.5;" width="165" x="363" y="13.5"/><ellipse cx="387.6" cy="26.5" fill="#B4A7E5" rx="8" ry="8" style="stroke:#181818;stroke-width:1.0;"/><path d="M386.6156,22.4844 L388.6781,22.4844 L388.6781,30.5 L386.6156,30.5 L386.6156,22.4844 Z " fill="#000000"/><text fill="#AAAAAA" font-family="Verdana" font-size="11" font-style="italic" lengthAdjust="spacing" textLength="111" x="401.4" y="30.3081">SzobaEventListener</text><line style="stroke:#1B1B1B;stroke-width:0.5;" x1="364" x2="527" y1="39.5" y2="39.5"/><line style="stroke:#1B1B1B;stroke-width:0.5;" x1="364" x2="527" y1="47.5" y2="47.5"/><ellipse cx="374" cy="58.9023" fill="#84BE84" rx="3" ry="3" style="stroke:#038048;stroke-width:1.0;"/><text fill="#AAAAAA" font-family="sans-serif" font-size="11" lengthAdjust="spacing" textLength="142" x="380" y="61.7104">update(eventType): void</text></g><!--class Actor--><g id="elem_Actor"><rect codeLine="11" fill="#2E2E2E" height="106.0234" id="Actor" rx="2.5" ry="2.5" style="stroke:#1B1B1B;stroke-width:0.5;" width="137" x="211" y="139"/><ellipse cx="261" cy="152" fill="#A9DCDF" rx="8" ry="8" style="stroke:#181818;stroke-width:1.0;"/><path d="M262.875,153.7813 L259.6406,153.7813 L259.125,155.25 L257.0469,155.25 L260.0313,147.2344 L262.4844,147.2344 L265.4531,155.25 L263.375,155.25 L262.875,153.7813 Z M260.1563,152.2969 L262.3594,152.2969 L261.2656,149.1094 L260.1563,152.2969 Z " fill="#000000"/><text fill="#AAAAAA" font-family="Verdana" font-size="11" font-style="italic" lengthAdjust="spacing" textLength="30" x="277" y="155.8081">Actor</text><line style="stroke:#1B1B1B;stroke-width:0.5;" x1="212" x2="347" y1="165" y2="165"/><polygon fill="none" points="222,171.4023,226,175.4023,222,179.4023,218,175.4023" style="stroke:#B38D22;stroke-width:1.0;"/><text fill="#AAAAAA" font-family="sans-serif" font-size="11" lengthAdjust="spacing" textLength="89" x="228" y="179.2104">targyak: Targy[]</text><polygon fill="none" points="222,184.207,226,188.207,222,192.207,218,188.207" style="stroke:#B38D22;stroke-width:1.0;"/><text fill="#AAAAAA" font-family="sans-serif" font-size="11" lengthAdjust="spacing" textLength="91" x="228" y="192.0151">numOfItems: int</text><polygon fill="none" points="222,197.0117,226,201.0117,222,205.0117,218,201.0117" style="stroke:#B38D22;stroke-width:1.0;"/><text fill="#AAAAAA" font-family="sans-serif" font-size="11" lengthAdjust="spacing" textLength="108" x="228" y="204.8198">jelenSzoba: Szoba</text><line style="stroke:#1B1B1B;stroke-width:0.5;" x1="212" x2="347" y1="211.4141" y2="211.4141"/><ellipse cx="222" cy="222.8164" fill="#84BE84" rx="3" ry="3" style="stroke:#038048;stroke-width:1.0;"/><text fill="#AAAAAA" font-family="sans-serif" font-size="11" lengthAdjust="spacing" textLength="114" x="228" y="225.6245">felvesz(Targy): void</text><ellipse cx="222" cy="235.6211" fill="#84BE84" rx="3" ry="3" style="stroke:#038048;stroke-width:1.0;"/><text fill="#AAAAAA" font-family="sans-serif" font-size="11" lengthAdjust="spacing" textLength="95" x="228" y="238.4292">lerak(Targy):void</text></g><!--class Hallgato--><g id="elem_Hallgato"><rect codeLine="18" fill="#2E2E2E" height="54.8047" id="Hallgato" rx="2.5" ry="2.5" style="stroke:#1B1B1B;stroke-width:0.5;" width="138" x="142.5" y="309"/><ellipse cx="185" cy="322" fill="#ADD1B2" rx="8" ry="8" style="stroke:#181818;stroke-width:1.0;"/><path d="M187.125,325.5625 Q186.5469,325.8594 185.9219,326 Q185.3125,326.1563 184.6406,326.1563 Q182.6406,326.1563 181.4688,325.0469 Q180.2969,323.9219 180.2969,322 Q180.2969,320.0781 181.4688,318.9531 Q182.6406,317.8281 184.6406,317.8281 Q185.3125,317.8281 185.9219,317.9844 Q186.5469,318.1406 187.125,318.4375 L187.125,320.0938 Q186.5469,319.7031 185.9844,319.5156 Q185.4219,319.3281 184.8125,319.3281 Q183.7031,319.3281 183.0625,320.0469 Q182.4375,320.75 182.4375,322 Q182.4375,323.2344 183.0625,323.9531 Q183.7031,324.6563 184.8125,324.6563 Q185.4219,324.6563 185.9844,324.4844 Q186.5469,324.2969 187.125,323.9063 L187.125,325.5625 Z " fill="#000000"/><text fill="#AAAAAA" font-family="Verdana" font-size="11" lengthAdjust="spacing" textLength="46" x="201" y="325.8081">Hallgato</text><line style="stroke:#1B1B1B;stroke-width:0.5;" x1="143.5" x2="279.5" y1="335" y2="335"/><line style="stroke:#1B1B1B;stroke-width:0.5;" x1="143.5" x2="279.5" y1="343" y2="343"/><ellipse cx="153.5" cy="354.4023" fill="#84BE84" rx="3" ry="3" style="stroke:#038048;stroke-width:1.0;"/><text fill="#AAAAAA" font-family="sans-serif" font-size="11" lengthAdjust="spacing" textLength="115" x="159.5" y="357.2104">hasznal(Targy): void</text></g><!--class Oktato--><g id="elem_Oktato"><rect codeLine="21" fill="#2E2E2E" height="42" id="Oktato" rx="2.5" ry="2.5" style="stroke:#1B1B1B;stroke-width:0.5;" width="63" x="316" y="315.5"/><ellipse cx="328" cy="328.5" fill="#ADD1B2" rx="8" ry="8" style="stroke:#181818;stroke-width:1.0;"/><path d="M330.125,332.0625 Q329.5469,332.3594 328.9219,332.5 Q328.3125,332.6563 327.6406,332.6563 Q325.6406,332.6563 324.4688,331.5469 Q323.2969,330.4219 323.2969,328.5 Q323.2969,326.5781 324.4688,325.4531 Q325.6406,324.3281 327.6406,324.3281 Q328.3125,324.3281 328.9219,324.4844 Q329.5469,324.6406 330.125,324.9375 L330.125,326.5938 Q329.5469,326.2031 328.9844,326.0156 Q328.4219,325.8281 327.8125,325.8281 Q326.7031,325.8281 326.0625,326.5469 Q325.4375,327.25 325.4375,328.5 Q325.4375,329.7344 326.0625,330.4531 Q326.7031,331.1563 327.8125,331.1563 Q328.4219,331.1563 328.9844,330.9844 Q329.5469,330.7969 330.125,330.4063 L330.125,332.0625 Z " fill="#000000"/><text fill="#AAAAAA" font-family="Verdana" font-size="11" lengthAdjust="spacing" textLength="37" x="339" y="332.3081">Oktato</text><line style="stroke:#1B1B1B;stroke-width:0.5;" x1="317" x2="378" y1="341.5" y2="341.5"/><line style="stroke:#1B1B1B;stroke-width:0.5;" x1="317" x2="378" y1="349.5" y2="349.5"/></g><!--class Szoba--><g id="elem_Szoba"><rect codeLine="23" fill="#2E2E2E" height="42" id="Szoba" rx="2.5" ry="2.5" style="stroke:#1B1B1B;stroke-width:0.5;" width="62" x="485.5" y="171"/><ellipse cx="497.5" cy="184" fill="#ADD1B2" rx="8" ry="8" style="stroke:#181818;stroke-width:1.0;"/><path d="M499.625,187.5625 Q499.0469,187.8594 498.4219,188 Q497.8125,188.1563 497.1406,188.1563 Q495.1406,188.1563 493.9688,187.0469 Q492.7969,185.9219 492.7969,184 Q492.7969,182.0781 493.9688,180.9531 Q495.1406,179.8281 497.1406,179.8281 Q497.8125,179.8281 498.4219,179.9844 Q499.0469,180.1406 499.625,180.4375 L499.625,182.0938 Q499.0469,181.7031 498.4844,181.5156 Q497.9219,181.3281 497.3125,181.3281 Q496.2031,181.3281 495.5625,182.0469 Q494.9375,182.75 494.9375,184 Q494.9375,185.2344 495.5625,185.9531 Q496.2031,186.6563 497.3125,186.6563 Q497.9219,186.6563 498.4844,186.4844 Q499.0469,186.2969 499.625,185.9063 L499.625,187.5625 Z " fill="#000000"/><text fill="#AAAAAA" font-family="Verdana" font-size="11" lengthAdjust="spacing" textLength="36" x="508.5" y="187.8081">Szoba</text><line style="stroke:#1B1B1B;stroke-width:0.5;" x1="486.5" x2="546.5" y1="197" y2="197"/><line style="stroke:#1B1B1B;stroke-width:0.5;" x1="486.5" x2="546.5" y1="205" y2="205"/></g><g id="elem_GMN15"><path d="M6,424 L6,472.4141 A0,0 0 0 0 6,472.4141 L417,472.4141 A0,0 0 0 0 417,472.4141 L417,434 L407,424 L215.5,424 L211.5,364.007 L207.5,424 L6,424 A0,0 0 0 0 6,424 " fill="#1A66C2" style="stroke:#002642;stroke-width:0.5;"/><path d="M407,424 L407,434 L417,434 L407,424 " fill="#1A66C2" style="stroke:#002642;stroke-width:0.5;"/><text fill="#FFFFFF" font-family="Verdana" font-size="11" lengthAdjust="spacing" textLength="390" x="12" y="439.2104">El tudja d&#246;nteni, hogy ha oktat&#243; is van, akkor sebz&#337;dik-e -&gt; Listener</text><text fill="#FFFFFF" font-family="Verdana" font-size="11" lengthAdjust="spacing" textLength="215" x="12" y="452.0151">Reag&#225;l a szoba &#225;llapot&#225;ra -&gt; Listener</text><text fill="#FFFFFF" font-family="Verdana" font-size="11" lengthAdjust="spacing" textLength="187" x="12" y="464.8198">Haszn&#225;lhatja a t&#225;rgyait -&gt; Visitor</text></g><path d="M391,175.5 L391,182.9023 L317,175.4023 L391,190.9023 L391,198.3047 A0,0 0 0 0 391,198.3047 L450,198.3047 A0,0 0 0 0 450,198.3047 L450,185.5 L440,175.5 L391,175.5 A0,0 0 0 0 391,175.5 " fill="#1A66C2" style="stroke:#002642;stroke-width:0.5;"/><path d="M440,175.5 L440,185.5 L450,185.5 L440,175.5 " fill="#1A66C2" style="stroke:#002642;stroke-width:0.5;"/><text fill="#FFFFFF" font-family="Verdana" font-size="11" lengthAdjust="spacing" textLength="38" x="397" y="190.7104">Enum?</text><!--reverse link IActor to Actor--><g id="link_IActor_Actor"><path d="M164.478,87.1318 C183.941,104.7078 195.041,114.731 217.374,134.898 " fill="none" id="IActor-backto-Actor" style="stroke:#FFFFFF;stroke-width:1.0;stroke-dasharray:7.0,7.0;"/><polygon fill="none" points="151.119,75.068,160.4568,91.5848,168.4993,82.6788,151.119,75.068" style="stroke:#FFFFFF;stroke-width:1.0;"/></g><!--reverse link SzobaEventListener to Actor--><g id="link_SzobaEventListener_Actor"><path d="M402.4277,80.6616 C381.9107,99.0776 367.251,112.235 341.925,134.968 " fill="none" id="SzobaEventListener-backto-Actor" style="stroke:#FFFFFF;stroke-width:1.0;stroke-dasharray:7.0,7.0;"/><polygon fill="none" points="415.823,68.638,398.4199,76.1965,406.4356,85.1267,415.823,68.638" style="stroke:#FFFFFF;stroke-width:1.0;"/></g><!--reverse link Actor to Hallgato--><g id="link_Actor_Hallgato"><path d="M244.8727,265.565 C235.0717,286.103 232.197,292.129 224.201,308.885 " fill="none" id="Actor-backto-Hallgato" style="stroke:#FFFFFF;stroke-width:1.0;stroke-dasharray:7.0,7.0;"/><polygon fill="none" points="252.625,249.32,239.4576,262.9809,250.2877,268.1491,252.625,249.32" style="stroke:#FFFFFF;stroke-width:1.0;"/></g><!--reverse link Actor to Oktato--><g id="link_Actor_Oktato"><path d="M314.1272,265.5651 C325.2642,288.9031 329.717,298.235 337.915,315.414 " fill="none" id="Actor-backto-Oktato" style="stroke:#FFFFFF;stroke-width:1.0;stroke-dasharray:7.0,7.0;"/><polygon fill="none" points="306.375,249.32,308.7122,268.1492,319.5423,262.981,306.375,249.32" style="stroke:#FFFFFF;stroke-width:1.0;"/></g><!--link Actor to Szoba--><g id="link_Actor_Szoba"><path codeLine="26" d="M349.5,200 C395.575,200 351.046,127.948 391,105 C413.738,91.94 426.493,93.38 450,105 C477.609,118.647 496.906,149.862 507.354,170.945 " fill="none" id="Actor-Szoba" style="stroke:#FFFFFF;stroke-width:1.0;"/><text fill="#BBBBBB" font-family="Verdana" font-size="11" lengthAdjust="spacing" textLength="7" x="356.0461" y="198.4234">1</text><text fill="#BBBBBB" font-family="Verdana" font-size="11" lengthAdjust="spacing" textLength="19" x="482.1775" y="160.3268">0..*</text></g><!--link IActor to TargyVisitor--><g id="link_IActor_TargyVisitor"><path codeLine="27" d="M198.148,41 C209.729,41 221.31,41 232.891,41 " fill="none" id="IActor-TargyVisitor" style="stroke:#FFFFFF;stroke-width:1.0;"/></g><!--SRC=[TPDBZjD048RtVOeYsGJo0BPUC68HCP6GWc1WWrXKxBBTutQtrLsn54Tp28wGCup41IpkHRSV8K5aPRkwkkhx_og_u9nA0aj9OicvPOAssAaz2QcPR8enmUPzpCOUGSmnZgdYsGFQxF1DEkd3BoEeZKp4l3IDoMPV6hD37-kUukcYokMbYt2NkAv9yqVfc3JPevZlgmIPPXJ23uUAnYPFGk3EiSMO8LRe77He8CjAUHMQtG2x-4zTE8ef1mWiefxc-mynrVjocswOIXU1fnBJHrAakzkZYdbAgYRNzBhFWXLPBCROWDT3tQDI6RAvvEf1lROSNQDHNHM3yzLjmJSkZXaTK_SjkgCe-aiCaxSJMCBapMhrQZBGzuRuwDK0X3PCi3FCfWIJdf75MW7laqU4fFtbXwJb0dAJ7I17C86jVGRfe4Qz02mANzZHhldzCv75ac3v3aQtnMV2h3qfG70TcdzNM1bkJnQl4k-38VuqH_Pj4KA67vBaa3NoaauW8FVSYb8Er8C1_Rg8Jse57zfJOzovQOtPGMnxxXgzD5I-K-5NbHceazNhllkdWvLPVjbYM1onzljoTuDcSuspRXfI_iSQRB1UTkTavJ6p0LDqcA_3hFs9JwYMoQtouuYYwAkZiB6ZCD1KXg6DpXN8a0-cQXcQL1JBL1RjAPRjiowyEMJzig_EdVu0]--></g></svg>