<?xml version="1.0" encoding="us-ascii" standalone="no"?><svg xmlns="http://www.w3.org/2000/svg" xmlns:xlink="http://www.w3.org/1999/xlink" contentStyleType="text/css" height="304px" preserveAspectRatio="none" style="width:706px;height:304px;background:#777777;" version="1.1" viewBox="0 0 706 304" width="706px" zoomAndPan="magnify"><defs/><g><rect fill="#777777" height="304" style="stroke:none;stroke-width:1.0;" width="706" x="0" y="0"/><!--class Actor--><g id="elem_Actor"><rect codeLine="2" fill="#2E2E2E" height="80.4141" id="Actor" rx="2.5" ry="2.5" style="stroke:#1B1B1B;stroke-width:0.5;" width="136" x="432.5" y="7"/><ellipse cx="482" cy="20" fill="#B4A7E5" rx="8" ry="8" style="stroke:#181818;stroke-width:1.0;"/><path d="M481.0156,15.9844 L483.0781,15.9844 L483.0781,24 L481.0156,24 L481.0156,15.9844 Z " fill="#000000"/><text fill="#AAAAAA" font-family="Verdana" font-size="11" font-style="italic" lengthAdjust="spacing" textLength="30" x="498" y="23.8081">Actor</text><line style="stroke:#1B1B1B;stroke-width:0.5;" x1="433.5" x2="567.5" y1="33" y2="33"/><rect fill="none" height="6" style="stroke:#C82930;stroke-width:1.0;" width="6" x="440.5" y="41.4023"/><text fill="#AAAAAA" font-family="sans-serif" font-size="11" lengthAdjust="spacing" textLength="48" x="449.5" y="47.2104">Targyak:</text><line style="stroke:#1B1B1B;stroke-width:0.5;" x1="433.5" x2="567.5" y1="53.8047" y2="53.8047"/><ellipse cx="443.5" cy="65.207" fill="#84BE84" rx="3" ry="3" style="stroke:#038048;stroke-width:1.0;"/><text fill="#AAAAAA" font-family="sans-serif" font-size="11" lengthAdjust="spacing" textLength="110" x="449.5" y="68.0151">update(EventType)</text><ellipse cx="443.5" cy="78.0117" fill="#84BE84" rx="3" ry="3" style="stroke:#038048;stroke-width:1.0;"/><text fill="#AAAAAA" font-family="sans-serif" font-size="11" lengthAdjust="spacing" textLength="113" x="449.5" y="80.8198">accept(TargyVisitor)</text></g><!--class TargyVisitor--><g id="elem_TargyVisitor"><rect codeLine="7" fill="#2E2E2E" height="42" id="TargyVisitor" rx="2.5" ry="2.5" style="stroke:#1B1B1B;stroke-width:0.5;" width="95" x="604" y="26"/><ellipse cx="616" cy="39" fill="#B4A7E5" rx="8" ry="8" style="stroke:#181818;stroke-width:1.0;"/><path d="M615.0156,34.9844 L617.0781,34.9844 L617.0781,43 L615.0156,43 L615.0156,34.9844 Z " fill="#000000"/><text fill="#AAAAAA" font-family="Verdana" font-size="11" font-style="italic" lengthAdjust="spacing" textLength="69" x="627" y="42.8081">TargyVisitor</text><line style="stroke:#1B1B1B;stroke-width:0.5;" x1="605" x2="698" y1="52" y2="52"/><line style="stroke:#1B1B1B;stroke-width:0.5;" x1="605" x2="698" y1="60" y2="60"/></g><!--class SzobaEventListener--><g id="elem_SzobaEventListener"><rect codeLine="8" fill="#2E2E2E" height="42" id="SzobaEventListener" rx="2.5" ry="2.5" style="stroke:#1B1B1B;stroke-width:0.5;" width="137" x="260" y="26"/><ellipse cx="272" cy="39" fill="#B4A7E5" rx="8" ry="8" style="stroke:#181818;stroke-width:1.0;"/><path d="M271.0156,34.9844 L273.0781,34.9844 L273.0781,43 L271.0156,43 L271.0156,34.9844 Z " fill="#000000"/><text fill="#AAAAAA" font-family="Verdana" font-size="11" font-style="italic" lengthAdjust="spacing" textLength="111" x="283" y="42.8081">SzobaEventListener</text><line style="stroke:#1B1B1B;stroke-width:0.5;" x1="261" x2="396" y1="52" y2="52"/><line style="stroke:#1B1B1B;stroke-width:0.5;" x1="261" x2="396" y1="60" y2="60"/></g><!--class Hallgato--><g id="elem_Hallgato"><rect codeLine="10" fill="#2E2E2E" height="42" id="Hallgato" rx="2.5" ry="2.5" style="stroke:#1B1B1B;stroke-width:0.5;" width="72" x="309.5" y="147"/><ellipse cx="321.5" cy="160" fill="#ADD1B2" rx="8" ry="8" style="stroke:#181818;stroke-width:1.0;"/><path d="M323.625,163.5625 Q323.0469,163.8594 322.4219,164 Q321.8125,164.1563 321.1406,164.1563 Q319.1406,164.1563 317.9688,163.0469 Q316.7969,161.9219 316.7969,160 Q316.7969,158.0781 317.9688,156.9531 Q319.1406,155.8281 321.1406,155.8281 Q321.8125,155.8281 322.4219,155.9844 Q323.0469,156.1406 323.625,156.4375 L323.625,158.0938 Q323.0469,157.7031 322.4844,157.5156 Q321.9219,157.3281 321.3125,157.3281 Q320.2031,157.3281 319.5625,158.0469 Q318.9375,158.75 318.9375,160 Q318.9375,161.2344 319.5625,161.9531 Q320.2031,162.6563 321.3125,162.6563 Q321.9219,162.6563 322.4844,162.4844 Q323.0469,162.2969 323.625,161.9063 L323.625,163.5625 Z " fill="#000000"/><text fill="#AAAAAA" font-family="Verdana" font-size="11" lengthAdjust="spacing" textLength="46" x="332.5" y="163.8081">Hallgato</text><line style="stroke:#1B1B1B;stroke-width:0.5;" x1="310.5" x2="380.5" y1="173" y2="173"/><line style="stroke:#1B1B1B;stroke-width:0.5;" x1="310.5" x2="380.5" y1="181" y2="181"/></g><!--class Oktato--><g id="elem_Oktato"><rect codeLine="13" fill="#2E2E2E" height="42" id="Oktato" rx="2.5" ry="2.5" style="stroke:#1B1B1B;stroke-width:0.5;" width="63" x="451" y="147"/><ellipse cx="463" cy="160" fill="#ADD1B2" rx="8" ry="8" style="stroke:#181818;stroke-width:1.0;"/><path d="M465.125,163.5625 Q464.5469,163.8594 463.9219,164 Q463.3125,164.1563 462.6406,164.1563 Q460.6406,164.1563 459.4688,163.0469 Q458.2969,161.9219 458.2969,160 Q458.2969,158.0781 459.4688,156.9531 Q460.6406,155.8281 462.6406,155.8281 Q463.3125,155.8281 463.9219,155.9844 Q464.5469,156.1406 465.125,156.4375 L465.125,158.0938 Q464.5469,157.7031 463.9844,157.5156 Q463.4219,157.3281 462.8125,157.3281 Q461.7031,157.3281 461.0625,158.0469 Q460.4375,158.75 460.4375,160 Q460.4375,161.2344 461.0625,161.9531 Q461.7031,162.6563 462.8125,162.6563 Q463.4219,162.6563 463.9844,162.4844 Q464.5469,162.2969 465.125,161.9063 L465.125,163.5625 Z " fill="#000000"/><text fill="#AAAAAA" font-family="Verdana" font-size="11" lengthAdjust="spacing" textLength="37" x="474" y="163.8081">Oktato</text><line style="stroke:#1B1B1B;stroke-width:0.5;" x1="452" x2="513" y1="173" y2="173"/><line style="stroke:#1B1B1B;stroke-width:0.5;" x1="452" x2="513" y1="181" y2="181"/></g><g id="elem_GMN11"><path d="M137,249 L137,297.4141 A0,0 0 0 0 137,297.4141 L554,297.4141 A0,0 0 0 0 554,297.4141 L554,259 L544,249 L349.5,249 L345.5,189.349 L341.5,249 L137,249 A0,0 0 0 0 137,249 " fill="#1A66C2" style="stroke:#002642;stroke-width:0.5;"/><path d="M544,249 L544,259 L554,259 L544,249 " fill="#1A66C2" style="stroke:#002642;stroke-width:0.5;"/><text fill="#FFFFFF" font-family="Verdana" font-size="11" lengthAdjust="spacing" textLength="396" x="143" y="264.2104">El tudja d&#246;nteni, hogy ha oktat&#243; is van, akkor sebz&#337;dik-e -&gt; Listener?</text><text fill="#FFFFFF" font-family="Verdana" font-size="11" lengthAdjust="spacing" textLength="221" x="143" y="277.0151">Reag&#225;l a szoba &#225;llapot&#225;ra -&gt; Listener?</text><text fill="#FFFFFF" font-family="Verdana" font-size="11" lengthAdjust="spacing" textLength="193" x="143" y="289.8198">Haszn&#225;lhatja a t&#225;rgyait -&gt; Visitor?</text></g><path d="M6,24 L6,59.6094 A0,0 0 0 0 6,59.6094 L225,59.6094 A0,0 0 0 0 225,59.6094 L225,45.8047 L436.5,64.207 L225,37.8047 L225,34 L215,24 L6,24 A0,0 0 0 0 6,24 " fill="#1A66C2" style="stroke:#002642;stroke-width:0.5;"/><path d="M215,24 L215,34 L225,34 L215,24 " fill="#1A66C2" style="stroke:#002642;stroke-width:0.5;"/><text fill="#FFFFFF" font-family="Verdana" font-size="11" lengthAdjust="spacing" textLength="133" x="12" y="39.2104">Pl. G&#225;zos a szoba vagy</text><text fill="#FFFFFF" font-family="Verdana" font-size="11" lengthAdjust="spacing" textLength="198" x="12" y="52.0151">Oktat&#243;val tal&#225;lkozott egy hallgato?</text><!--reverse link Actor to Hallgato--><g id="link_Actor_Hallgato"><path d="M435.0403,98.2562 C409.1153,118.1592 393.009,130.525 371.836,146.781 " fill="none" id="Actor-backto-Hallgato" style="stroke:#FFFFFF;stroke-width:1.0;stroke-dasharray:7.0,7.0;"/><polygon fill="none" points="449.318,87.295,431.3866,93.497,438.694,103.0154,449.318,87.295" style="stroke:#FFFFFF;stroke-width:1.0;"/></g><!--reverse link SzobaEventListener to Hallgato--><g id="link_SzobaEventListener_Hallgato"><path d="M333.9296,86.0061 C337.0556,107.8881 339.47,124.793 342.602,146.714 " fill="none" id="SzobaEventListener-backto-Hallgato" style="stroke:#FFFFFF;stroke-width:1.0;stroke-dasharray:7.0,7.0;"/><polygon fill="none" points="331.384,68.187,327.9899,86.8546,339.8693,85.1576,331.384,68.187" style="stroke:#FFFFFF;stroke-width:1.0;"/></g><!--reverse link Actor to Oktato--><g id="link_Actor_Oktato"><path d="M491.8644,105.0926 C488.8544,124.9956 488.017,130.525 485.558,146.781 " fill="none" id="Actor-backto-Oktato" style="stroke:#FFFFFF;stroke-width:1.0;stroke-dasharray:7.0,7.0;"/><polygon fill="none" points="494.556,87.295,485.9319,104.1954,497.7969,105.9898,494.556,87.295" style="stroke:#FFFFFF;stroke-width:1.0;"/></g><!--reverse link SzobaEventListener to Oktato--><g id="link_SzobaEventListener_Oktato"><path d="M368.8672,79.193 C397.2722,101.142 428.152,125.004 456.505,146.913 " fill="none" id="SzobaEventListener-backto-Oktato" style="stroke:#FFFFFF;stroke-width:1.0;stroke-dasharray:7.0,7.0;"/><polygon fill="none" points="354.624,68.187,365.1986,83.9407,372.5359,74.4452,354.624,68.187" style="stroke:#FFFFFF;stroke-width:1.0;"/></g><!--SRC=[bP5DJiCm48NtSufXrweD1-Y2YaL55qX5KB6VnDF4nBKZUnefgJW4H-WPaBX0nBrm4dwAn8QTPRytttlZ2obup-XPASyX98fycPe3WxR2VaSPutKcpXyXsPBF6oeN2BD3fKXuighPohQfU0epoZAkP3A87dNGqJE5vxCnvozdrm-jIsaOTAk3i6KFa1aA0TTaJ4xYKEyh4qDQ2MEM-H-c8qJOwDkKyYyNM2UCgHDnUtIxRowi3Cf1FH6gxYtcjNgEXSiRB0XTp-XUKGUioSwHoj9v39osxozAbmbZSeLVb2NSC-NToI1Xw3DWF1kgd7GdJx-LQmgjZSy5IGGJzfAuTIszx7DxIs2hi4yzHZUyapxuK7En63y7ximbtdIdreLlR4rv0vinUasn7Pc8AbqRkoCFpSRgFuGF]--></g></svg>