<?xml version="1.0" encoding="UTF-8" standalone="no"?><svg xmlns="http://www.w3.org/2000/svg" xmlns:xlink="http://www.w3.org/1999/xlink" contentStyleType="text/css" height="341px" preserveAspectRatio="none" style="width:276px;height:341px;background:#FFFFFF;" version="1.1" viewBox="0 0 276 341" width="276px" zoomAndPan="magnify"><defs/><g><rect fill="none" height="26.7999" id="_title" style="stroke:none;stroke-width:1.0;" width="99" x="87.5" y="10"/><text fill="#000000" font-family="sans-serif" font-size="14" font-weight="bold" lengthAdjust="spacing" textLength="89" x="92.5" y="28.0059">Tárgyfelvétel</text><rect fill="#FFFFFF" height="51.2" style="stroke:#181818;stroke-width:1.0;" width="10" x="133" y="129.5999"/><rect fill="none" height="47.2" style="stroke:#000000;stroke-width:1.5;" width="165" x="10" y="195.7999"/><line style="stroke:#181818;stroke-width:0.5;stroke-dasharray:5.0,5.0;" x1="54" x2="54" y1="119.5999" y2="259.9999"/><line style="stroke:#181818;stroke-width:0.5;stroke-dasharray:5.0,5.0;" x1="138" x2="138" y1="119.5999" y2="259.9999"/><line style="stroke:#181818;stroke-width:0.5;stroke-dasharray:5.0,5.0;" x1="244" x2="244" y1="119.5999" y2="259.9999"/><text fill="#000000" font-family="sans-serif" font-size="14" lengthAdjust="spacing" textLength="62" x="20" y="115.8059">Controller</text><ellipse cx="54" cy="51.2999" fill="#E2E2F0" rx="8" ry="8" style="stroke:#181818;stroke-width:0.5;"/><path d="M54,59.2999 L54,86.2999 M41,67.2999 L67,67.2999 M54,86.2999 L41,101.2999 M54,86.2999 L67,101.2999 " fill="none" style="stroke:#181818;stroke-width:0.5;"/><text fill="#000000" font-family="sans-serif" font-size="14" lengthAdjust="spacing" textLength="62" x="20" y="272.0059">Controller</text><ellipse cx="54" cy="284.2998" fill="#E2E2F0" rx="8" ry="8" style="stroke:#181818;stroke-width:0.5;"/><path d="M54,292.2998 L54,319.2998 M41,300.2998 L67,300.2998 M54,319.2998 L41,334.2998 M54,319.2998 L67,334.2998 " fill="none" style="stroke:#181818;stroke-width:0.5;"/><rect fill="#E2E2F0" height="30.7999" rx="2.5" ry="2.5" style="stroke:#181818;stroke-width:0.5;" width="54" x="111" y="87.7999"/><text fill="#000000" font-family="sans-serif" font-size="14" lengthAdjust="spacing" textLength="40" x="118" y="107.8059">Player</text><rect fill="#E2E2F0" height="30.7999" rx="2.5" ry="2.5" style="stroke:#181818;stroke-width:0.5;" width="54" x="111" y="258.9999"/><text fill="#000000" font-family="sans-serif" font-size="14" lengthAdjust="spacing" textLength="40" x="118" y="279.0059">Player</text><rect fill="#E2E2F0" height="30.7999" rx="2.5" ry="2.5" style="stroke:#181818;stroke-width:0.5;" width="52" x="218" y="87.7999"/><text fill="#000000" font-family="sans-serif" font-size="14" lengthAdjust="spacing" textLength="38" x="225" y="107.8059">Room</text><rect fill="#E2E2F0" height="30.7999" rx="2.5" ry="2.5" style="stroke:#181818;stroke-width:0.5;" width="52" x="218" y="258.9999"/><text fill="#000000" font-family="sans-serif" font-size="14" lengthAdjust="spacing" textLength="38" x="225" y="279.0059">Room</text><rect fill="#FFFFFF" height="51.2" style="stroke:#181818;stroke-width:1.0;" width="10" x="133" y="129.5999"/><polygon fill="#181818" points="121,147.1999,131,151.1999,121,155.1999,125,151.1999" style="stroke:#181818;stroke-width:1.0;"/><line style="stroke:#181818;stroke-width:1.0;" x1="54" x2="127" y1="151.1999" y2="151.1999"/><text fill="#000000" font-family="sans-serif" font-size="13" lengthAdjust="spacing" textLength="55" x="61" y="145.6769">addItem()</text><polygon fill="#181818" points="232,176.7999,242,180.7999,232,184.7999,236,180.7999" style="stroke:#181818;stroke-width:1.0;"/><line style="stroke:#181818;stroke-width:1.0;" x1="138" x2="238" y1="180.7999" y2="180.7999"/><text fill="#000000" font-family="sans-serif" font-size="13" lengthAdjust="spacing" textLength="77" x="145" y="175.2769">removeItem()</text><path d="M10,195.7999 L70,195.7999 L70,203.3999 L60,213.3999 L10,213.3999 L10,195.7999 " fill="#EEEEEE" style="stroke:#000000;stroke-width:1.5;"/><rect fill="none" height="47.2" style="stroke:#000000;stroke-width:1.5;" width="165" x="10" y="195.7999"/><text fill="#000000" font-family="sans-serif" font-size="13" font-weight="bold" lengthAdjust="spacing" textLength="15" x="25" y="208.8769">alt</text><text fill="#000000" font-family="sans-serif" font-size="11" font-weight="bold" lengthAdjust="spacing" textLength="58" x="85" y="208.0188">[No Space]</text><polygon fill="#181818" points="126,230.9999,136,234.9999,126,238.9999,130,234.9999" style="stroke:#181818;stroke-width:1.0;"/><line style="stroke:#181818;stroke-width:1.0;" x1="54" x2="132" y1="234.9999" y2="234.9999"/><text fill="#000000" font-family="sans-serif" font-size="13" lengthAdjust="spacing" textLength="55" x="61" y="229.4769">addItem()</text><!--MD5=[1853d47896dcce3ab099e90e407d5672]
@startuml
title Tárgyfelvétel

actor Controller as c

Activate Player
c -> Player : addItem()
Player -> Room : removeItem()
Deactivate Player

alt No Space
c -> Player : addItem()
end
    
@enduml

PlantUML version 1.2022.7(Mon Aug 22 19:01:30 CEST 2022)
(GPL source distribution)
Java Runtime: OpenJDK Runtime Environment
JVM: OpenJDK 64-Bit Server VM
Default Encoding: UTF-8
Language: en
Country: US
--></g></svg>