<?xml version="1.0" encoding="UTF-8" standalone="no"?><svg xmlns="http://www.w3.org/2000/svg" xmlns:xlink="http://www.w3.org/1999/xlink" contentStyleType="text/css" height="398px" preserveAspectRatio="none" style="width:605px;height:398px;background:#FFFFFF;" version="1.1" viewBox="0 0 605 398" width="605px" zoomAndPan="magnify"><defs/><g><rect fill="none" height="26.7999" id="_title" style="stroke:none;stroke-width:1.0;" width="156" x="223.5" y="10"/><text fill="#000000" font-family="sans-serif" font-size="14" font-weight="bold" lengthAdjust="spacing" textLength="146" x="228.5" y="28.0059">Student uses Cheese</text><line style="stroke:#181818;stroke-width:0.5;stroke-dasharray:5.0,5.0;" x1="39" x2="39" y1="119.5999" y2="317.1999"/><line style="stroke:#181818;stroke-width:0.5;stroke-dasharray:5.0,5.0;" x1="134.5" x2="134.5" y1="119.5999" y2="317.1999"/><line style="stroke:#181818;stroke-width:0.5;stroke-dasharray:5.0,5.0;" x1="259" x2="259" y1="119.5999" y2="317.1999"/><line style="stroke:#181818;stroke-width:0.5;stroke-dasharray:5.0,5.0;" x1="422.5" x2="422.5" y1="119.5999" y2="317.1999"/><line style="stroke:#181818;stroke-width:0.5;stroke-dasharray:5.0,5.0;" x1="573" x2="573" y1="119.5999" y2="317.1999"/><text fill="#000000" font-family="sans-serif" font-size="14" lengthAdjust="spacing" textLength="62" x="5" y="115.8059">Controller</text><ellipse cx="39" cy="51.2999" fill="#E2E2F0" rx="8" ry="8" style="stroke:#181818;stroke-width:0.5;"/><path d="M39,59.2999 L39,86.2999 M26,67.2999 L52,67.2999 M39,86.2999 L26,101.2999 M39,86.2999 L52,101.2999 " fill="none" style="stroke:#181818;stroke-width:0.5;"/><text fill="#000000" font-family="sans-serif" font-size="14" lengthAdjust="spacing" textLength="62" x="5" y="329.2059">Controller</text><ellipse cx="39" cy="341.4999" fill="#E2E2F0" rx="8" ry="8" style="stroke:#181818;stroke-width:0.5;"/><path d="M39,349.4999 L39,376.4999 M26,357.4999 L52,357.4999 M39,376.4999 L26,391.4999 M39,376.4999 L52,391.4999 " fill="none" style="stroke:#181818;stroke-width:0.5;"/><rect fill="#E2E2F0" height="30.7999" rx="2.5" ry="2.5" style="stroke:#181818;stroke-width:0.5;" width="63" x="103.5" y="87.7999"/><text fill="#000000" font-family="sans-serif" font-size="14" lengthAdjust="spacing" textLength="49" x="110.5" y="107.8059">Student</text><rect fill="#E2E2F0" height="30.7999" rx="2.5" ry="2.5" style="stroke:#181818;stroke-width:0.5;" width="63" x="103.5" y="316.1999"/><text fill="#000000" font-family="sans-serif" font-size="14" lengthAdjust="spacing" textLength="49" x="110.5" y="336.2059">Student</text><rect fill="#E2E2F0" height="30.7999" style="stroke:#181818;stroke-width:0.5;" width="42" x="240" y="83.7999"/><rect fill="#E2E2F0" height="30.7999" style="stroke:#181818;stroke-width:0.5;" width="42" x="236" y="87.7999"/><text fill="#000000" font-family="sans-serif" font-size="14" lengthAdjust="spacing" textLength="28" x="243" y="107.8059">Item</text><rect fill="#E2E2F0" height="30.7999" style="stroke:#181818;stroke-width:0.5;" width="42" x="240" y="316.1999"/><rect fill="#E2E2F0" height="30.7999" style="stroke:#181818;stroke-width:0.5;" width="42" x="236" y="320.1999"/><text fill="#000000" font-family="sans-serif" font-size="14" lengthAdjust="spacing" textLength="28" x="243" y="340.2059">Item</text><rect fill="#E2E2F0" height="30.7999" rx="2.5" ry="2.5" style="stroke:#181818;stroke-width:0.5;" width="63" x="391.5" y="87.7999"/><text fill="#000000" font-family="sans-serif" font-size="14" lengthAdjust="spacing" textLength="49" x="398.5" y="107.8059">Cheese</text><rect fill="#E2E2F0" height="30.7999" rx="2.5" ry="2.5" style="stroke:#181818;stroke-width:0.5;" width="63" x="391.5" y="316.1999"/><text fill="#000000" font-family="sans-serif" font-size="14" lengthAdjust="spacing" textLength="49" x="398.5" y="336.2059">Cheese</text><rect fill="#E2E2F0" height="30.7999" rx="2.5" ry="2.5" style="stroke:#181818;stroke-width:0.5;" width="52" x="547" y="87.7999"/><text fill="#000000" font-family="sans-serif" font-size="14" lengthAdjust="spacing" textLength="38" x="554" y="107.8059">Room</text><rect fill="#E2E2F0" height="30.7999" rx="2.5" ry="2.5" style="stroke:#181818;stroke-width:0.5;" width="52" x="547" y="316.1999"/><text fill="#000000" font-family="sans-serif" font-size="14" lengthAdjust="spacing" textLength="38" x="554" y="336.2059">Room</text><polygon fill="#181818" points="123,147.1999,133,151.1999,123,155.1999,127,151.1999" style="stroke:#181818;stroke-width:1.0;"/><line style="stroke:#181818;stroke-width:1.0;" x1="39" x2="129" y1="151.1999" y2="151.1999"/><text fill="#000000" font-family="sans-serif" font-size="13" lengthAdjust="spacing" textLength="58" x="46" y="145.6769">listItems()</text><polygon fill="#181818" points="50,176.7999,40,180.7999,50,184.7999,46,180.7999" style="stroke:#181818;stroke-width:1.0;"/><line style="stroke:#181818;stroke-width:1.0;stroke-dasharray:2.0,2.0;" x1="44" x2="134" y1="180.7999" y2="180.7999"/><text fill="#000000" font-family="sans-serif" font-size="13" lengthAdjust="spacing" textLength="32" x="56" y="175.2769">items</text><polygon fill="#181818" points="123,206.3999,133,210.3999,123,214.3999,127,210.3999" style="stroke:#181818;stroke-width:1.0;"/><line style="stroke:#181818;stroke-width:1.0;" x1="39" x2="129" y1="210.3999" y2="210.3999"/><text fill="#000000" font-family="sans-serif" font-size="13" lengthAdjust="spacing" textLength="72" x="46" y="204.8769">useItem(idx)</text><polygon fill="#181818" points="247,235.9999,257,239.9999,247,243.9999,251,239.9999" style="stroke:#181818;stroke-width:1.0;"/><line style="stroke:#181818;stroke-width:1.0;" x1="135" x2="253" y1="239.9999" y2="239.9999"/><text fill="#000000" font-family="sans-serif" font-size="13" lengthAdjust="spacing" textLength="100" x="142" y="234.4769">useItem(Student)</text><polygon fill="#181818" points="411,265.5999,421,269.5999,411,273.5999,415,269.5999" style="stroke:#181818;stroke-width:1.0;"/><line style="stroke:#181818;stroke-width:1.0;" x1="259" x2="417" y1="269.5999" y2="269.5999"/><text fill="#000000" font-family="sans-serif" font-size="13" lengthAdjust="spacing" textLength="140" x="266" y="264.0769">Student.accept(Cheese)</text><polygon fill="#181818" points="561,295.1999,571,299.1999,561,303.1999,565,299.1999" style="stroke:#181818;stroke-width:1.0;"/><line style="stroke:#181818;stroke-width:1.0;" x1="423" x2="567" y1="299.1999" y2="299.1999"/><text fill="#000000" font-family="sans-serif" font-size="13" lengthAdjust="spacing" textLength="126" x="430" y="293.6769">setState(POISONED)</text><!--MD5=[0e1a1c583cbe13c67e0632a1ae61b566]
@startuml
title Student uses Cheese

actor Controller as c order 1
collections Item as Item order 30
participant Student order 20
participant Room Order 60
participant Cheese order 40

c -> Student : listItems()
Student - -> c : items
c -> Student : useItem(idx)
Student -> Item : useItem(Student)
Item -> Cheese : Student.accept(Cheese)
Cheese -> Room : setState(POISONED)


@enduml

PlantUML version 1.2022.7(Mon Aug 22 19:01:30 CEST 2022)
(GPL source distribution)
Java Runtime: OpenJDK Runtime Environment
JVM: OpenJDK 64-Bit Server VM
Default Encoding: UTF-8
Language: en
Country: US
--></g></svg>