<?xml version="1.0" encoding="UTF-8" standalone="no"?><svg xmlns="http://www.w3.org/2000/svg" xmlns:xlink="http://www.w3.org/1999/xlink" contentStyleType="text/css" height="670px" preserveAspectRatio="none" style="width:1473px;height:670px;background:#FFFFFF;" version="1.1" viewBox="0 0 1473 670" width="1473px" zoomAndPan="magnify"><defs/><g><!--MD5=[acc544531ba0f838b8e9723a97a4c7b6]
class Labirintus--><g id="elem_Labirintus"><rect codeLine="2" fill="#F1F1F1" height="48" id="Labirintus" rx="2.5" ry="2.5" style="stroke:#181818;stroke-width:0.5;" width="94" x="982" y="33.5"/><ellipse cx="997" cy="49.5" fill="#ADD1B2" rx="11" ry="11" style="stroke:#181818;stroke-width:1.0;"/><path d="M999.7656,45.375 Q999.9219,45.1563 1000.1094,45.0469 Q1000.2969,44.9375 1000.5156,44.9375 Q1000.8906,44.9375 1001.125,45.1953 Q1001.3594,45.4531 1001.3594,46.0625 L1001.3594,47.5156 Q1001.3594,48.125 1001.125,48.3906 Q1000.8906,48.6563 1000.5156,48.6563 Q1000.1719,48.6563 999.9688,48.4531 Q999.7656,48.2656 999.6563,47.75 Q999.6094,47.3906 999.4219,47.2031 Q999.0938,46.8281 998.4844,46.6094 Q997.875,46.3906 997.25,46.3906 Q996.4844,46.3906 995.8516,46.7188 Q995.2188,47.0469 994.7266,47.7969 Q994.2344,48.5469 994.2344,49.5781 L994.2344,50.6719 Q994.2344,51.9063 995.125,52.7266 Q996.0156,53.5469 997.6094,53.5469 Q998.5469,53.5469 999.2031,53.2969 Q999.5938,53.1406 1000.0156,52.7031 Q1000.2813,52.4375 1000.4297,52.3594 Q1000.5781,52.2813 1000.7813,52.2813 Q1001.1094,52.2813 1001.3672,52.5391 Q1001.625,52.7969 1001.625,53.1406 Q1001.625,53.4844 1001.2813,53.8906 Q1000.7813,54.4688 999.9844,54.7969 Q998.9063,55.25 997.6094,55.25 Q996.0938,55.25 994.8906,54.625 Q993.9063,54.125 993.2188,53.0547 Q992.5313,51.9844 992.5313,50.7031 L992.5313,49.5469 Q992.5313,48.2188 993.1484,47.0703 Q993.7656,45.9219 994.8594,45.3047 Q995.9531,44.6875 997.1875,44.6875 Q997.9219,44.6875 998.5703,44.8516 Q999.2188,45.0156 999.7656,45.375 Z " fill="#000000"/><text fill="#000000" font-family="sans-serif" font-size="14" lengthAdjust="spacing" textLength="62" x="1011" y="55.2285">Labirintus</text><line style="stroke:#181818;stroke-width:0.5;" x1="983" x2="1075" y1="65.5" y2="65.5"/><line style="stroke:#181818;stroke-width:0.5;" x1="983" x2="1075" y1="73.5" y2="73.5"/></g><!--MD5=[742f554746fccd9eb5e120daba602f39]
class Szoba--><g id="elem_Szoba"><rect codeLine="4" fill="#F1F1F1" height="188.875" id="Szoba" rx="2.5" ry="2.5" style="stroke:#181818;stroke-width:0.5;" width="266" x="993" y="186"/><ellipse cx="1102.25" cy="202" fill="#ADD1B2" rx="11" ry="11" style="stroke:#181818;stroke-width:1.0;"/><path d="M1105.0156,197.875 Q1105.1719,197.6563 1105.3594,197.5469 Q1105.5469,197.4375 1105.7656,197.4375 Q1106.1406,197.4375 1106.375,197.6953 Q1106.6094,197.9531 1106.6094,198.5625 L1106.6094,200.0156 Q1106.6094,200.625 1106.375,200.8906 Q1106.1406,201.1563 1105.7656,201.1563 Q1105.4219,201.1563 1105.2188,200.9531 Q1105.0156,200.7656 1104.9063,200.25 Q1104.8594,199.8906 1104.6719,199.7031 Q1104.3438,199.3281 1103.7344,199.1094 Q1103.125,198.8906 1102.5,198.8906 Q1101.7344,198.8906 1101.1016,199.2188 Q1100.4688,199.5469 1099.9766,200.2969 Q1099.4844,201.0469 1099.4844,202.0781 L1099.4844,203.1719 Q1099.4844,204.4063 1100.375,205.2266 Q1101.2656,206.0469 1102.8594,206.0469 Q1103.7969,206.0469 1104.4531,205.7969 Q1104.8438,205.6406 1105.2656,205.2031 Q1105.5313,204.9375 1105.6797,204.8594 Q1105.8281,204.7813 1106.0313,204.7813 Q1106.3594,204.7813 1106.6172,205.0391 Q1106.875,205.2969 1106.875,205.6406 Q1106.875,205.9844 1106.5313,206.3906 Q1106.0313,206.9688 1105.2344,207.2969 Q1104.1563,207.75 1102.8594,207.75 Q1101.3438,207.75 1100.1406,207.125 Q1099.1563,206.625 1098.4688,205.5547 Q1097.7813,204.4844 1097.7813,203.2031 L1097.7813,202.0469 Q1097.7813,200.7188 1098.3984,199.5703 Q1099.0156,198.4219 1100.1094,197.8047 Q1101.2031,197.1875 1102.4375,197.1875 Q1103.1719,197.1875 1103.8203,197.3516 Q1104.4688,197.5156 1105.0156,197.875 Z " fill="#000000"/><text fill="#000000" font-family="sans-serif" font-size="14" lengthAdjust="spacing" textLength="39" x="1122.75" y="207.7285">Szoba</text><line style="stroke:#181818;stroke-width:0.5;" x1="994" x2="1258" y1="218" y2="218"/><rect fill="none" height="6" style="stroke:#C82930;stroke-width:1.0;" width="6" x="1001" y="229.3047"/><text fill="#000000" font-family="sans-serif" font-size="14" lengthAdjust="spacing" textLength="96" x="1013" y="236.5332">maxJatekos: int</text><line style="stroke:#181818;stroke-width:0.5;" x1="994" x2="1258" y1="243.6094" y2="243.6094"/><ellipse cx="1004" cy="257.9141" fill="#84BE84" rx="3" ry="3" style="stroke:#038048;stroke-width:1.0;"/><text fill="#000000" font-family="sans-serif" font-size="14" lengthAdjust="spacing" textLength="163" x="1013" y="262.1426">getSzomszedok(): Szoba[]</text><ellipse cx="1004" cy="275.5234" fill="#84BE84" rx="3" ry="3" style="stroke:#038048;stroke-width:1.0;"/><text fill="#000000" font-family="sans-serif" font-size="14" lengthAdjust="spacing" textLength="217" x="1013" y="279.752">addJatekos(jatekos: Jatekos): void</text><ellipse cx="1004" cy="293.1328" fill="#84BE84" rx="3" ry="3" style="stroke:#038048;stroke-width:1.0;"/><text fill="#000000" font-family="sans-serif" font-size="14" lengthAdjust="spacing" textLength="240" x="1013" y="297.3613">removeJatekos(jatekos: Jatekos): void</text><ellipse cx="1004" cy="310.7422" fill="#84BE84" rx="3" ry="3" style="stroke:#038048;stroke-width:1.0;"/><text fill="#000000" font-family="sans-serif" font-size="14" lengthAdjust="spacing" textLength="215" x="1013" y="314.9707">addSzomszed(szoba: Szoba): void</text><ellipse cx="1004" cy="328.3516" fill="#84BE84" rx="3" ry="3" style="stroke:#038048;stroke-width:1.0;"/><text fill="#000000" font-family="sans-serif" font-size="14" lengthAdjust="spacing" textLength="238" x="1013" y="332.5801">removeSzomszed(szoba: Szoba): void</text><ellipse cx="1004" cy="345.9609" fill="#84BE84" rx="3" ry="3" style="stroke:#038048;stroke-width:1.0;"/><text fill="#000000" font-family="sans-serif" font-size="14" lengthAdjust="spacing" textLength="177" x="1013" y="350.1895">egyesul(szoba: Szoba): void</text><ellipse cx="1004" cy="363.5703" fill="#84BE84" rx="3" ry="3" style="stroke:#038048;stroke-width:1.0;"/><text fill="#000000" font-family="sans-serif" font-size="14" lengthAdjust="spacing" textLength="111" x="1013" y="367.7988">szetszed(): Szoba</text></g><!--MD5=[b91af019834c0b134289fdc67e4b1f5b]
class ITargyHolder--><g id="elem_ITargyHolder"><rect codeLine="53" fill="#F1F1F1" height="100.8281" id="ITargyHolder" rx="2.5" ry="2.5" style="stroke:#181818;stroke-width:0.5;" width="231" x="1111.5" y="7"/><ellipse cx="1181.25" cy="23" fill="#B4A7E5" rx="11" ry="11" style="stroke:#181818;stroke-width:1.0;"/><path d="M1182.2031,19.6406 L1182.2031,26.2969 L1183.9219,26.2969 Q1184.5313,26.2969 1184.7969,26.5313 Q1185.0625,26.7656 1185.0625,27.1563 Q1185.0625,27.5313 1184.7969,27.7656 Q1184.5313,28 1183.9219,28 L1178.7813,28 Q1178.1719,28 1177.9063,27.7656 Q1177.6406,27.5313 1177.6406,27.1406 Q1177.6406,26.7656 1177.9063,26.5313 Q1178.1719,26.2969 1178.7813,26.2969 L1180.5,26.2969 L1180.5,19.6406 L1178.7813,19.6406 Q1178.1719,19.6406 1177.9063,19.4063 Q1177.6406,19.1719 1177.6406,18.7813 Q1177.6406,18.4063 1177.9063,18.1719 Q1178.1719,17.9375 1178.7813,17.9375 L1183.9219,17.9375 Q1184.5313,17.9375 1184.7969,18.1719 Q1185.0625,18.4063 1185.0625,18.7813 Q1185.0625,19.1719 1184.7969,19.4063 Q1184.5313,19.6406 1183.9219,19.6406 L1182.2031,19.6406 Z " fill="#000000"/><text fill="#000000" font-family="sans-serif" font-size="14" font-style="italic" lengthAdjust="spacing" textLength="83" x="1201.75" y="28.7285">ITargyHolder</text><line style="stroke:#181818;stroke-width:0.5;" x1="1112.5" x2="1341.5" y1="39" y2="39"/><polygon fill="none" points="1122.5,48.3047,1126.5,52.3047,1122.5,56.3047,1118.5,52.3047" style="stroke:#B38D22;stroke-width:1.0;"/><text fill="#000000" font-family="sans-serif" font-size="14" lengthAdjust="spacing" textLength="85" x="1131.5" y="57.5332">maxTargy: int</text><line style="stroke:#181818;stroke-width:0.5;" x1="1112.5" x2="1341.5" y1="64.6094" y2="64.6094"/><polygon fill="#FFFF44" points="1122.5,73.9141,1126.5,77.9141,1122.5,81.9141,1118.5,77.9141" style="stroke:#B38D22;stroke-width:1.0;"/><text fill="#000000" font-family="sans-serif" font-size="14" lengthAdjust="spacing" textLength="182" x="1131.5" y="83.1426">addTargy(tárgy: Targy): void</text><polygon fill="#FFFF44" points="1122.5,91.5234,1126.5,95.5234,1122.5,99.5234,1118.5,95.5234" style="stroke:#B38D22;stroke-width:1.0;"/><text fill="#000000" font-family="sans-serif" font-size="14" lengthAdjust="spacing" textLength="205" x="1131.5" y="100.752">removeTargy(tárgy: Targy): void</text></g><!--MD5=[679218b1c7ec85bdadfbc951a28f1431]
class Jatekos--><g id="elem_Jatekos"><rect codeLine="28" fill="#F1F1F1" height="83.2188" id="Jatekos" rx="2.5" ry="2.5" style="stroke:#181818;stroke-width:0.5;" width="110" x="1313" y="462"/><ellipse cx="1340.6" cy="478" fill="#A9DCDF" rx="11" ry="11" style="stroke:#181818;stroke-width:1.0;"/><path d="M1342.7875,479.7656 L1338.6469,479.7656 L1338.225,480.7969 L1338.6469,480.7969 Q1339.2563,480.7969 1339.5219,481.0313 Q1339.7875,481.2656 1339.7875,481.6563 Q1339.7875,482.0313 1339.5219,482.2656 Q1339.2563,482.5 1338.6469,482.5 L1336.35,482.5 Q1335.7406,482.5 1335.4828,482.2656 Q1335.225,482.0313 1335.225,481.6406 Q1335.225,481.2656 1335.4984,481.0234 Q1335.7719,480.7813 1336.3969,480.7969 L1339.0688,474.1406 L1337.9594,474.1406 Q1337.35,474.1406 1337.0844,473.9063 Q1336.8188,473.6719 1336.8188,473.2813 Q1336.8188,472.9063 1337.0844,472.6719 Q1337.35,472.4375 1337.9594,472.4375 L1341.6313,472.4375 L1345.0219,480.7969 Q1345.6156,480.7969 1345.8031,480.9375 Q1346.1938,481.2031 1346.1938,481.6563 Q1346.1938,482.0313 1345.9359,482.2656 Q1345.6781,482.5 1345.0688,482.5 L1342.7719,482.5 Q1342.1625,482.5 1341.8969,482.2656 Q1341.6313,482.0313 1341.6313,481.6406 Q1341.6313,481.2656 1341.8969,481.0313 Q1342.1625,480.7969 1342.7719,480.7969 L1343.1938,480.7969 L1342.7875,479.7656 Z M1342.0688,478.0625 L1340.7094,474.6875 L1339.3344,478.0625 L1342.0688,478.0625 Z " fill="#000000"/><text fill="#000000" font-family="sans-serif" font-size="14" font-style="italic" lengthAdjust="spacing" textLength="50" x="1357.4" y="483.7285">Jatekos</text><line style="stroke:#181818;stroke-width:0.5;" x1="1314" x2="1422" y1="494" y2="494"/><ellipse cx="1324" cy="508.3047" fill="none" rx="3" ry="3" style="stroke:#038048;stroke-width:1.0;"/><text fill="#000000" font-family="sans-serif" font-size="14" lengthAdjust="spacing" textLength="84" x="1333" y="512.5332">szoba: Szoba</text><line style="stroke:#181818;stroke-width:0.5;" x1="1314" x2="1422" y1="519.6094" y2="519.6094"/><ellipse cx="1324" cy="533.9141" fill="#84BE84" rx="3" ry="3" style="stroke:#038048;stroke-width:1.0;"/><text fill="#000000" font-family="sans-serif" font-size="14" lengthAdjust="spacing" textLength="81" x="1333" y="538.1426">sebez(): void</text></g><!--MD5=[bd3ab634dbc1e73d5b1153df1734f1b0]
class Targy--><g id="elem_Targy"><rect codeLine="23" fill="#F1F1F1" height="83.2188" id="Targy" rx="2.5" ry="2.5" style="stroke:#181818;stroke-width:0.5;" width="161" x="636.5" y="239"/><ellipse cx="694.25" cy="255" fill="#A9DCDF" rx="11" ry="11" style="stroke:#181818;stroke-width:1.0;"/><path d="M696.4375,256.7656 L692.2969,256.7656 L691.875,257.7969 L692.2969,257.7969 Q692.9063,257.7969 693.1719,258.0313 Q693.4375,258.2656 693.4375,258.6563 Q693.4375,259.0313 693.1719,259.2656 Q692.9063,259.5 692.2969,259.5 L690,259.5 Q689.3906,259.5 689.1328,259.2656 Q688.875,259.0313 688.875,258.6406 Q688.875,258.2656 689.1484,258.0234 Q689.4219,257.7813 690.0469,257.7969 L692.7188,251.1406 L691.6094,251.1406 Q691,251.1406 690.7344,250.9063 Q690.4688,250.6719 690.4688,250.2813 Q690.4688,249.9063 690.7344,249.6719 Q691,249.4375 691.6094,249.4375 L695.2813,249.4375 L698.6719,257.7969 Q699.2656,257.7969 699.4531,257.9375 Q699.8438,258.2031 699.8438,258.6563 Q699.8438,259.0313 699.5859,259.2656 Q699.3281,259.5 698.7188,259.5 L696.4219,259.5 Q695.8125,259.5 695.5469,259.2656 Q695.2813,259.0313 695.2813,258.6406 Q695.2813,258.2656 695.5469,258.0313 Q695.8125,257.7969 696.4219,257.7969 L696.8438,257.7969 L696.4375,256.7656 Z M695.7188,255.0625 L694.3594,251.6875 L692.9844,255.0625 L695.7188,255.0625 Z " fill="#000000"/><text fill="#000000" font-family="sans-serif" font-size="14" font-style="italic" lengthAdjust="spacing" textLength="37" x="714.75" y="260.7285">Targy</text><line style="stroke:#181818;stroke-width:0.5;" x1="637.5" x2="796.5" y1="271" y2="271"/><ellipse cx="647.5" cy="285.3047" fill="none" rx="3" ry="3" style="stroke:#038048;stroke-width:1.0;"/><text fill="#000000" font-family="sans-serif" font-size="14" lengthAdjust="spacing" textLength="135" x="656.5" y="289.5332">hasznalhato: boolean</text><line style="stroke:#181818;stroke-width:0.5;" x1="637.5" x2="796.5" y1="296.6094" y2="296.6094"/><ellipse cx="647.5" cy="310.9141" fill="#84BE84" rx="3" ry="3" style="stroke:#038048;stroke-width:1.0;"/><text fill="#000000" font-family="sans-serif" font-size="14" lengthAdjust="spacing" textLength="92" x="656.5" y="315.1426">hasznal(): void</text></g><!--MD5=[00fd24efe782e6af66121853aaf2a138]
class ESzobaAllapot--><g id="elem_ESzobaAllapot"><rect codeLine="59" fill="#F1F1F1" height="100.8281" id="ESzobaAllapot" rx="2.5" ry="2.5" style="stroke:#181818;stroke-width:0.5;" width="123" x="1094.5" y="453"/><ellipse cx="1109.5" cy="469" fill="#EB937F" rx="11" ry="11" style="stroke:#181818;stroke-width:1.0;"/><path d="M1108.3594,469.7969 L1108.3594,472.2969 L1112.6875,472.2969 L1112.6875,471.375 Q1112.6875,470.7656 1112.9297,470.5 Q1113.1719,470.2344 1113.5469,470.2344 Q1113.9219,470.2344 1114.1563,470.5 Q1114.3906,470.7656 1114.3906,471.375 L1114.3906,474 L1106.3906,474 Q1105.7656,474 1105.5078,473.7656 Q1105.25,473.5313 1105.25,473.1406 Q1105.25,472.7656 1105.5156,472.5313 Q1105.7813,472.2969 1106.3906,472.2969 L1106.6563,472.2969 L1106.6563,465.6406 L1106.3906,465.6406 Q1105.7656,465.6406 1105.5078,465.4063 Q1105.25,465.1719 1105.25,464.7813 Q1105.25,464.4063 1105.5078,464.1719 Q1105.7656,463.9375 1106.3906,463.9375 L1114.0156,463.9375 L1114.0156,466.5313 Q1114.0156,467.1406 1113.7891,467.3984 Q1113.5625,467.6563 1113.1719,467.6563 Q1112.7969,467.6563 1112.5625,467.3984 Q1112.3281,467.1406 1112.3281,466.5313 L1112.3281,465.6406 L1108.3594,465.6406 L1108.3594,468.0938 L1109.8438,468.0938 Q1109.8438,467.4375 1109.9688,467.25 Q1110.2344,466.8438 1110.7031,466.8438 Q1111.0781,466.8438 1111.3125,467.1016 Q1111.5469,467.3594 1111.5469,467.9688 L1111.5469,469.9375 Q1111.5469,470.4844 1111.4219,470.6719 Q1111.1563,471.0625 1110.7031,471.0625 Q1110.2344,471.0625 1109.9688,470.6563 Q1109.8438,470.4688 1109.8438,469.7969 L1108.3594,469.7969 Z " fill="#000000"/><text fill="#000000" font-family="sans-serif" font-size="14" lengthAdjust="spacing" textLength="91" x="1123.5" y="474.7285">ESzobaAllapot</text><line style="stroke:#181818;stroke-width:0.5;" x1="1095.5" x2="1216.5" y1="485" y2="485"/><text fill="#000000" font-family="sans-serif" font-size="14" lengthAdjust="spacing" textLength="57" x="1100.5" y="503.5332">OPENED</text><text fill="#000000" font-family="sans-serif" font-size="14" lengthAdjust="spacing" textLength="57" x="1100.5" y="521.1426">CLOSED</text><text fill="#000000" font-family="sans-serif" font-size="14" lengthAdjust="spacing" textLength="48" x="1100.5" y="538.752">GAZOS</text><line style="stroke:#181818;stroke-width:0.5;" x1="1095.5" x2="1216.5" y1="545.8281" y2="545.8281"/></g><!--MD5=[474a14b66dcca8254fb46d38da9f7df4]
class Oktato--><g id="elem_Oktato"><rect codeLine="35" fill="#F1F1F1" height="48" id="Oktato" rx="2.5" ry="2.5" style="stroke:#181818;stroke-width:0.5;" width="74" x="1274" y="615"/><ellipse cx="1289" cy="631" fill="#ADD1B2" rx="11" ry="11" style="stroke:#181818;stroke-width:1.0;"/><path d="M1291.7656,626.875 Q1291.9219,626.6563 1292.1094,626.5469 Q1292.2969,626.4375 1292.5156,626.4375 Q1292.8906,626.4375 1293.125,626.6953 Q1293.3594,626.9531 1293.3594,627.5625 L1293.3594,629.0156 Q1293.3594,629.625 1293.125,629.8906 Q1292.8906,630.1563 1292.5156,630.1563 Q1292.1719,630.1563 1291.9688,629.9531 Q1291.7656,629.7656 1291.6563,629.25 Q1291.6094,628.8906 1291.4219,628.7031 Q1291.0938,628.3281 1290.4844,628.1094 Q1289.875,627.8906 1289.25,627.8906 Q1288.4844,627.8906 1287.8516,628.2188 Q1287.2188,628.5469 1286.7266,629.2969 Q1286.2344,630.0469 1286.2344,631.0781 L1286.2344,632.1719 Q1286.2344,633.4063 1287.125,634.2266 Q1288.0156,635.0469 1289.6094,635.0469 Q1290.5469,635.0469 1291.2031,634.7969 Q1291.5938,634.6406 1292.0156,634.2031 Q1292.2813,633.9375 1292.4297,633.8594 Q1292.5781,633.7813 1292.7813,633.7813 Q1293.1094,633.7813 1293.3672,634.0391 Q1293.625,634.2969 1293.625,634.6406 Q1293.625,634.9844 1293.2813,635.3906 Q1292.7813,635.9688 1291.9844,636.2969 Q1290.9063,636.75 1289.6094,636.75 Q1288.0938,636.75 1286.8906,636.125 Q1285.9063,635.625 1285.2188,634.5547 Q1284.5313,633.4844 1284.5313,632.2031 L1284.5313,631.0469 Q1284.5313,629.7188 1285.1484,628.5703 Q1285.7656,627.4219 1286.8594,626.8047 Q1287.9531,626.1875 1289.1875,626.1875 Q1289.9219,626.1875 1290.5703,626.3516 Q1291.2188,626.5156 1291.7656,626.875 Z " fill="#000000"/><text fill="#000000" font-family="sans-serif" font-size="14" lengthAdjust="spacing" textLength="42" x="1303" y="636.7285">Oktato</text><line style="stroke:#181818;stroke-width:0.5;" x1="1275" x2="1347" y1="647" y2="647"/><line style="stroke:#181818;stroke-width:0.5;" x1="1275" x2="1347" y1="655" y2="655"/></g><!--MD5=[d18b4822446c4d57950b88df87487890]
class Hallgato--><g id="elem_Hallgato"><rect codeLine="36" fill="#F1F1F1" height="48" id="Hallgato" rx="2.5" ry="2.5" style="stroke:#181818;stroke-width:0.5;" width="83" x="1383.5" y="615"/><ellipse cx="1398.5" cy="631" fill="#ADD1B2" rx="11" ry="11" style="stroke:#181818;stroke-width:1.0;"/><path d="M1401.2656,626.875 Q1401.4219,626.6563 1401.6094,626.5469 Q1401.7969,626.4375 1402.0156,626.4375 Q1402.3906,626.4375 1402.625,626.6953 Q1402.8594,626.9531 1402.8594,627.5625 L1402.8594,629.0156 Q1402.8594,629.625 1402.625,629.8906 Q1402.3906,630.1563 1402.0156,630.1563 Q1401.6719,630.1563 1401.4688,629.9531 Q1401.2656,629.7656 1401.1563,629.25 Q1401.1094,628.8906 1400.9219,628.7031 Q1400.5938,628.3281 1399.9844,628.1094 Q1399.375,627.8906 1398.75,627.8906 Q1397.9844,627.8906 1397.3516,628.2188 Q1396.7188,628.5469 1396.2266,629.2969 Q1395.7344,630.0469 1395.7344,631.0781 L1395.7344,632.1719 Q1395.7344,633.4063 1396.625,634.2266 Q1397.5156,635.0469 1399.1094,635.0469 Q1400.0469,635.0469 1400.7031,634.7969 Q1401.0938,634.6406 1401.5156,634.2031 Q1401.7813,633.9375 1401.9297,633.8594 Q1402.0781,633.7813 1402.2813,633.7813 Q1402.6094,633.7813 1402.8672,634.0391 Q1403.125,634.2969 1403.125,634.6406 Q1403.125,634.9844 1402.7813,635.3906 Q1402.2813,635.9688 1401.4844,636.2969 Q1400.4063,636.75 1399.1094,636.75 Q1397.5938,636.75 1396.3906,636.125 Q1395.4063,635.625 1394.7188,634.5547 Q1394.0313,633.4844 1394.0313,632.2031 L1394.0313,631.0469 Q1394.0313,629.7188 1394.6484,628.5703 Q1395.2656,627.4219 1396.3594,626.8047 Q1397.4531,626.1875 1398.6875,626.1875 Q1399.4219,626.1875 1400.0703,626.3516 Q1400.7188,626.5156 1401.2656,626.875 Z " fill="#000000"/><text fill="#000000" font-family="sans-serif" font-size="14" lengthAdjust="spacing" textLength="51" x="1412.5" y="636.7285">Hallgato</text><line style="stroke:#181818;stroke-width:0.5;" x1="1384.5" x2="1465.5" y1="647" y2="647"/><line style="stroke:#181818;stroke-width:0.5;" x1="1384.5" x2="1465.5" y1="655" y2="655"/></g><!--MD5=[297e611ec450c7a42b769f7a5806b59a]
class Tranzisztor--><g id="elem_Tranzisztor"><rect codeLine="39" fill="#F1F1F1" height="65.6094" id="Tranzisztor" rx="2.5" ry="2.5" style="stroke:#181818;stroke-width:0.5;" width="160" x="7" y="470.5"/><ellipse cx="48.55" cy="486.5" fill="#ADD1B2" rx="11" ry="11" style="stroke:#181818;stroke-width:1.0;"/><path d="M51.3156,482.375 Q51.4719,482.1563 51.6594,482.0469 Q51.8469,481.9375 52.0656,481.9375 Q52.4406,481.9375 52.675,482.1953 Q52.9094,482.4531 52.9094,483.0625 L52.9094,484.5156 Q52.9094,485.125 52.675,485.3906 Q52.4406,485.6563 52.0656,485.6563 Q51.7219,485.6563 51.5188,485.4531 Q51.3156,485.2656 51.2063,484.75 Q51.1594,484.3906 50.9719,484.2031 Q50.6438,483.8281 50.0344,483.6094 Q49.425,483.3906 48.8,483.3906 Q48.0344,483.3906 47.4016,483.7188 Q46.7688,484.0469 46.2766,484.7969 Q45.7844,485.5469 45.7844,486.5781 L45.7844,487.6719 Q45.7844,488.9063 46.675,489.7266 Q47.5656,490.5469 49.1594,490.5469 Q50.0969,490.5469 50.7531,490.2969 Q51.1438,490.1406 51.5656,489.7031 Q51.8313,489.4375 51.9797,489.3594 Q52.1281,489.2813 52.3313,489.2813 Q52.6594,489.2813 52.9172,489.5391 Q53.175,489.7969 53.175,490.1406 Q53.175,490.4844 52.8313,490.8906 Q52.3313,491.4688 51.5344,491.7969 Q50.4563,492.25 49.1594,492.25 Q47.6438,492.25 46.4406,491.625 Q45.4563,491.125 44.7688,490.0547 Q44.0813,488.9844 44.0813,487.7031 L44.0813,486.5469 Q44.0813,485.2188 44.6984,484.0703 Q45.3156,482.9219 46.4094,482.3047 Q47.5031,481.6875 48.7375,481.6875 Q49.4719,481.6875 50.1203,481.8516 Q50.7688,482.0156 51.3156,482.375 Z " fill="#000000"/><text fill="#000000" font-family="sans-serif" font-size="14" lengthAdjust="spacing" textLength="69" x="68.45" y="492.2285">Tranzisztor</text><line style="stroke:#181818;stroke-width:0.5;" x1="8" x2="166" y1="502.5" y2="502.5"/><ellipse cx="18" cy="516.8047" fill="none" rx="3" ry="3" style="stroke:#038048;stroke-width:1.0;"/><text fill="#000000" font-family="sans-serif" font-size="14" lengthAdjust="spacing" textLength="134" x="27" y="521.0332">pár: Tranzisztor || null</text><line style="stroke:#181818;stroke-width:0.5;" x1="8" x2="166" y1="528.1094" y2="528.1094"/></g><!--MD5=[1c2b96da30051402419535db1ceb071a]
class TVSZ--><g id="elem_TVSZ"><rect codeLine="42" fill="#F1F1F1" height="65.6094" id="TVSZ" rx="2.5" ry="2.5" style="stroke:#181818;stroke-width:0.5;" width="143" x="202.5" y="470.5"/><ellipse cx="252.25" cy="486.5" fill="#ADD1B2" rx="11" ry="11" style="stroke:#181818;stroke-width:1.0;"/><path d="M255.0156,482.375 Q255.1719,482.1563 255.3594,482.0469 Q255.5469,481.9375 255.7656,481.9375 Q256.1406,481.9375 256.375,482.1953 Q256.6094,482.4531 256.6094,483.0625 L256.6094,484.5156 Q256.6094,485.125 256.375,485.3906 Q256.1406,485.6563 255.7656,485.6563 Q255.4219,485.6563 255.2188,485.4531 Q255.0156,485.2656 254.9063,484.75 Q254.8594,484.3906 254.6719,484.2031 Q254.3438,483.8281 253.7344,483.6094 Q253.125,483.3906 252.5,483.3906 Q251.7344,483.3906 251.1016,483.7188 Q250.4688,484.0469 249.9766,484.7969 Q249.4844,485.5469 249.4844,486.5781 L249.4844,487.6719 Q249.4844,488.9063 250.375,489.7266 Q251.2656,490.5469 252.8594,490.5469 Q253.7969,490.5469 254.4531,490.2969 Q254.8438,490.1406 255.2656,489.7031 Q255.5313,489.4375 255.6797,489.3594 Q255.8281,489.2813 256.0313,489.2813 Q256.3594,489.2813 256.6172,489.5391 Q256.875,489.7969 256.875,490.1406 Q256.875,490.4844 256.5313,490.8906 Q256.0313,491.4688 255.2344,491.7969 Q254.1563,492.25 252.8594,492.25 Q251.3438,492.25 250.1406,491.625 Q249.1563,491.125 248.4688,490.0547 Q247.7813,488.9844 247.7813,487.7031 L247.7813,486.5469 Q247.7813,485.2188 248.3984,484.0703 Q249.0156,482.9219 250.1094,482.3047 Q251.2031,481.6875 252.4375,481.6875 Q253.1719,481.6875 253.8203,481.8516 Q254.4688,482.0156 255.0156,482.375 Z " fill="#000000"/><text fill="#000000" font-family="sans-serif" font-size="14" lengthAdjust="spacing" textLength="35" x="272.75" y="492.2285">TVSZ</text><line style="stroke:#181818;stroke-width:0.5;" x1="203.5" x2="344.5" y1="502.5" y2="502.5"/><ellipse cx="213.5" cy="516.8047" fill="none" rx="3" ry="3" style="stroke:#038048;stroke-width:1.0;"/><text fill="#000000" font-family="sans-serif" font-size="14" lengthAdjust="spacing" textLength="117" x="222.5" y="521.0332">hasznalhatoDb: int</text><line style="stroke:#181818;stroke-width:0.5;" x1="203.5" x2="344.5" y1="528.1094" y2="528.1094"/></g><!--MD5=[a3631629f18de147b50f11f2efaea212]
class SorosPohar--><g id="elem_SorosPohar"><rect codeLine="45" fill="#F1F1F1" height="65.6094" id="SorosPohar" rx="2.5" ry="2.5" style="stroke:#181818;stroke-width:0.5;" width="202" x="381" y="470.5"/><ellipse cx="440.25" cy="486.5" fill="#ADD1B2" rx="11" ry="11" style="stroke:#181818;stroke-width:1.0;"/><path d="M443.0156,482.375 Q443.1719,482.1563 443.3594,482.0469 Q443.5469,481.9375 443.7656,481.9375 Q444.1406,481.9375 444.375,482.1953 Q444.6094,482.4531 444.6094,483.0625 L444.6094,484.5156 Q444.6094,485.125 444.375,485.3906 Q444.1406,485.6563 443.7656,485.6563 Q443.4219,485.6563 443.2188,485.4531 Q443.0156,485.2656 442.9063,484.75 Q442.8594,484.3906 442.6719,484.2031 Q442.3438,483.8281 441.7344,483.6094 Q441.125,483.3906 440.5,483.3906 Q439.7344,483.3906 439.1016,483.7188 Q438.4688,484.0469 437.9766,484.7969 Q437.4844,485.5469 437.4844,486.5781 L437.4844,487.6719 Q437.4844,488.9063 438.375,489.7266 Q439.2656,490.5469 440.8594,490.5469 Q441.7969,490.5469 442.4531,490.2969 Q442.8438,490.1406 443.2656,489.7031 Q443.5313,489.4375 443.6797,489.3594 Q443.8281,489.2813 444.0313,489.2813 Q444.3594,489.2813 444.6172,489.5391 Q444.875,489.7969 444.875,490.1406 Q444.875,490.4844 444.5313,490.8906 Q444.0313,491.4688 443.2344,491.7969 Q442.1563,492.25 440.8594,492.25 Q439.3438,492.25 438.1406,491.625 Q437.1563,491.125 436.4688,490.0547 Q435.7813,488.9844 435.7813,487.7031 L435.7813,486.5469 Q435.7813,485.2188 436.3984,484.0703 Q437.0156,482.9219 438.1094,482.3047 Q439.2031,481.6875 440.4375,481.6875 Q441.1719,481.6875 441.8203,481.8516 Q442.4688,482.0156 443.0156,482.375 Z " fill="#000000"/><text fill="#000000" font-family="sans-serif" font-size="14" lengthAdjust="spacing" textLength="75" x="460.75" y="492.2285">SorosPohar</text><line style="stroke:#181818;stroke-width:0.5;" x1="382" x2="582" y1="502.5" y2="502.5"/><ellipse cx="392" cy="516.8047" fill="none" rx="3" ry="3" style="stroke:#038048;stroke-width:1.0;"/><text fill="#000000" font-family="sans-serif" font-size="14" lengthAdjust="spacing" textLength="176" x="401" y="521.0332">hasznalhatoTime: DateTime</text><line style="stroke:#181818;stroke-width:0.5;" x1="382" x2="582" y1="528.1094" y2="528.1094"/></g><!--MD5=[965f84f259993fc86dd31b27e93f39e2]
class Camambert--><g id="elem_Camambert"><rect codeLine="48" fill="#F1F1F1" height="48" id="Camambert" rx="2.5" ry="2.5" style="stroke:#181818;stroke-width:0.5;" width="105" x="726.5" y="479.5"/><ellipse cx="741.5" cy="495.5" fill="#ADD1B2" rx="11" ry="11" style="stroke:#181818;stroke-width:1.0;"/><path d="M744.2656,491.375 Q744.4219,491.1563 744.6094,491.0469 Q744.7969,490.9375 745.0156,490.9375 Q745.3906,490.9375 745.625,491.1953 Q745.8594,491.4531 745.8594,492.0625 L745.8594,493.5156 Q745.8594,494.125 745.625,494.3906 Q745.3906,494.6563 745.0156,494.6563 Q744.6719,494.6563 744.4688,494.4531 Q744.2656,494.2656 744.1563,493.75 Q744.1094,493.3906 743.9219,493.2031 Q743.5938,492.8281 742.9844,492.6094 Q742.375,492.3906 741.75,492.3906 Q740.9844,492.3906 740.3516,492.7188 Q739.7188,493.0469 739.2266,493.7969 Q738.7344,494.5469 738.7344,495.5781 L738.7344,496.6719 Q738.7344,497.9063 739.625,498.7266 Q740.5156,499.5469 742.1094,499.5469 Q743.0469,499.5469 743.7031,499.2969 Q744.0938,499.1406 744.5156,498.7031 Q744.7813,498.4375 744.9297,498.3594 Q745.0781,498.2813 745.2813,498.2813 Q745.6094,498.2813 745.8672,498.5391 Q746.125,498.7969 746.125,499.1406 Q746.125,499.4844 745.7813,499.8906 Q745.2813,500.4688 744.4844,500.7969 Q743.4063,501.25 742.1094,501.25 Q740.5938,501.25 739.3906,500.625 Q738.4063,500.125 737.7188,499.0547 Q737.0313,497.9844 737.0313,496.7031 L737.0313,495.5469 Q737.0313,494.2188 737.6484,493.0703 Q738.2656,491.9219 739.3594,491.3047 Q740.4531,490.6875 741.6875,490.6875 Q742.4219,490.6875 743.0703,490.8516 Q743.7188,491.0156 744.2656,491.375 Z " fill="#000000"/><text fill="#000000" font-family="sans-serif" font-size="14" lengthAdjust="spacing" textLength="73" x="755.5" y="501.2285">Camambert</text><line style="stroke:#181818;stroke-width:0.5;" x1="727.5" x2="830.5" y1="511.5" y2="511.5"/><line style="stroke:#181818;stroke-width:0.5;" x1="727.5" x2="830.5" y1="519.5" y2="519.5"/></g><!--MD5=[416fc93a0bb670370b24c9f1edf6141b]
class Maszk--><g id="elem_Maszk"><rect codeLine="49" fill="#F1F1F1" height="48" id="Maszk" rx="2.5" ry="2.5" style="stroke:#181818;stroke-width:0.5;" width="71" x="866.5" y="479.5"/><ellipse cx="881.5" cy="495.5" fill="#ADD1B2" rx="11" ry="11" style="stroke:#181818;stroke-width:1.0;"/><path d="M884.2656,491.375 Q884.4219,491.1563 884.6094,491.0469 Q884.7969,490.9375 885.0156,490.9375 Q885.3906,490.9375 885.625,491.1953 Q885.8594,491.4531 885.8594,492.0625 L885.8594,493.5156 Q885.8594,494.125 885.625,494.3906 Q885.3906,494.6563 885.0156,494.6563 Q884.6719,494.6563 884.4688,494.4531 Q884.2656,494.2656 884.1563,493.75 Q884.1094,493.3906 883.9219,493.2031 Q883.5938,492.8281 882.9844,492.6094 Q882.375,492.3906 881.75,492.3906 Q880.9844,492.3906 880.3516,492.7188 Q879.7188,493.0469 879.2266,493.7969 Q878.7344,494.5469 878.7344,495.5781 L878.7344,496.6719 Q878.7344,497.9063 879.625,498.7266 Q880.5156,499.5469 882.1094,499.5469 Q883.0469,499.5469 883.7031,499.2969 Q884.0938,499.1406 884.5156,498.7031 Q884.7813,498.4375 884.9297,498.3594 Q885.0781,498.2813 885.2813,498.2813 Q885.6094,498.2813 885.8672,498.5391 Q886.125,498.7969 886.125,499.1406 Q886.125,499.4844 885.7813,499.8906 Q885.2813,500.4688 884.4844,500.7969 Q883.4063,501.25 882.1094,501.25 Q880.5938,501.25 879.3906,500.625 Q878.4063,500.125 877.7188,499.0547 Q877.0313,497.9844 877.0313,496.7031 L877.0313,495.5469 Q877.0313,494.2188 877.6484,493.0703 Q878.2656,491.9219 879.3594,491.3047 Q880.4531,490.6875 881.6875,490.6875 Q882.4219,490.6875 883.0703,490.8516 Q883.7188,491.0156 884.2656,491.375 Z " fill="#000000"/><text fill="#000000" font-family="sans-serif" font-size="14" lengthAdjust="spacing" textLength="39" x="895.5" y="501.2285">Maszk</text><line style="stroke:#181818;stroke-width:0.5;" x1="867.5" x2="936.5" y1="511.5" y2="511.5"/><line style="stroke:#181818;stroke-width:0.5;" x1="867.5" x2="936.5" y1="519.5" y2="519.5"/></g><!--MD5=[69945ecdee9c755baec644acdb661b61]
class Rongy--><g id="elem_Rongy"><rect codeLine="50" fill="#F1F1F1" height="48" id="Rongy" rx="2.5" ry="2.5" style="stroke:#181818;stroke-width:0.5;" width="73" x="618.5" y="479.5"/><ellipse cx="633.5" cy="495.5" fill="#ADD1B2" rx="11" ry="11" style="stroke:#181818;stroke-width:1.0;"/><path d="M636.2656,491.375 Q636.4219,491.1563 636.6094,491.0469 Q636.7969,490.9375 637.0156,490.9375 Q637.3906,490.9375 637.625,491.1953 Q637.8594,491.4531 637.8594,492.0625 L637.8594,493.5156 Q637.8594,494.125 637.625,494.3906 Q637.3906,494.6563 637.0156,494.6563 Q636.6719,494.6563 636.4688,494.4531 Q636.2656,494.2656 636.1563,493.75 Q636.1094,493.3906 635.9219,493.2031 Q635.5938,492.8281 634.9844,492.6094 Q634.375,492.3906 633.75,492.3906 Q632.9844,492.3906 632.3516,492.7188 Q631.7188,493.0469 631.2266,493.7969 Q630.7344,494.5469 630.7344,495.5781 L630.7344,496.6719 Q630.7344,497.9063 631.625,498.7266 Q632.5156,499.5469 634.1094,499.5469 Q635.0469,499.5469 635.7031,499.2969 Q636.0938,499.1406 636.5156,498.7031 Q636.7813,498.4375 636.9297,498.3594 Q637.0781,498.2813 637.2813,498.2813 Q637.6094,498.2813 637.8672,498.5391 Q638.125,498.7969 638.125,499.1406 Q638.125,499.4844 637.7813,499.8906 Q637.2813,500.4688 636.4844,500.7969 Q635.4063,501.25 634.1094,501.25 Q632.5938,501.25 631.3906,500.625 Q630.4063,500.125 629.7188,499.0547 Q629.0313,497.9844 629.0313,496.7031 L629.0313,495.5469 Q629.0313,494.2188 629.6484,493.0703 Q630.2656,491.9219 631.3594,491.3047 Q632.4531,490.6875 633.6875,490.6875 Q634.4219,490.6875 635.0703,490.8516 Q635.7188,491.0156 636.2656,491.375 Z " fill="#000000"/><text fill="#000000" font-family="sans-serif" font-size="14" lengthAdjust="spacing" textLength="41" x="647.5" y="501.2285">Rongy</text><line style="stroke:#181818;stroke-width:0.5;" x1="619.5" x2="690.5" y1="511.5" y2="511.5"/><line style="stroke:#181818;stroke-width:0.5;" x1="619.5" x2="690.5" y1="519.5" y2="519.5"/></g><!--MD5=[56219564f5c3db48e64de06b2634ce6a]
class Logarléc--><g id="elem_Logarléc"><rect codeLine="51" fill="#F1F1F1" height="48" id="Logarléc" rx="2.5" ry="2.5" style="stroke:#181818;stroke-width:0.5;" width="87" x="972.5" y="479.5"/><ellipse cx="987.5" cy="495.5" fill="#ADD1B2" rx="11" ry="11" style="stroke:#181818;stroke-width:1.0;"/><path d="M990.2656,491.375 Q990.4219,491.1563 990.6094,491.0469 Q990.7969,490.9375 991.0156,490.9375 Q991.3906,490.9375 991.625,491.1953 Q991.8594,491.4531 991.8594,492.0625 L991.8594,493.5156 Q991.8594,494.125 991.625,494.3906 Q991.3906,494.6563 991.0156,494.6563 Q990.6719,494.6563 990.4688,494.4531 Q990.2656,494.2656 990.1563,493.75 Q990.1094,493.3906 989.9219,493.2031 Q989.5938,492.8281 988.9844,492.6094 Q988.375,492.3906 987.75,492.3906 Q986.9844,492.3906 986.3516,492.7188 Q985.7188,493.0469 985.2266,493.7969 Q984.7344,494.5469 984.7344,495.5781 L984.7344,496.6719 Q984.7344,497.9063 985.625,498.7266 Q986.5156,499.5469 988.1094,499.5469 Q989.0469,499.5469 989.7031,499.2969 Q990.0938,499.1406 990.5156,498.7031 Q990.7813,498.4375 990.9297,498.3594 Q991.0781,498.2813 991.2813,498.2813 Q991.6094,498.2813 991.8672,498.5391 Q992.125,498.7969 992.125,499.1406 Q992.125,499.4844 991.7813,499.8906 Q991.2813,500.4688 990.4844,500.7969 Q989.4063,501.25 988.1094,501.25 Q986.5938,501.25 985.3906,500.625 Q984.4063,500.125 983.7188,499.0547 Q983.0313,497.9844 983.0313,496.7031 L983.0313,495.5469 Q983.0313,494.2188 983.6484,493.0703 Q984.2656,491.9219 985.3594,491.3047 Q986.4531,490.6875 987.6875,490.6875 Q988.4219,490.6875 989.0703,490.8516 Q989.7188,491.0156 990.2656,491.375 Z " fill="#000000"/><text fill="#000000" font-family="sans-serif" font-size="14" lengthAdjust="spacing" textLength="55" x="1001.5" y="501.2285">Logarléc</text><line style="stroke:#181818;stroke-width:0.5;" x1="973.5" x2="1058.5" y1="511.5" y2="511.5"/><line style="stroke:#181818;stroke-width:0.5;" x1="973.5" x2="1058.5" y1="519.5" y2="519.5"/></g><!--MD5=[66fe83bc55a41c138f763c5a60182d32]
reverse link ITargyHolder to Szoba--><g id="link_ITargyHolder_Szoba"><path d="M1210.33,127.74 C1207.29,137.38 1203.84,147.04 1200,156 C1195.77,165.88 1190.87,175.92 1185.64,185.8 " fill="none" id="ITargyHolder-backto-Szoba" style="stroke:#181818;stroke-width:1.0;stroke-dasharray:7.0,7.0;"/><polygon fill="none" points="1203.69,125.49,1216,108.24,1217.14,129.4,1203.69,125.49" style="stroke:#181818;stroke-width:1.0;"/></g><!--MD5=[2588dd1269a5efa333ffe0da284e9e7e]
reverse link Szoba to Jatekos--><g id="link_Szoba_Jatekos"><path codeLine="17" d="M1238.37,384.12 C1268.49,411.63 1299.32,439.78 1323.36,461.73 " fill="none" id="Szoba-backto-Jatekos" style="stroke:#181818;stroke-width:1.0;"/><polygon fill="none" points="1228.63,375.22,1230.3614,382.2202,1237.489,383.3144,1235.7576,376.3142,1228.63,375.22" style="stroke:#181818;stroke-width:1.0;"/><polygon fill="none" points="1281,409.6758,1285,413.6758,1281,417.6758,1277,413.6758" style="stroke:#B38D22;stroke-width:1.0;"/><text fill="#000000" font-family="sans-serif" font-size="13" lengthAdjust="spacing" textLength="56" x="1288" y="419.4951">jatekosok</text><text fill="#000000" font-family="sans-serif" font-size="13" lengthAdjust="spacing" textLength="7" x="1228.9099" y="396.2761">1</text><text fill="#000000" font-family="sans-serif" font-size="13" lengthAdjust="spacing" textLength="20" x="1294.3103" y="450.993">0..*</text></g><!--MD5=[6ded267cbc0b822a1c2fbc579007861b]
reverse link Szoba to Szoba--><g id="link_Szoba_Szoba"><path codeLine="18" d="M1272.09,260.76 C1285.53,264.85 1294,271.43 1294,280.5 C1294,292.23 1279.85,299.79 1259.09,303.18 " fill="none" id="Szoba-backto-Szoba" style="stroke:#181818;stroke-width:1.0;"/><polygon fill="#181818" points="1259.09,257.82,1264.0589,263.0459,1270.7939,260.4692,1265.825,255.2433,1259.09,257.82" style="stroke:#181818;stroke-width:1.0;"/><polygon fill="none" points="1305,276.1758,1309,280.1758,1305,284.1758,1301,280.1758" style="stroke:#B38D22;stroke-width:1.0;"/><text fill="#000000" font-family="sans-serif" font-size="13" lengthAdjust="spacing" textLength="74" x="1312" y="285.9951">szomszedok</text><text fill="#000000" font-family="sans-serif" font-size="13" lengthAdjust="spacing" textLength="7" x="1266.9866" y="253.5552">1</text><text fill="#000000" font-family="sans-serif" font-size="13" lengthAdjust="spacing" textLength="20" x="1266.9152" y="301.491">0..*</text></g><!--MD5=[887cf76baf8879d8582e4fd493f69452]
reverse link ITargyHolder to Targy--><g id="link_ITargyHolder_Targy"><path codeLine="19" d="M1161.05,115.98 C1141.46,130.76 1119.26,145.46 1097,156 C1046.54,179.9 1028.44,169.8 975,186 C914.82,204.25 848.1,228.54 797.6,247.78 " fill="none" id="ITargyHolder-backto-Targy" style="stroke:#181818;stroke-width:1.0;"/><polygon fill="#181818" points="1171.34,108.02,1164.1468,108.5275,1161.8486,115.3626,1169.0419,114.8551,1171.34,108.02" style="stroke:#181818;stroke-width:1.0;"/><polygon fill="none" points="1134,142.6758,1138,146.6758,1134,150.6758,1130,146.6758" style="stroke:#B38D22;stroke-width:1.0;"/><text fill="#000000" font-family="sans-serif" font-size="13" lengthAdjust="spacing" textLength="43" x="1141" y="152.4951">targyak</text><text fill="#000000" font-family="sans-serif" font-size="13" lengthAdjust="spacing" textLength="7" x="1156.3904" y="129.4139">1</text><text fill="#000000" font-family="sans-serif" font-size="13" lengthAdjust="spacing" textLength="20" x="805.3859" y="241.7814">0..*</text></g><!--MD5=[bb91a0853eaef3c313b821960f4dc8b6]
reverse link Szoba to ESzobaAllapot--><g id="link_Szoba_ESzobaAllapot"><path codeLine="20" d="M1140.47,388.13 C1143.55,410.78 1146.65,433.65 1149.27,452.92 " fill="none" id="Szoba-backto-ESzobaAllapot" style="stroke:#181818;stroke-width:1.0;"/><polygon fill="#181818" points="1138.72,375.22,1135.5674,381.7054,1140.3414,387.11,1143.494,380.6245,1138.72,375.22" style="stroke:#181818;stroke-width:1.0;"/><polygon fill="none" points="1150,409.6758,1154,413.6758,1150,417.6758,1146,413.6758" style="stroke:#B38D22;stroke-width:1.0;"/><text fill="#000000" font-family="sans-serif" font-size="13" lengthAdjust="spacing" textLength="38" x="1157" y="419.4951">allapot</text></g><!--MD5=[3ccc8c472336a60597ef594b387eecf8]
reverse link Labirintus to Szoba--><g id="link_Labirintus_Szoba"><path codeLine="21" d="M1027.39,94.83 C1027.69,113.61 1029.85,136.6 1037,156 C1040.7,166.04 1045.46,176 1050.85,185.64 " fill="none" id="Labirintus-backto-Szoba" style="stroke:#181818;stroke-width:1.0;"/><polygon fill="#181818" points="1027.47,81.71,1023.4371,87.6879,1027.4041,93.7098,1031.437,87.7319,1027.47,81.71" style="stroke:#181818;stroke-width:1.0;"/><polygon fill="none" points="1043,142.6758,1047,146.6758,1043,150.6758,1039,146.6758" style="stroke:#B38D22;stroke-width:1.0;"/><text fill="#000000" font-family="sans-serif" font-size="13" lengthAdjust="spacing" textLength="42" x="1050" y="152.4951">szobak</text><text fill="#000000" font-family="sans-serif" font-size="13" lengthAdjust="spacing" textLength="7" x="1019.2439" y="103.0992">1</text><text fill="#000000" font-family="sans-serif" font-size="13" lengthAdjust="spacing" textLength="20" x="1024.3307" y="175.2781">0..*</text></g><!--MD5=[45b3a2b133f124442d18ced551075884]
reverse link ITargyHolder to Jatekos--><g id="link_ITargyHolder_Jatekos"><path d="M1337.27,120.25 C1359.73,138.34 1380.33,160.3 1393,186 C1437.53,276.35 1405.74,399 1383.91,461.78 " fill="none" id="ITargyHolder-backto-Jatekos" style="stroke:#181818;stroke-width:1.0;stroke-dasharray:7.0,7.0;"/><polygon fill="none" points="1332.85,125.68,1321.09,108.06,1341.28,114.5,1332.85,125.68" style="stroke:#181818;stroke-width:1.0;"/></g><!--MD5=[1c0e9cf77b552d076237bf469e4256ff]
reverse link Jatekos to Oktato--><g id="link_Jatekos_Oktato"><path d="M1342.73,563.68 C1334.98,581.83 1326.92,600.72 1320.85,614.92 " fill="none" id="Jatekos-backto-Oktato" style="stroke:#181818;stroke-width:1.0;stroke-dasharray:7.0,7.0;"/><polygon fill="none" points="1336.3,560.92,1350.59,545.28,1349.17,566.42,1336.3,560.92" style="stroke:#181818;stroke-width:1.0;"/></g><!--MD5=[8e0d31a0bf846ea8b47bed209678b42c]
reverse link Jatekos to Hallgato--><g id="link_Jatekos_Hallgato"><path d="M1393.27,563.68 C1401.02,581.83 1409.08,600.72 1415.15,614.92 " fill="none" id="Jatekos-backto-Hallgato" style="stroke:#181818;stroke-width:1.0;stroke-dasharray:7.0,7.0;"/><polygon fill="none" points="1386.83,566.42,1385.41,545.28,1399.7,560.92,1386.83,566.42" style="stroke:#181818;stroke-width:1.0;"/></g><!--MD5=[ecded3343ff33b6c2fdab01d183ef2cb]
reverse link Targy to Tranzisztor--><g id="link_Targy_Tranzisztor"><path d="M616.91,308.71 C508.72,339.28 332.04,392.6 185,453 C172.39,458.18 159.18,464.33 146.69,470.5 " fill="none" id="Targy-backto-Tranzisztor" style="stroke:#181818;stroke-width:1.0;stroke-dasharray:7.0,7.0;"/><polygon fill="none" points="615.14,301.93,636.29,303.27,618.93,315.41,615.14,301.93" style="stroke:#181818;stroke-width:1.0;"/></g><!--MD5=[2c3405217a3c89999a1e36c6b1b4c177]
reverse link Targy to TVSZ--><g id="link_Targy_TVSZ"><path d="M617.76,327.74 C546.38,361.45 448.1,408.76 363,453 C352.49,458.46 341.38,464.46 330.72,470.33 " fill="none" id="Targy-backto-TVSZ" style="stroke:#181818;stroke-width:1.0;stroke-dasharray:7.0,7.0;"/><polygon fill="none" points="615.14,321.24,636.22,319.04,621.11,333.9,615.14,321.24" style="stroke:#181818;stroke-width:1.0;"/></g><!--MD5=[c169cb8ba75d0a2552c95d24dd0483af]
reverse link Targy to SorosPohar--><g id="link_Targy_SorosPohar"><path d="M659.33,335.74 C614.39,378 553.54,435.23 516.07,470.46 " fill="none" id="Targy-backto-SorosPohar" style="stroke:#181818;stroke-width:1.0;stroke-dasharray:7.0,7.0;"/><polygon fill="none" points="654.53,330.64,673.9,322.03,664.12,340.84,654.53,330.64" style="stroke:#181818;stroke-width:1.0;"/></g><!--MD5=[cd8aac8264e46304ce9da667cd676d2c]
reverse link Targy to Camambert--><g id="link_Targy_Camambert"><path d="M733.82,341.47 C746.6,387 763.47,447.13 772.55,479.5 " fill="none" id="Targy-backto-Camambert" style="stroke:#181818;stroke-width:1.0;stroke-dasharray:7.0,7.0;"/><polygon fill="none" points="727.03,343.18,728.37,322.03,740.51,339.4,727.03,343.18" style="stroke:#181818;stroke-width:1.0;"/></g><!--MD5=[f23e7d7a9414366da1185a37cda86918]
reverse link Targy to Maszk--><g id="link_Targy_Maszk"><path d="M763.89,337.51 C802.35,383.46 854.85,446.18 882.74,479.5 " fill="none" id="Targy-backto-Maszk" style="stroke:#181818;stroke-width:1.0;stroke-dasharray:7.0,7.0;"/><polygon fill="none" points="758.4,341.86,750.93,322.03,769.14,332.88,758.4,341.86" style="stroke:#181818;stroke-width:1.0;"/></g><!--MD5=[4e738cbcb59a51b71688be5eaa09c3b8]
reverse link Targy to Rongy--><g id="link_Targy_Rongy"><path d="M700.18,341.47 C687.4,387 670.53,447.13 661.45,479.5 " fill="none" id="Targy-backto-Rongy" style="stroke:#181818;stroke-width:1.0;stroke-dasharray:7.0,7.0;"/><polygon fill="none" points="693.49,339.4,705.63,322.03,706.97,343.18,693.49,339.4" style="stroke:#181818;stroke-width:1.0;"/></g><!--MD5=[caeed76a5f23ec7f0e774e5212dffb98]
reverse link Targy to Logarléc--><g id="link_Targy_Logarléc"><path d="M791.78,333.73 C839.07,367.16 901.2,411.84 955,453 C966.05,461.45 977.98,471.03 988.33,479.49 " fill="none" id="Targy-backto-Logarléc" style="stroke:#181818;stroke-width:1.0;stroke-dasharray:7.0,7.0;"/><polygon fill="none" points="787.7,339.42,775.39,322.17,795.77,327.98,787.7,339.42" style="stroke:#181818;stroke-width:1.0;"/></g><!--MD5=[d11e8bd00d22fba5c415c8f941d52c06]
@startuml UML

class Labirintus {}

class Szoba implements ITargyHolder{
    - maxJatekos: int

    +getSzomszedok(): Szoba[]
    +addJatekos(jatekos: Jatekos): void
    +removeJatekos(jatekos: Jatekos): void
    +addSzomszed(szoba: Szoba): void
    +removeSzomszed(szoba: Szoba): void
    +egyesul(szoba: Szoba): void
    +szetszed(): Szoba

}

Szoba "1" o- - "0..*" Jatekos: # jatekosok
Szoba "1" *- - "0..*" Szoba: # szomszedok
ITargyHolder "1" *- - "0..*" Targy: # targyak
Szoba *- - ESzobaAllapot: # allapot
Labirintus "1" *- - "0..*" Szoba: # szobak

abstract class Targy {
  + hasznalhato: boolean
  + hasznal(): void
}

abstract class Jatekos implements ITargyHolder{
  + szoba: Szoba
  + sebez(): void

}


class Oktato implements Jatekos{}
class Hallgato implements Jatekos{
}

class Tranzisztor implements Targy{
  + pár: Tranzisztor || null
}
class TVSZ implements Targy{
  + hasznalhatoDb: int
}
class SorosPohar implements Targy{
  + hasznalhatoTime: DateTime
}
class Camambert implements Targy{}
class Maszk implements Targy{}
class Rongy implements Targy{}
class Logarléc implements Targy{}

interface ITargyHolder {
    # maxTargy: int
    # addTargy(tárgy: Targy): void
    # removeTargy(tárgy: Targy): void
}

enum ESzobaAllapot {
  OPENED
  CLOSED
  GAZOS
}

' interface IActor{
'   +accept(TargyVisitor): void
'   +mozog(Szoba): Szoba
' }
' interface TargyVisitor
' interface SzobaEventListener{
'   +update(eventType): void
' }

' abstract class Actor implements IActor, SzobaEventListener {
'   #jelenSzoba: Szoba
'   +felvesz(Targy): void
'   +lerak(Targy):void
' }
' class Hallgato implements Actor {
'   +hasznal(Targy): void
' }
' class Oktato implements Actor {
' }

' Actor "1" - -* "0..*" Szoba
' IActor - TargyVisitor


@enduml

@startuml UML

class Labirintus {}

class Szoba implements ITargyHolder{
    - maxJatekos: int

    +getSzomszedok(): Szoba[]
    +addJatekos(jatekos: Jatekos): void
    +removeJatekos(jatekos: Jatekos): void
    +addSzomszed(szoba: Szoba): void
    +removeSzomszed(szoba: Szoba): void
    +egyesul(szoba: Szoba): void
    +szetszed(): Szoba

}

Szoba "1" o- - "0..*" Jatekos: # jatekosok
Szoba "1" *- - "0..*" Szoba: # szomszedok
ITargyHolder "1" *- - "0..*" Targy: # targyak
Szoba *- - ESzobaAllapot: # allapot
Labirintus "1" *- - "0..*" Szoba: # szobak

abstract class Targy {
  + hasznalhato: boolean
  + hasznal(): void
}

abstract class Jatekos implements ITargyHolder{
  + szoba: Szoba
  + sebez(): void

}


class Oktato implements Jatekos{}
class Hallgato implements Jatekos{
}

class Tranzisztor implements Targy{
  + pár: Tranzisztor || null
}
class TVSZ implements Targy{
  + hasznalhatoDb: int
}
class SorosPohar implements Targy{
  + hasznalhatoTime: DateTime
}
class Camambert implements Targy{}
class Maszk implements Targy{}
class Rongy implements Targy{}
class Logarléc implements Targy{}

interface ITargyHolder {
    # maxTargy: int
    # addTargy(tárgy: Targy): void
    # removeTargy(tárgy: Targy): void
}

enum ESzobaAllapot {
  OPENED
  CLOSED
  GAZOS
}





@enduml

PlantUML version 1.2022.7(Mon Aug 22 18:01:30 GMT+01:00 2022)
(GPL source distribution)
Java Runtime: Java(TM) SE Runtime Environment
JVM: Java HotSpot(TM) 64-Bit Server VM
Default Encoding: Cp1252
Language: en
Country: US
--></g></svg>