<?xml version="1.0" encoding="UTF-8" standalone="no"?><svg xmlns="http://www.w3.org/2000/svg" xmlns:xlink="http://www.w3.org/1999/xlink" contentStyleType="text/css" height="1169px" preserveAspectRatio="none" style="width:1778px;height:1169px;background:#FFFFFF;" version="1.1" viewBox="0 0 1778 1169" width="1778px" zoomAndPan="magnify"><defs/><g><!--MD5=[45b09e5170b201a2e016098afb7144b0]
class Labirinth--><g id="elem_Labirinth"><rect codeLine="2" fill="#F1F1F1" height="48" id="Labirinth" rx="2.5" ry="2.5" style="stroke:#181818;stroke-width:0.5;" width="87" x="652.5" y="33.5"/><ellipse cx="667.5" cy="49.5" fill="#ADD1B2" rx="11" ry="11" style="stroke:#181818;stroke-width:1.0;"/><path d="M670.2656,45.375 Q670.4219,45.1563 670.6094,45.0469 Q670.7969,44.9375 671.0156,44.9375 Q671.3906,44.9375 671.625,45.1953 Q671.8594,45.4531 671.8594,46.0625 L671.8594,47.5156 Q671.8594,48.125 671.625,48.3906 Q671.3906,48.6563 671.0156,48.6563 Q670.6719,48.6563 670.4688,48.4531 Q670.2656,48.2656 670.1563,47.75 Q670.1094,47.3906 669.9219,47.2031 Q669.5938,46.8281 668.9844,46.6094 Q668.375,46.3906 667.75,46.3906 Q666.9844,46.3906 666.3516,46.7188 Q665.7188,47.0469 665.2266,47.7969 Q664.7344,48.5469 664.7344,49.5781 L664.7344,50.6719 Q664.7344,51.9063 665.625,52.7266 Q666.5156,53.5469 668.1094,53.5469 Q669.0469,53.5469 669.7031,53.2969 Q670.0938,53.1406 670.5156,52.7031 Q670.7813,52.4375 670.9297,52.3594 Q671.0781,52.2813 671.2813,52.2813 Q671.6094,52.2813 671.8672,52.5391 Q672.125,52.7969 672.125,53.1406 Q672.125,53.4844 671.7813,53.8906 Q671.2813,54.4688 670.4844,54.7969 Q669.4063,55.25 668.1094,55.25 Q666.5938,55.25 665.3906,54.625 Q664.4063,54.125 663.7188,53.0547 Q663.0313,51.9844 663.0313,50.7031 L663.0313,49.5469 Q663.0313,48.2188 663.6484,47.0703 Q664.2656,45.9219 665.3594,45.3047 Q666.4531,44.6875 667.6875,44.6875 Q668.4219,44.6875 669.0703,44.8516 Q669.7188,45.0156 670.2656,45.375 Z " fill="#000000"/><text fill="#000000" font-family="sans-serif" font-size="14" lengthAdjust="spacing" textLength="55" x="681.5" y="55.2285">Labirinth</text><line style="stroke:#181818;stroke-width:0.5;" x1="653.5" x2="738.5" y1="65.5" y2="65.5"/><line style="stroke:#181818;stroke-width:0.5;" x1="653.5" x2="738.5" y1="73.5" y2="73.5"/></g><!--MD5=[d218c48b946d362ff1ecd879cabebcad]
class Room--><g id="elem_Room"><rect codeLine="6" fill="#F1F1F1" height="294.5313" id="Room" rx="2.5" ry="2.5" style="stroke:#181818;stroke-width:0.5;" width="279" x="822.5" y="186"/><ellipse cx="939.25" cy="202" fill="#ADD1B2" rx="11" ry="11" style="stroke:#181818;stroke-width:1.0;"/><path d="M942.0156,197.875 Q942.1719,197.6563 942.3594,197.5469 Q942.5469,197.4375 942.7656,197.4375 Q943.1406,197.4375 943.375,197.6953 Q943.6094,197.9531 943.6094,198.5625 L943.6094,200.0156 Q943.6094,200.625 943.375,200.8906 Q943.1406,201.1563 942.7656,201.1563 Q942.4219,201.1563 942.2188,200.9531 Q942.0156,200.7656 941.9063,200.25 Q941.8594,199.8906 941.6719,199.7031 Q941.3438,199.3281 940.7344,199.1094 Q940.125,198.8906 939.5,198.8906 Q938.7344,198.8906 938.1016,199.2188 Q937.4688,199.5469 936.9766,200.2969 Q936.4844,201.0469 936.4844,202.0781 L936.4844,203.1719 Q936.4844,204.4063 937.375,205.2266 Q938.2656,206.0469 939.8594,206.0469 Q940.7969,206.0469 941.4531,205.7969 Q941.8438,205.6406 942.2656,205.2031 Q942.5313,204.9375 942.6797,204.8594 Q942.8281,204.7813 943.0313,204.7813 Q943.3594,204.7813 943.6172,205.0391 Q943.875,205.2969 943.875,205.6406 Q943.875,205.9844 943.5313,206.3906 Q943.0313,206.9688 942.2344,207.2969 Q941.1563,207.75 939.8594,207.75 Q938.3438,207.75 937.1406,207.125 Q936.1563,206.625 935.4688,205.5547 Q934.7813,204.4844 934.7813,203.2031 L934.7813,202.0469 Q934.7813,200.7188 935.3984,199.5703 Q936.0156,198.4219 937.1094,197.8047 Q938.2031,197.1875 939.4375,197.1875 Q940.1719,197.1875 940.8203,197.3516 Q941.4688,197.5156 942.0156,197.875 Z " fill="#000000"/><text fill="#000000" font-family="sans-serif" font-size="14" lengthAdjust="spacing" textLength="37" x="959.75" y="207.7285">Room</text><line style="stroke:#181818;stroke-width:0.5;" x1="823.5" x2="1100.5" y1="218" y2="218"/><ellipse cx="833.5" cy="232.3047" fill="none" rx="3" ry="3" style="stroke:#038048;stroke-width:1.0;"/><text fill="#000000" font-family="sans-serif" font-size="14" lengthAdjust="spacing" textLength="88" x="842.5" y="236.5332">maxPlayer: int</text><line style="stroke:#181818;stroke-width:0.5;" x1="823.5" x2="1100.5" y1="243.6094" y2="243.6094"/><ellipse cx="833.5" cy="257.9141" fill="#84BE84" rx="3" ry="3" style="stroke:#038048;stroke-width:1.0;"/><text fill="#000000" font-family="sans-serif" font-size="14" lengthAdjust="spacing" textLength="155" x="842.5" y="262.1426">getNeighbours(): Room[]</text><ellipse cx="833.5" cy="275.5234" fill="#84BE84" rx="3" ry="3" style="stroke:#038048;stroke-width:1.0;"/><text fill="#000000" font-family="sans-serif" font-size="14" lengthAdjust="spacing" textLength="221" x="842.5" y="279.752">addStudent(student: Student): void</text><ellipse cx="833.5" cy="293.1328" fill="#84BE84" rx="3" ry="3" style="stroke:#038048;stroke-width:1.0;"/><text fill="#000000" font-family="sans-serif" font-size="14" lengthAdjust="spacing" textLength="244" x="842.5" y="297.3613">removeStudent(student: Student): void</text><ellipse cx="833.5" cy="310.7422" fill="#84BE84" rx="3" ry="3" style="stroke:#038048;stroke-width:1.0;"/><text fill="#000000" font-family="sans-serif" font-size="14" lengthAdjust="spacing" textLength="230" x="842.5" y="314.9707">addTeacher(teacher: Teacher): void</text><ellipse cx="833.5" cy="328.3516" fill="#84BE84" rx="3" ry="3" style="stroke:#038048;stroke-width:1.0;"/><text fill="#000000" font-family="sans-serif" font-size="14" lengthAdjust="spacing" textLength="253" x="842.5" y="332.5801">removeTeacher(teacher: Teacher): void</text><ellipse cx="833.5" cy="345.9609" fill="#84BE84" rx="3" ry="3" style="stroke:#038048;stroke-width:1.0;"/><text fill="#000000" font-family="sans-serif" font-size="14" lengthAdjust="spacing" textLength="210" x="842.5" y="350.1895">addNeighbour(room: Room): void</text><ellipse cx="833.5" cy="363.5703" fill="#84BE84" rx="3" ry="3" style="stroke:#038048;stroke-width:1.0;"/><text fill="#000000" font-family="sans-serif" font-size="14" lengthAdjust="spacing" textLength="233" x="842.5" y="367.7988">removeNeighbour(room: Room): void</text><ellipse cx="833.5" cy="381.1797" fill="#84BE84" rx="3" ry="3" style="stroke:#038048;stroke-width:1.0;"/><text fill="#000000" font-family="sans-serif" font-size="14" lengthAdjust="spacing" textLength="161" x="842.5" y="385.4082">merge(room: Room): void</text><ellipse cx="833.5" cy="398.7891" fill="#84BE84" rx="3" ry="3" style="stroke:#038048;stroke-width:1.0;"/><text fill="#000000" font-family="sans-serif" font-size="14" lengthAdjust="spacing" textLength="80" x="842.5" y="403.0176">split(): Room</text><ellipse cx="833.5" cy="416.3984" fill="#84BE84" rx="3" ry="3" style="stroke:#038048;stroke-width:1.0;"/><text fill="#000000" font-family="sans-serif" font-size="14" lengthAdjust="spacing" textLength="102" x="842.5" y="420.627">isFull(): boolean</text><text fill="#000000" font-family="sans-serif" font-size="14" lengthAdjust="spacing" textLength="4" x="842.5" y="438.2363"> </text><ellipse cx="833.5" cy="451.6172" fill="#84BE84" rx="3" ry="3" style="stroke:#038048;stroke-width:1.0;"/><text fill="#000000" font-family="sans-serif" font-size="14" lengthAdjust="spacing" textLength="134" x="842.5" y="455.8457">notifyStudents(): void</text><ellipse cx="833.5" cy="469.2266" fill="#84BE84" rx="3" ry="3" style="stroke:#038048;stroke-width:1.0;"/><text fill="#000000" font-family="sans-serif" font-size="14" lengthAdjust="spacing" textLength="138" x="842.5" y="473.4551">notifyTeachers(): void</text></g><!--MD5=[fa1ef67668cfde76bbd6c36ac5cb3dd1]
class IItemHolder--><g id="elem_IItemHolder"><rect codeLine="111" fill="#F1F1F1" height="100.8281" id="IItemHolder" rx="2.5" ry="2.5" style="stroke:#181818;stroke-width:0.5;" width="203" x="860.5" y="7"/><ellipse cx="921.25" cy="23" fill="#B4A7E5" rx="11" ry="11" style="stroke:#181818;stroke-width:1.0;"/><path d="M922.2031,19.6406 L922.2031,26.2969 L923.9219,26.2969 Q924.5313,26.2969 924.7969,26.5313 Q925.0625,26.7656 925.0625,27.1563 Q925.0625,27.5313 924.7969,27.7656 Q924.5313,28 923.9219,28 L918.7813,28 Q918.1719,28 917.9063,27.7656 Q917.6406,27.5313 917.6406,27.1406 Q917.6406,26.7656 917.9063,26.5313 Q918.1719,26.2969 918.7813,26.2969 L920.5,26.2969 L920.5,19.6406 L918.7813,19.6406 Q918.1719,19.6406 917.9063,19.4063 Q917.6406,19.1719 917.6406,18.7813 Q917.6406,18.4063 917.9063,18.1719 Q918.1719,17.9375 918.7813,17.9375 L923.9219,17.9375 Q924.5313,17.9375 924.7969,18.1719 Q925.0625,18.4063 925.0625,18.7813 Q925.0625,19.1719 924.7969,19.4063 Q924.5313,19.6406 923.9219,19.6406 L922.2031,19.6406 Z " fill="#000000"/><text fill="#000000" font-family="sans-serif" font-size="14" font-style="italic" lengthAdjust="spacing" textLength="73" x="941.75" y="28.7285">IItemHolder</text><line style="stroke:#181818;stroke-width:0.5;" x1="861.5" x2="1062.5" y1="39" y2="39"/><ellipse cx="871.5" cy="53.3047" fill="none" rx="3" ry="3" style="stroke:#038048;stroke-width:1.0;"/><text fill="#000000" font-family="sans-serif" font-size="14" lengthAdjust="spacing" textLength="74" x="880.5" y="57.5332">maxItem: int</text><line style="stroke:#181818;stroke-width:0.5;" x1="861.5" x2="1062.5" y1="64.6094" y2="64.6094"/><ellipse cx="871.5" cy="78.9141" fill="#84BE84" rx="3" ry="3" style="stroke:#038048;stroke-width:1.0;"/><text fill="#000000" font-family="sans-serif" font-size="14" lengthAdjust="spacing" textLength="161" x="880.5" y="83.1426">addItemy(item: Item): void</text><ellipse cx="871.5" cy="96.5234" fill="#84BE84" rx="3" ry="3" style="stroke:#038048;stroke-width:1.0;"/><text fill="#000000" font-family="sans-serif" font-size="14" lengthAdjust="spacing" textLength="177" x="880.5" y="100.752">removeItem(item: Item): void</text></g><!--MD5=[d6181cb537bdc20c0a3007a98a56832d]
class Student--><g id="elem_Student"><rect codeLine="107" fill="#F1F1F1" height="48" id="Student" rx="2.5" ry="2.5" style="stroke:#181818;stroke-width:0.5;" width="81" x="1102.5" y="585.5"/><ellipse cx="1117.5" cy="601.5" fill="#ADD1B2" rx="11" ry="11" style="stroke:#181818;stroke-width:1.0;"/><path d="M1120.2656,597.375 Q1120.4219,597.1563 1120.6094,597.0469 Q1120.7969,596.9375 1121.0156,596.9375 Q1121.3906,596.9375 1121.625,597.1953 Q1121.8594,597.4531 1121.8594,598.0625 L1121.8594,599.5156 Q1121.8594,600.125 1121.625,600.3906 Q1121.3906,600.6563 1121.0156,600.6563 Q1120.6719,600.6563 1120.4688,600.4531 Q1120.2656,600.2656 1120.1563,599.75 Q1120.1094,599.3906 1119.9219,599.2031 Q1119.5938,598.8281 1118.9844,598.6094 Q1118.375,598.3906 1117.75,598.3906 Q1116.9844,598.3906 1116.3516,598.7188 Q1115.7188,599.0469 1115.2266,599.7969 Q1114.7344,600.5469 1114.7344,601.5781 L1114.7344,602.6719 Q1114.7344,603.9063 1115.625,604.7266 Q1116.5156,605.5469 1118.1094,605.5469 Q1119.0469,605.5469 1119.7031,605.2969 Q1120.0938,605.1406 1120.5156,604.7031 Q1120.7813,604.4375 1120.9297,604.3594 Q1121.0781,604.2813 1121.2813,604.2813 Q1121.6094,604.2813 1121.8672,604.5391 Q1122.125,604.7969 1122.125,605.1406 Q1122.125,605.4844 1121.7813,605.8906 Q1121.2813,606.4688 1120.4844,606.7969 Q1119.4063,607.25 1118.1094,607.25 Q1116.5938,607.25 1115.3906,606.625 Q1114.4063,606.125 1113.7188,605.0547 Q1113.0313,603.9844 1113.0313,602.7031 L1113.0313,601.5469 Q1113.0313,600.2188 1113.6484,599.0703 Q1114.2656,597.9219 1115.3594,597.3047 Q1116.4531,596.6875 1117.6875,596.6875 Q1118.4219,596.6875 1119.0703,596.8516 Q1119.7188,597.0156 1120.2656,597.375 Z " fill="#000000"/><text fill="#000000" font-family="sans-serif" font-size="14" lengthAdjust="spacing" textLength="49" x="1131.5" y="607.2285">Student</text><line style="stroke:#181818;stroke-width:0.5;" x1="1103.5" x2="1182.5" y1="617.5" y2="617.5"/><line style="stroke:#181818;stroke-width:0.5;" x1="1103.5" x2="1182.5" y1="625.5" y2="625.5"/></g><!--MD5=[61a83f88cb8b7d3a80bc8c481f3736bf]
class Teacher--><g id="elem_Teacher"><rect codeLine="106" fill="#F1F1F1" height="48" id="Teacher" rx="2.5" ry="2.5" style="stroke:#181818;stroke-width:0.5;" width="85" x="1267.5" y="585.5"/><ellipse cx="1282.5" cy="601.5" fill="#ADD1B2" rx="11" ry="11" style="stroke:#181818;stroke-width:1.0;"/><path d="M1285.2656,597.375 Q1285.4219,597.1563 1285.6094,597.0469 Q1285.7969,596.9375 1286.0156,596.9375 Q1286.3906,596.9375 1286.625,597.1953 Q1286.8594,597.4531 1286.8594,598.0625 L1286.8594,599.5156 Q1286.8594,600.125 1286.625,600.3906 Q1286.3906,600.6563 1286.0156,600.6563 Q1285.6719,600.6563 1285.4688,600.4531 Q1285.2656,600.2656 1285.1563,599.75 Q1285.1094,599.3906 1284.9219,599.2031 Q1284.5938,598.8281 1283.9844,598.6094 Q1283.375,598.3906 1282.75,598.3906 Q1281.9844,598.3906 1281.3516,598.7188 Q1280.7188,599.0469 1280.2266,599.7969 Q1279.7344,600.5469 1279.7344,601.5781 L1279.7344,602.6719 Q1279.7344,603.9063 1280.625,604.7266 Q1281.5156,605.5469 1283.1094,605.5469 Q1284.0469,605.5469 1284.7031,605.2969 Q1285.0938,605.1406 1285.5156,604.7031 Q1285.7813,604.4375 1285.9297,604.3594 Q1286.0781,604.2813 1286.2813,604.2813 Q1286.6094,604.2813 1286.8672,604.5391 Q1287.125,604.7969 1287.125,605.1406 Q1287.125,605.4844 1286.7813,605.8906 Q1286.2813,606.4688 1285.4844,606.7969 Q1284.4063,607.25 1283.1094,607.25 Q1281.5938,607.25 1280.3906,606.625 Q1279.4063,606.125 1278.7188,605.0547 Q1278.0313,603.9844 1278.0313,602.7031 L1278.0313,601.5469 Q1278.0313,600.2188 1278.6484,599.0703 Q1279.2656,597.9219 1280.3594,597.3047 Q1281.4531,596.6875 1282.6875,596.6875 Q1283.4219,596.6875 1284.0703,596.8516 Q1284.7188,597.0156 1285.2656,597.375 Z " fill="#000000"/><text fill="#000000" font-family="sans-serif" font-size="14" lengthAdjust="spacing" textLength="53" x="1296.5" y="607.2285">Teacher</text><line style="stroke:#181818;stroke-width:0.5;" x1="1268.5" x2="1351.5" y1="617.5" y2="617.5"/><line style="stroke:#181818;stroke-width:0.5;" x1="1268.5" x2="1351.5" y1="625.5" y2="625.5"/></g><!--MD5=[7fb7c12d2691bca2ed06b43fb7c0b3a8]
class Items--><g id="elem_Items"><rect codeLine="52" fill="#F1F1F1" height="83.2188" id="Items" rx="2.5" ry="2.5" style="stroke:#181818;stroke-width:0.5;" width="162" x="688" y="721"/><ellipse cx="747.75" cy="737" fill="#A9DCDF" rx="11" ry="11" style="stroke:#181818;stroke-width:1.0;"/><path d="M749.9375,738.7656 L745.7969,738.7656 L745.375,739.7969 L745.7969,739.7969 Q746.4063,739.7969 746.6719,740.0313 Q746.9375,740.2656 746.9375,740.6563 Q746.9375,741.0313 746.6719,741.2656 Q746.4063,741.5 745.7969,741.5 L743.5,741.5 Q742.8906,741.5 742.6328,741.2656 Q742.375,741.0313 742.375,740.6406 Q742.375,740.2656 742.6484,740.0234 Q742.9219,739.7813 743.5469,739.7969 L746.2188,733.1406 L745.1094,733.1406 Q744.5,733.1406 744.2344,732.9063 Q743.9688,732.6719 743.9688,732.2813 Q743.9688,731.9063 744.2344,731.6719 Q744.5,731.4375 745.1094,731.4375 L748.7813,731.4375 L752.1719,739.7969 Q752.7656,739.7969 752.9531,739.9375 Q753.3438,740.2031 753.3438,740.6563 Q753.3438,741.0313 753.0859,741.2656 Q752.8281,741.5 752.2188,741.5 L749.9219,741.5 Q749.3125,741.5 749.0469,741.2656 Q748.7813,741.0313 748.7813,740.6406 Q748.7813,740.2656 749.0469,740.0313 Q749.3125,739.7969 749.9219,739.7969 L750.3438,739.7969 L749.9375,738.7656 Z M749.2188,737.0625 L747.8594,733.6875 L746.4844,737.0625 L749.2188,737.0625 Z " fill="#000000"/><text fill="#000000" font-family="sans-serif" font-size="14" font-style="italic" lengthAdjust="spacing" textLength="34" x="768.25" y="742.7285">Items</text><line style="stroke:#181818;stroke-width:0.5;" x1="689" x2="849" y1="753" y2="753"/><line style="stroke:#181818;stroke-width:0.5;" x1="689" x2="849" y1="761" y2="761"/><ellipse cx="699" cy="775.3047" fill="#84BE84" rx="3" ry="3" style="stroke:#038048;stroke-width:1.0;"/><text fill="#000000" font-family="sans-serif" font-size="14" lengthAdjust="spacing" textLength="91" x="708" y="779.5332">accept(Visitor)</text><ellipse cx="699" cy="792.9141" fill="#84BE84" rx="3" ry="3" style="stroke:#038048;stroke-width:1.0;"/><text fill="#000000" font-family="sans-serif" font-size="14" lengthAdjust="spacing" textLength="136" x="708" y="797.1426">isAvaliable(): boolean</text></g><!--MD5=[a6e6126e6474d52d53165ad77c0fa12c]
class ERoomState--><g id="elem_ERoomState"><rect codeLine="117" fill="#F1F1F1" height="100.8281" id="ERoomState" rx="2.5" ry="2.5" style="stroke:#181818;stroke-width:0.5;" width="111" x="906.5" y="559"/><ellipse cx="921.5" cy="575" fill="#EB937F" rx="11" ry="11" style="stroke:#181818;stroke-width:1.0;"/><path d="M920.3594,575.7969 L920.3594,578.2969 L924.6875,578.2969 L924.6875,577.375 Q924.6875,576.7656 924.9297,576.5 Q925.1719,576.2344 925.5469,576.2344 Q925.9219,576.2344 926.1563,576.5 Q926.3906,576.7656 926.3906,577.375 L926.3906,580 L918.3906,580 Q917.7656,580 917.5078,579.7656 Q917.25,579.5313 917.25,579.1406 Q917.25,578.7656 917.5156,578.5313 Q917.7813,578.2969 918.3906,578.2969 L918.6563,578.2969 L918.6563,571.6406 L918.3906,571.6406 Q917.7656,571.6406 917.5078,571.4063 Q917.25,571.1719 917.25,570.7813 Q917.25,570.4063 917.5078,570.1719 Q917.7656,569.9375 918.3906,569.9375 L926.0156,569.9375 L926.0156,572.5313 Q926.0156,573.1406 925.7891,573.3984 Q925.5625,573.6563 925.1719,573.6563 Q924.7969,573.6563 924.5625,573.3984 Q924.3281,573.1406 924.3281,572.5313 L924.3281,571.6406 L920.3594,571.6406 L920.3594,574.0938 L921.8438,574.0938 Q921.8438,573.4375 921.9688,573.25 Q922.2344,572.8438 922.7031,572.8438 Q923.0781,572.8438 923.3125,573.1016 Q923.5469,573.3594 923.5469,573.9688 L923.5469,575.9375 Q923.5469,576.4844 923.4219,576.6719 Q923.1563,577.0625 922.7031,577.0625 Q922.2344,577.0625 921.9688,576.6563 Q921.8438,576.4688 921.8438,575.7969 L920.3594,575.7969 Z " fill="#000000"/><text fill="#000000" font-family="sans-serif" font-size="14" lengthAdjust="spacing" textLength="79" x="935.5" y="580.7285">ERoomState</text><line style="stroke:#181818;stroke-width:0.5;" x1="907.5" x2="1016.5" y1="591" y2="591"/><text fill="#000000" font-family="sans-serif" font-size="14" lengthAdjust="spacing" textLength="57" x="912.5" y="609.5332">OPENED</text><text fill="#000000" font-family="sans-serif" font-size="14" lengthAdjust="spacing" textLength="57" x="912.5" y="627.1426">CLOSED</text><text fill="#000000" font-family="sans-serif" font-size="14" lengthAdjust="spacing" textLength="71" x="912.5" y="644.752">POISONED</text><line style="stroke:#181818;stroke-width:0.5;" x1="907.5" x2="1016.5" y1="651.8281" y2="651.8281"/></g><!--MD5=[2cb47ba637a0d19583e6199456f6ad0b]
class Player--><g id="elem_Player"><rect codeLine="32" fill="#F1F1F1" height="83.2188" id="Player" rx="2.5" ry="2.5" style="stroke:#181818;stroke-width:0.5;" width="141" x="1241.5" y="292"/><ellipse cx="1287.75" cy="308" fill="#A9DCDF" rx="11" ry="11" style="stroke:#181818;stroke-width:1.0;"/><path d="M1289.9375,309.7656 L1285.7969,309.7656 L1285.375,310.7969 L1285.7969,310.7969 Q1286.4063,310.7969 1286.6719,311.0313 Q1286.9375,311.2656 1286.9375,311.6563 Q1286.9375,312.0313 1286.6719,312.2656 Q1286.4063,312.5 1285.7969,312.5 L1283.5,312.5 Q1282.8906,312.5 1282.6328,312.2656 Q1282.375,312.0313 1282.375,311.6406 Q1282.375,311.2656 1282.6484,311.0234 Q1282.9219,310.7813 1283.5469,310.7969 L1286.2188,304.1406 L1285.1094,304.1406 Q1284.5,304.1406 1284.2344,303.9063 Q1283.9688,303.6719 1283.9688,303.2813 Q1283.9688,302.9063 1284.2344,302.6719 Q1284.5,302.4375 1285.1094,302.4375 L1288.7813,302.4375 L1292.1719,310.7969 Q1292.7656,310.7969 1292.9531,310.9375 Q1293.3438,311.2031 1293.3438,311.6563 Q1293.3438,312.0313 1293.0859,312.2656 Q1292.8281,312.5 1292.2188,312.5 L1289.9219,312.5 Q1289.3125,312.5 1289.0469,312.2656 Q1288.7813,312.0313 1288.7813,311.6406 Q1288.7813,311.2656 1289.0469,311.0313 Q1289.3125,310.7969 1289.9219,310.7969 L1290.3438,310.7969 L1289.9375,309.7656 Z M1289.2188,308.0625 L1287.8594,304.6875 L1286.4844,308.0625 L1289.2188,308.0625 Z " fill="#000000"/><text fill="#000000" font-family="sans-serif" font-size="14" font-style="italic" lengthAdjust="spacing" textLength="40" x="1308.25" y="313.7285">Player</text><line style="stroke:#181818;stroke-width:0.5;" x1="1242.5" x2="1381.5" y1="324" y2="324"/><ellipse cx="1252.5" cy="338.3047" fill="none" rx="3" ry="3" style="stroke:#038048;stroke-width:1.0;"/><text fill="#000000" font-family="sans-serif" font-size="14" lengthAdjust="spacing" textLength="77" x="1261.5" y="342.5332">room: Room</text><line style="stroke:#181818;stroke-width:0.5;" x1="1242.5" x2="1381.5" y1="349.6094" y2="349.6094"/><ellipse cx="1252.5" cy="363.9141" fill="#84BE84" rx="3" ry="3" style="stroke:#038048;stroke-width:1.0;"/><text fill="#000000" font-family="sans-serif" font-size="14" lengthAdjust="spacing" textLength="115" x="1261.5" y="368.1426">move(Room): void</text></g><!--MD5=[86b19e389e6533d37437225d9ce7df37]
class IVisitor--><g id="elem_IVisitor"><rect codeLine="36" fill="#F1F1F1" height="136.0469" id="IVisitor" rx="2.5" ry="2.5" style="stroke:#181818;stroke-width:0.5;" width="274" x="632" y="865"/><ellipse cx="743.25" cy="881" fill="#B4A7E5" rx="11" ry="11" style="stroke:#181818;stroke-width:1.0;"/><path d="M744.2031,877.6406 L744.2031,884.2969 L745.9219,884.2969 Q746.5313,884.2969 746.7969,884.5313 Q747.0625,884.7656 747.0625,885.1563 Q747.0625,885.5313 746.7969,885.7656 Q746.5313,886 745.9219,886 L740.7813,886 Q740.1719,886 739.9063,885.7656 Q739.6406,885.5313 739.6406,885.1406 Q739.6406,884.7656 739.9063,884.5313 Q740.1719,884.2969 740.7813,884.2969 L742.5,884.2969 L742.5,877.6406 L740.7813,877.6406 Q740.1719,877.6406 739.9063,877.4063 Q739.6406,877.1719 739.6406,876.7813 Q739.6406,876.4063 739.9063,876.1719 Q740.1719,875.9375 740.7813,875.9375 L745.9219,875.9375 Q746.5313,875.9375 746.7969,876.1719 Q747.0625,876.4063 747.0625,876.7813 Q747.0625,877.1719 746.7969,877.4063 Q746.5313,877.6406 745.9219,877.6406 L744.2031,877.6406 Z " fill="#000000"/><text fill="#000000" font-family="sans-serif" font-size="14" font-style="italic" lengthAdjust="spacing" textLength="43" x="763.75" y="886.7285">IVisitor</text><line style="stroke:#181818;stroke-width:0.5;" x1="633" x2="905" y1="897" y2="897"/><line style="stroke:#181818;stroke-width:0.5;" x1="633" x2="905" y1="905" y2="905"/><ellipse cx="643" cy="919.3047" fill="#84BE84" rx="3" ry="3" style="stroke:#038048;stroke-width:1.0;"/><text fill="#000000" font-family="sans-serif" font-size="14" lengthAdjust="spacing" textLength="166" x="652" y="923.5332">use(mask: Mask): boolean</text><ellipse cx="643" cy="936.9141" fill="#84BE84" rx="3" ry="3" style="stroke:#038048;stroke-width:1.0;"/><text fill="#000000" font-family="sans-serif" font-size="14" lengthAdjust="spacing" textLength="196" x="652" y="941.1426">use(sponge: Sponge): boolean</text><ellipse cx="643" cy="954.5234" fill="#84BE84" rx="3" ry="3" style="stroke:#038048;stroke-width:1.0;"/><text fill="#000000" font-family="sans-serif" font-size="14" lengthAdjust="spacing" textLength="159" x="652" y="958.752">use(beer: Beer): boolean</text><ellipse cx="643" cy="972.1328" fill="#84BE84" rx="3" ry="3" style="stroke:#038048;stroke-width:1.0;"/><text fill="#000000" font-family="sans-serif" font-size="14" lengthAdjust="spacing" textLength="195" x="652" y="976.3613">use(cheese: Cheese): boolean</text><ellipse cx="643" cy="989.7422" fill="#84BE84" rx="3" ry="3" style="stroke:#038048;stroke-width:1.0;"/><text fill="#000000" font-family="sans-serif" font-size="14" lengthAdjust="spacing" textLength="248" x="652" y="993.9707">use(transistor: TransistorPair): boolean</text></g><!--MD5=[48c9bd2a907037592a16dc752f63779c]
class ItemVisitor--><g id="elem_ItemVisitor"><rect codeLine="44" fill="#F1F1F1" height="100.8281" id="ItemVisitor" rx="2.5" ry="2.5" style="stroke:#181818;stroke-width:0.5;" width="385" x="1386.5" y="1062"/><ellipse cx="1542.25" cy="1078" fill="#ADD1B2" rx="11" ry="11" style="stroke:#181818;stroke-width:1.0;"/><path d="M1545.0156,1073.875 Q1545.1719,1073.6563 1545.3594,1073.5469 Q1545.5469,1073.4375 1545.7656,1073.4375 Q1546.1406,1073.4375 1546.375,1073.6953 Q1546.6094,1073.9531 1546.6094,1074.5625 L1546.6094,1076.0156 Q1546.6094,1076.625 1546.375,1076.8906 Q1546.1406,1077.1563 1545.7656,1077.1563 Q1545.4219,1077.1563 1545.2188,1076.9531 Q1545.0156,1076.7656 1544.9063,1076.25 Q1544.8594,1075.8906 1544.6719,1075.7031 Q1544.3438,1075.3281 1543.7344,1075.1094 Q1543.125,1074.8906 1542.5,1074.8906 Q1541.7344,1074.8906 1541.1016,1075.2188 Q1540.4688,1075.5469 1539.9766,1076.2969 Q1539.4844,1077.0469 1539.4844,1078.0781 L1539.4844,1079.1719 Q1539.4844,1080.4063 1540.375,1081.2266 Q1541.2656,1082.0469 1542.8594,1082.0469 Q1543.7969,1082.0469 1544.4531,1081.7969 Q1544.8438,1081.6406 1545.2656,1081.2031 Q1545.5313,1080.9375 1545.6797,1080.8594 Q1545.8281,1080.7813 1546.0313,1080.7813 Q1546.3594,1080.7813 1546.6172,1081.0391 Q1546.875,1081.2969 1546.875,1081.6406 Q1546.875,1081.9844 1546.5313,1082.3906 Q1546.0313,1082.9688 1545.2344,1083.2969 Q1544.1563,1083.75 1542.8594,1083.75 Q1541.3438,1083.75 1540.1406,1083.125 Q1539.1563,1082.625 1538.4688,1081.5547 Q1537.7813,1080.4844 1537.7813,1079.2031 L1537.7813,1078.0469 Q1537.7813,1076.7188 1538.3984,1075.5703 Q1539.0156,1074.4219 1540.1094,1073.8047 Q1541.2031,1073.1875 1542.4375,1073.1875 Q1543.1719,1073.1875 1543.8203,1073.3516 Q1544.4688,1073.5156 1545.0156,1073.875 Z " fill="#000000"/><text fill="#000000" font-family="sans-serif" font-size="14" lengthAdjust="spacing" textLength="65" x="1562.75" y="1083.7285">ItemVisitor</text><line style="stroke:#181818;stroke-width:0.5;" x1="1387.5" x2="1770.5" y1="1094" y2="1094"/><line style="stroke:#181818;stroke-width:0.5;" x1="1387.5" x2="1770.5" y1="1102" y2="1102"/><ellipse cx="1397.5" cy="1116.3047" fill="#84BE84" rx="3" ry="3" style="stroke:#038048;stroke-width:1.0;"/><text fill="#000000" font-family="sans-serif" font-size="14" lengthAdjust="spacing" textLength="260" x="1406.5" y="1120.5332">saveFromTeacher(items: Item[]): boolean</text><ellipse cx="1397.5" cy="1133.9141" fill="#84BE84" rx="3" ry="3" style="stroke:#038048;stroke-width:1.0;"/><text fill="#000000" font-family="sans-serif" font-size="14" lengthAdjust="spacing" textLength="250" x="1406.5" y="1138.1426">saveFromPoison(items: Item[]): boolean</text><ellipse cx="1397.5" cy="1151.5234" fill="#84BE84" rx="3" ry="3" style="stroke:#038048;stroke-width:1.0;"/><text fill="#000000" font-family="sans-serif" font-size="14" lengthAdjust="spacing" textLength="359" x="1406.5" y="1155.752">makeRoomPoisoned(items: Item[], room: Room): boolean</text></g><!--MD5=[1c2b96da30051402419535db1ceb071a]
class TVSZ--><g id="elem_TVSZ"><rect codeLine="57" fill="#F1F1F1" height="83.2188" id="TVSZ" rx="2.5" ry="2.5" style="stroke:#181818;stroke-width:0.5;" width="162" x="7" y="1071"/><ellipse cx="66.25" cy="1087" fill="#ADD1B2" rx="11" ry="11" style="stroke:#181818;stroke-width:1.0;"/><path d="M69.0156,1082.875 Q69.1719,1082.6563 69.3594,1082.5469 Q69.5469,1082.4375 69.7656,1082.4375 Q70.1406,1082.4375 70.375,1082.6953 Q70.6094,1082.9531 70.6094,1083.5625 L70.6094,1085.0156 Q70.6094,1085.625 70.375,1085.8906 Q70.1406,1086.1563 69.7656,1086.1563 Q69.4219,1086.1563 69.2188,1085.9531 Q69.0156,1085.7656 68.9063,1085.25 Q68.8594,1084.8906 68.6719,1084.7031 Q68.3438,1084.3281 67.7344,1084.1094 Q67.125,1083.8906 66.5,1083.8906 Q65.7344,1083.8906 65.1016,1084.2188 Q64.4688,1084.5469 63.9766,1085.2969 Q63.4844,1086.0469 63.4844,1087.0781 L63.4844,1088.1719 Q63.4844,1089.4063 64.375,1090.2266 Q65.2656,1091.0469 66.8594,1091.0469 Q67.7969,1091.0469 68.4531,1090.7969 Q68.8438,1090.6406 69.2656,1090.2031 Q69.5313,1089.9375 69.6797,1089.8594 Q69.8281,1089.7813 70.0313,1089.7813 Q70.3594,1089.7813 70.6172,1090.0391 Q70.875,1090.2969 70.875,1090.6406 Q70.875,1090.9844 70.5313,1091.3906 Q70.0313,1091.9688 69.2344,1092.2969 Q68.1563,1092.75 66.8594,1092.75 Q65.3438,1092.75 64.1406,1092.125 Q63.1563,1091.625 62.4688,1090.5547 Q61.7813,1089.4844 61.7813,1088.2031 L61.7813,1087.0469 Q61.7813,1085.7188 62.3984,1084.5703 Q63.0156,1083.4219 64.1094,1082.8047 Q65.2031,1082.1875 66.4375,1082.1875 Q67.1719,1082.1875 67.8203,1082.3516 Q68.4688,1082.5156 69.0156,1082.875 Z " fill="#000000"/><text fill="#000000" font-family="sans-serif" font-size="14" lengthAdjust="spacing" textLength="35" x="86.75" y="1092.7285">TVSZ</text><line style="stroke:#181818;stroke-width:0.5;" x1="8" x2="168" y1="1103" y2="1103"/><line style="stroke:#181818;stroke-width:0.5;" x1="8" x2="168" y1="1111" y2="1111"/><ellipse cx="18" cy="1125.3047" fill="#84BE84" rx="3" ry="3" style="stroke:#038048;stroke-width:1.0;"/><text fill="#000000" font-family="sans-serif" font-size="14" lengthAdjust="spacing" textLength="91" x="27" y="1129.5332">accept(Visitor)</text><ellipse cx="18" cy="1142.9141" fill="#84BE84" rx="3" ry="3" style="stroke:#038048;stroke-width:1.0;"/><text fill="#000000" font-family="sans-serif" font-size="14" lengthAdjust="spacing" textLength="136" x="27" y="1147.1426">isAvaliable(): boolean</text></g><!--MD5=[6029bd9eaad172140eff99b2ee6a63ba]
class Beer--><g id="elem_Beer"><rect codeLine="62" fill="#F1F1F1" height="83.2188" id="Beer" rx="2.5" ry="2.5" style="stroke:#181818;stroke-width:0.5;" width="162" x="204" y="1071"/><ellipse cx="265.75" cy="1087" fill="#ADD1B2" rx="11" ry="11" style="stroke:#181818;stroke-width:1.0;"/><path d="M268.5156,1082.875 Q268.6719,1082.6563 268.8594,1082.5469 Q269.0469,1082.4375 269.2656,1082.4375 Q269.6406,1082.4375 269.875,1082.6953 Q270.1094,1082.9531 270.1094,1083.5625 L270.1094,1085.0156 Q270.1094,1085.625 269.875,1085.8906 Q269.6406,1086.1563 269.2656,1086.1563 Q268.9219,1086.1563 268.7188,1085.9531 Q268.5156,1085.7656 268.4063,1085.25 Q268.3594,1084.8906 268.1719,1084.7031 Q267.8438,1084.3281 267.2344,1084.1094 Q266.625,1083.8906 266,1083.8906 Q265.2344,1083.8906 264.6016,1084.2188 Q263.9688,1084.5469 263.4766,1085.2969 Q262.9844,1086.0469 262.9844,1087.0781 L262.9844,1088.1719 Q262.9844,1089.4063 263.875,1090.2266 Q264.7656,1091.0469 266.3594,1091.0469 Q267.2969,1091.0469 267.9531,1090.7969 Q268.3438,1090.6406 268.7656,1090.2031 Q269.0313,1089.9375 269.1797,1089.8594 Q269.3281,1089.7813 269.5313,1089.7813 Q269.8594,1089.7813 270.1172,1090.0391 Q270.375,1090.2969 270.375,1090.6406 Q270.375,1090.9844 270.0313,1091.3906 Q269.5313,1091.9688 268.7344,1092.2969 Q267.6563,1092.75 266.3594,1092.75 Q264.8438,1092.75 263.6406,1092.125 Q262.6563,1091.625 261.9688,1090.5547 Q261.2813,1089.4844 261.2813,1088.2031 L261.2813,1087.0469 Q261.2813,1085.7188 261.8984,1084.5703 Q262.5156,1083.4219 263.6094,1082.8047 Q264.7031,1082.1875 265.9375,1082.1875 Q266.6719,1082.1875 267.3203,1082.3516 Q267.9688,1082.5156 268.5156,1082.875 Z " fill="#000000"/><text fill="#000000" font-family="sans-serif" font-size="14" lengthAdjust="spacing" textLength="30" x="286.25" y="1092.7285">Beer</text><line style="stroke:#181818;stroke-width:0.5;" x1="205" x2="365" y1="1103" y2="1103"/><line style="stroke:#181818;stroke-width:0.5;" x1="205" x2="365" y1="1111" y2="1111"/><ellipse cx="215" cy="1125.3047" fill="#84BE84" rx="3" ry="3" style="stroke:#038048;stroke-width:1.0;"/><text fill="#000000" font-family="sans-serif" font-size="14" lengthAdjust="spacing" textLength="91" x="224" y="1129.5332">accept(Visitor)</text><ellipse cx="215" cy="1142.9141" fill="#84BE84" rx="3" ry="3" style="stroke:#038048;stroke-width:1.0;"/><text fill="#000000" font-family="sans-serif" font-size="14" lengthAdjust="spacing" textLength="136" x="224" y="1147.1426">isAvaliable(): boolean</text></g><!--MD5=[9defea89777698fa3873fe59fc4ada58]
class TransistorPair--><g id="elem_TransistorPair"><rect codeLine="67" fill="#F1F1F1" height="83.2188" id="TransistorPair" rx="2.5" ry="2.5" style="stroke:#181818;stroke-width:0.5;" width="162" x="401" y="1071"/><ellipse cx="434.45" cy="1087" fill="#ADD1B2" rx="11" ry="11" style="stroke:#181818;stroke-width:1.0;"/><path d="M437.2156,1082.875 Q437.3719,1082.6563 437.5594,1082.5469 Q437.7469,1082.4375 437.9656,1082.4375 Q438.3406,1082.4375 438.575,1082.6953 Q438.8094,1082.9531 438.8094,1083.5625 L438.8094,1085.0156 Q438.8094,1085.625 438.575,1085.8906 Q438.3406,1086.1563 437.9656,1086.1563 Q437.6219,1086.1563 437.4188,1085.9531 Q437.2156,1085.7656 437.1063,1085.25 Q437.0594,1084.8906 436.8719,1084.7031 Q436.5438,1084.3281 435.9344,1084.1094 Q435.325,1083.8906 434.7,1083.8906 Q433.9344,1083.8906 433.3016,1084.2188 Q432.6688,1084.5469 432.1766,1085.2969 Q431.6844,1086.0469 431.6844,1087.0781 L431.6844,1088.1719 Q431.6844,1089.4063 432.575,1090.2266 Q433.4656,1091.0469 435.0594,1091.0469 Q435.9969,1091.0469 436.6531,1090.7969 Q437.0438,1090.6406 437.4656,1090.2031 Q437.7313,1089.9375 437.8797,1089.8594 Q438.0281,1089.7813 438.2313,1089.7813 Q438.5594,1089.7813 438.8172,1090.0391 Q439.075,1090.2969 439.075,1090.6406 Q439.075,1090.9844 438.7313,1091.3906 Q438.2313,1091.9688 437.4344,1092.2969 Q436.3563,1092.75 435.0594,1092.75 Q433.5438,1092.75 432.3406,1092.125 Q431.3563,1091.625 430.6688,1090.5547 Q429.9813,1089.4844 429.9813,1088.2031 L429.9813,1087.0469 Q429.9813,1085.7188 430.5984,1084.5703 Q431.2156,1083.4219 432.3094,1082.8047 Q433.4031,1082.1875 434.6375,1082.1875 Q435.3719,1082.1875 436.0203,1082.3516 Q436.6688,1082.5156 437.2156,1082.875 Z " fill="#000000"/><text fill="#000000" font-family="sans-serif" font-size="14" lengthAdjust="spacing" textLength="89" x="452.55" y="1092.7285">TransistorPair</text><line style="stroke:#181818;stroke-width:0.5;" x1="402" x2="562" y1="1103" y2="1103"/><line style="stroke:#181818;stroke-width:0.5;" x1="402" x2="562" y1="1111" y2="1111"/><ellipse cx="412" cy="1125.3047" fill="#84BE84" rx="3" ry="3" style="stroke:#038048;stroke-width:1.0;"/><text fill="#000000" font-family="sans-serif" font-size="14" lengthAdjust="spacing" textLength="91" x="421" y="1129.5332">accept(Visitor)</text><ellipse cx="412" cy="1142.9141" fill="#84BE84" rx="3" ry="3" style="stroke:#038048;stroke-width:1.0;"/><text fill="#000000" font-family="sans-serif" font-size="14" lengthAdjust="spacing" textLength="136" x="421" y="1147.1426">isAvaliable(): boolean</text></g><!--MD5=[685d6ec15f3caaaf2ddc1ca659765db7]
class Mask--><g id="elem_Mask"><rect codeLine="72" fill="#F1F1F1" height="83.2188" id="Mask" rx="2.5" ry="2.5" style="stroke:#181818;stroke-width:0.5;" width="162" x="598" y="1071"/><ellipse cx="658.25" cy="1087" fill="#ADD1B2" rx="11" ry="11" style="stroke:#181818;stroke-width:1.0;"/><path d="M661.0156,1082.875 Q661.1719,1082.6563 661.3594,1082.5469 Q661.5469,1082.4375 661.7656,1082.4375 Q662.1406,1082.4375 662.375,1082.6953 Q662.6094,1082.9531 662.6094,1083.5625 L662.6094,1085.0156 Q662.6094,1085.625 662.375,1085.8906 Q662.1406,1086.1563 661.7656,1086.1563 Q661.4219,1086.1563 661.2188,1085.9531 Q661.0156,1085.7656 660.9063,1085.25 Q660.8594,1084.8906 660.6719,1084.7031 Q660.3438,1084.3281 659.7344,1084.1094 Q659.125,1083.8906 658.5,1083.8906 Q657.7344,1083.8906 657.1016,1084.2188 Q656.4688,1084.5469 655.9766,1085.2969 Q655.4844,1086.0469 655.4844,1087.0781 L655.4844,1088.1719 Q655.4844,1089.4063 656.375,1090.2266 Q657.2656,1091.0469 658.8594,1091.0469 Q659.7969,1091.0469 660.4531,1090.7969 Q660.8438,1090.6406 661.2656,1090.2031 Q661.5313,1089.9375 661.6797,1089.8594 Q661.8281,1089.7813 662.0313,1089.7813 Q662.3594,1089.7813 662.6172,1090.0391 Q662.875,1090.2969 662.875,1090.6406 Q662.875,1090.9844 662.5313,1091.3906 Q662.0313,1091.9688 661.2344,1092.2969 Q660.1563,1092.75 658.8594,1092.75 Q657.3438,1092.75 656.1406,1092.125 Q655.1563,1091.625 654.4688,1090.5547 Q653.7813,1089.4844 653.7813,1088.2031 L653.7813,1087.0469 Q653.7813,1085.7188 654.3984,1084.5703 Q655.0156,1083.4219 656.1094,1082.8047 Q657.2031,1082.1875 658.4375,1082.1875 Q659.1719,1082.1875 659.8203,1082.3516 Q660.4688,1082.5156 661.0156,1082.875 Z " fill="#000000"/><text fill="#000000" font-family="sans-serif" font-size="14" lengthAdjust="spacing" textLength="33" x="678.75" y="1092.7285">Mask</text><line style="stroke:#181818;stroke-width:0.5;" x1="599" x2="759" y1="1103" y2="1103"/><line style="stroke:#181818;stroke-width:0.5;" x1="599" x2="759" y1="1111" y2="1111"/><ellipse cx="609" cy="1125.3047" fill="#84BE84" rx="3" ry="3" style="stroke:#038048;stroke-width:1.0;"/><text fill="#000000" font-family="sans-serif" font-size="14" lengthAdjust="spacing" textLength="91" x="618" y="1129.5332">accept(Visitor)</text><ellipse cx="609" cy="1142.9141" fill="#84BE84" rx="3" ry="3" style="stroke:#038048;stroke-width:1.0;"/><text fill="#000000" font-family="sans-serif" font-size="14" lengthAdjust="spacing" textLength="136" x="618" y="1147.1426">isAvaliable(): boolean</text></g><!--MD5=[05f1555ef92e877635b52318d1be26d7]
class Sponge--><g id="elem_Sponge"><rect codeLine="77" fill="#F1F1F1" height="83.2188" id="Sponge" rx="2.5" ry="2.5" style="stroke:#181818;stroke-width:0.5;" width="162" x="795" y="1071"/><ellipse cx="847.25" cy="1087" fill="#ADD1B2" rx="11" ry="11" style="stroke:#181818;stroke-width:1.0;"/><path d="M850.0156,1082.875 Q850.1719,1082.6563 850.3594,1082.5469 Q850.5469,1082.4375 850.7656,1082.4375 Q851.1406,1082.4375 851.375,1082.6953 Q851.6094,1082.9531 851.6094,1083.5625 L851.6094,1085.0156 Q851.6094,1085.625 851.375,1085.8906 Q851.1406,1086.1563 850.7656,1086.1563 Q850.4219,1086.1563 850.2188,1085.9531 Q850.0156,1085.7656 849.9063,1085.25 Q849.8594,1084.8906 849.6719,1084.7031 Q849.3438,1084.3281 848.7344,1084.1094 Q848.125,1083.8906 847.5,1083.8906 Q846.7344,1083.8906 846.1016,1084.2188 Q845.4688,1084.5469 844.9766,1085.2969 Q844.4844,1086.0469 844.4844,1087.0781 L844.4844,1088.1719 Q844.4844,1089.4063 845.375,1090.2266 Q846.2656,1091.0469 847.8594,1091.0469 Q848.7969,1091.0469 849.4531,1090.7969 Q849.8438,1090.6406 850.2656,1090.2031 Q850.5313,1089.9375 850.6797,1089.8594 Q850.8281,1089.7813 851.0313,1089.7813 Q851.3594,1089.7813 851.6172,1090.0391 Q851.875,1090.2969 851.875,1090.6406 Q851.875,1090.9844 851.5313,1091.3906 Q851.0313,1091.9688 850.2344,1092.2969 Q849.1563,1092.75 847.8594,1092.75 Q846.3438,1092.75 845.1406,1092.125 Q844.1563,1091.625 843.4688,1090.5547 Q842.7813,1089.4844 842.7813,1088.2031 L842.7813,1087.0469 Q842.7813,1085.7188 843.3984,1084.5703 Q844.0156,1083.4219 845.1094,1082.8047 Q846.2031,1082.1875 847.4375,1082.1875 Q848.1719,1082.1875 848.8203,1082.3516 Q849.4688,1082.5156 850.0156,1082.875 Z " fill="#000000"/><text fill="#000000" font-family="sans-serif" font-size="14" lengthAdjust="spacing" textLength="49" x="867.75" y="1092.7285">Sponge</text><line style="stroke:#181818;stroke-width:0.5;" x1="796" x2="956" y1="1103" y2="1103"/><line style="stroke:#181818;stroke-width:0.5;" x1="796" x2="956" y1="1111" y2="1111"/><ellipse cx="806" cy="1125.3047" fill="#84BE84" rx="3" ry="3" style="stroke:#038048;stroke-width:1.0;"/><text fill="#000000" font-family="sans-serif" font-size="14" lengthAdjust="spacing" textLength="91" x="815" y="1129.5332">accept(Visitor)</text><ellipse cx="806" cy="1142.9141" fill="#84BE84" rx="3" ry="3" style="stroke:#038048;stroke-width:1.0;"/><text fill="#000000" font-family="sans-serif" font-size="14" lengthAdjust="spacing" textLength="136" x="815" y="1147.1426">isAvaliable(): boolean</text></g><!--MD5=[6a2897fb52bc57835b526dc756c6e029]
class Cheese--><g id="elem_Cheese"><rect codeLine="82" fill="#F1F1F1" height="83.2188" id="Cheese" rx="2.5" ry="2.5" style="stroke:#181818;stroke-width:0.5;" width="162" x="992" y="1071"/><ellipse cx="1044.25" cy="1087" fill="#ADD1B2" rx="11" ry="11" style="stroke:#181818;stroke-width:1.0;"/><path d="M1047.0156,1082.875 Q1047.1719,1082.6563 1047.3594,1082.5469 Q1047.5469,1082.4375 1047.7656,1082.4375 Q1048.1406,1082.4375 1048.375,1082.6953 Q1048.6094,1082.9531 1048.6094,1083.5625 L1048.6094,1085.0156 Q1048.6094,1085.625 1048.375,1085.8906 Q1048.1406,1086.1563 1047.7656,1086.1563 Q1047.4219,1086.1563 1047.2188,1085.9531 Q1047.0156,1085.7656 1046.9063,1085.25 Q1046.8594,1084.8906 1046.6719,1084.7031 Q1046.3438,1084.3281 1045.7344,1084.1094 Q1045.125,1083.8906 1044.5,1083.8906 Q1043.7344,1083.8906 1043.1016,1084.2188 Q1042.4688,1084.5469 1041.9766,1085.2969 Q1041.4844,1086.0469 1041.4844,1087.0781 L1041.4844,1088.1719 Q1041.4844,1089.4063 1042.375,1090.2266 Q1043.2656,1091.0469 1044.8594,1091.0469 Q1045.7969,1091.0469 1046.4531,1090.7969 Q1046.8438,1090.6406 1047.2656,1090.2031 Q1047.5313,1089.9375 1047.6797,1089.8594 Q1047.8281,1089.7813 1048.0313,1089.7813 Q1048.3594,1089.7813 1048.6172,1090.0391 Q1048.875,1090.2969 1048.875,1090.6406 Q1048.875,1090.9844 1048.5313,1091.3906 Q1048.0313,1091.9688 1047.2344,1092.2969 Q1046.1563,1092.75 1044.8594,1092.75 Q1043.3438,1092.75 1042.1406,1092.125 Q1041.1563,1091.625 1040.4688,1090.5547 Q1039.7813,1089.4844 1039.7813,1088.2031 L1039.7813,1087.0469 Q1039.7813,1085.7188 1040.3984,1084.5703 Q1041.0156,1083.4219 1042.1094,1082.8047 Q1043.2031,1082.1875 1044.4375,1082.1875 Q1045.1719,1082.1875 1045.8203,1082.3516 Q1046.4688,1082.5156 1047.0156,1082.875 Z " fill="#000000"/><text fill="#000000" font-family="sans-serif" font-size="14" lengthAdjust="spacing" textLength="49" x="1064.75" y="1092.7285">Cheese</text><line style="stroke:#181818;stroke-width:0.5;" x1="993" x2="1153" y1="1103" y2="1103"/><line style="stroke:#181818;stroke-width:0.5;" x1="993" x2="1153" y1="1111" y2="1111"/><ellipse cx="1003" cy="1125.3047" fill="#84BE84" rx="3" ry="3" style="stroke:#038048;stroke-width:1.0;"/><text fill="#000000" font-family="sans-serif" font-size="14" lengthAdjust="spacing" textLength="91" x="1012" y="1129.5332">accept(Visitor)</text><ellipse cx="1003" cy="1142.9141" fill="#84BE84" rx="3" ry="3" style="stroke:#038048;stroke-width:1.0;"/><text fill="#000000" font-family="sans-serif" font-size="14" lengthAdjust="spacing" textLength="136" x="1012" y="1147.1426">isAvaliable(): boolean</text></g><!--MD5=[7bdc6823cbffa7805e02487292c15c0d]
class Logarlec--><g id="elem_Logarlec"><rect codeLine="87" fill="#F1F1F1" height="83.2188" id="Logarlec" rx="2.5" ry="2.5" style="stroke:#181818;stroke-width:0.5;" width="162" x="1189" y="1071"/><ellipse cx="1238.25" cy="1087" fill="#ADD1B2" rx="11" ry="11" style="stroke:#181818;stroke-width:1.0;"/><path d="M1241.0156,1082.875 Q1241.1719,1082.6563 1241.3594,1082.5469 Q1241.5469,1082.4375 1241.7656,1082.4375 Q1242.1406,1082.4375 1242.375,1082.6953 Q1242.6094,1082.9531 1242.6094,1083.5625 L1242.6094,1085.0156 Q1242.6094,1085.625 1242.375,1085.8906 Q1242.1406,1086.1563 1241.7656,1086.1563 Q1241.4219,1086.1563 1241.2188,1085.9531 Q1241.0156,1085.7656 1240.9063,1085.25 Q1240.8594,1084.8906 1240.6719,1084.7031 Q1240.3438,1084.3281 1239.7344,1084.1094 Q1239.125,1083.8906 1238.5,1083.8906 Q1237.7344,1083.8906 1237.1016,1084.2188 Q1236.4688,1084.5469 1235.9766,1085.2969 Q1235.4844,1086.0469 1235.4844,1087.0781 L1235.4844,1088.1719 Q1235.4844,1089.4063 1236.375,1090.2266 Q1237.2656,1091.0469 1238.8594,1091.0469 Q1239.7969,1091.0469 1240.4531,1090.7969 Q1240.8438,1090.6406 1241.2656,1090.2031 Q1241.5313,1089.9375 1241.6797,1089.8594 Q1241.8281,1089.7813 1242.0313,1089.7813 Q1242.3594,1089.7813 1242.6172,1090.0391 Q1242.875,1090.2969 1242.875,1090.6406 Q1242.875,1090.9844 1242.5313,1091.3906 Q1242.0313,1091.9688 1241.2344,1092.2969 Q1240.1563,1092.75 1238.8594,1092.75 Q1237.3438,1092.75 1236.1406,1092.125 Q1235.1563,1091.625 1234.4688,1090.5547 Q1233.7813,1089.4844 1233.7813,1088.2031 L1233.7813,1087.0469 Q1233.7813,1085.7188 1234.3984,1084.5703 Q1235.0156,1083.4219 1236.1094,1082.8047 Q1237.2031,1082.1875 1238.4375,1082.1875 Q1239.1719,1082.1875 1239.8203,1082.3516 Q1240.4688,1082.5156 1241.0156,1082.875 Z " fill="#000000"/><text fill="#000000" font-family="sans-serif" font-size="14" lengthAdjust="spacing" textLength="55" x="1258.75" y="1092.7285">Logarlec</text><line style="stroke:#181818;stroke-width:0.5;" x1="1190" x2="1350" y1="1103" y2="1103"/><line style="stroke:#181818;stroke-width:0.5;" x1="1190" x2="1350" y1="1111" y2="1111"/><ellipse cx="1200" cy="1125.3047" fill="#84BE84" rx="3" ry="3" style="stroke:#038048;stroke-width:1.0;"/><text fill="#000000" font-family="sans-serif" font-size="14" lengthAdjust="spacing" textLength="91" x="1209" y="1129.5332">accept(Visitor)</text><ellipse cx="1200" cy="1142.9141" fill="#84BE84" rx="3" ry="3" style="stroke:#038048;stroke-width:1.0;"/><text fill="#000000" font-family="sans-serif" font-size="14" lengthAdjust="spacing" textLength="136" x="1209" y="1147.1426">isAvaliable(): boolean</text></g><!--MD5=[0201718b592c2b324e6330b672f9bdd7]
reverse link IItemHolder to Room--><g id="link_IItemHolder_Room"><path d="M962,128.29 C962,146.03 962,165.78 962,185.8 " fill="none" id="IItemHolder-backto-Room" style="stroke:#181818;stroke-width:1.0;stroke-dasharray:7.0,7.0;"/><polygon fill="none" points="955,128.12,962,108.12,969,128.12,955,128.12" style="stroke:#181818;stroke-width:1.0;"/></g><!--MD5=[d20d8e8d5383227d6c455ad4b7ce0dc8]
reverse link Room to Student--><g id="link_Room_Student"><path codeLine="25" d="M1038.54,492.37 C1046.32,505.07 1054.5,517.44 1063,529 C1078.31,549.83 1099.1,570.31 1115.65,585.27 " fill="none" id="Room-backto-Student" style="stroke:#181818;stroke-width:1.0;"/><polygon fill="none" points="1031.81,481.14,1031.4629,488.3427,1037.9781,491.4334,1038.3252,484.2307,1031.81,481.14" style="stroke:#181818;stroke-width:1.0;"/><ellipse cx="1069" cy="520.6758" fill="none" rx="3" ry="3" style="stroke:#038048;stroke-width:1.0;"/><text fill="#000000" font-family="sans-serif" font-size="13" lengthAdjust="spacing" textLength="50" x="1076" y="525.4951">students</text><text fill="#000000" font-family="sans-serif" font-size="13" lengthAdjust="spacing" textLength="7" x="1028.0219" y="502.1938">1</text><text fill="#000000" font-family="sans-serif" font-size="13" lengthAdjust="spacing" textLength="20" x="1086.0791" y="574.5512">0..*</text></g><!--MD5=[35c0babd9536547d5b839d016026bf02]
reverse link Room to Teacher--><g id="link_Room_Teacher"><path codeLine="26" d="M1112.06,452.65 C1175.34,502.48 1242.93,555.69 1280.48,585.25 " fill="none" id="Room-backto-Teacher" style="stroke:#181818;stroke-width:1.0;"/><polygon fill="none" points="1101.54,444.37,1103.7794,451.2246,1110.968,451.7938,1108.7286,444.9392,1101.54,444.37" style="stroke:#181818;stroke-width:1.0;"/><ellipse cx="1213" cy="520.6758" fill="none" rx="3" ry="3" style="stroke:#038048;stroke-width:1.0;"/><text fill="#000000" font-family="sans-serif" font-size="13" lengthAdjust="spacing" textLength="50" x="1220" y="525.4951">teachers</text><text fill="#000000" font-family="sans-serif" font-size="13" lengthAdjust="spacing" textLength="7" x="1109.3625" y="447.5133">1</text><text fill="#000000" font-family="sans-serif" font-size="13" lengthAdjust="spacing" textLength="20" x="1250.353" y="574.5261">0..*</text></g><!--MD5=[c15279ab822b0e6c1e247978d31666f3]
reverse link Room to Room--><g id="link_Room_Room"><path codeLine="27" d="M1114.25,305.9 C1127.92,311.67 1136.5,320.87 1136.5,333.5 C1136.5,349.67 1122.44,360.21 1101.65,365.14 " fill="none" id="Room-backto-Room" style="stroke:#181818;stroke-width:1.0;"/><polygon fill="#181818" points="1101.65,301.86,1106.1402,307.5025,1113.0757,305.5278,1108.5855,299.8853,1101.65,301.86" style="stroke:#181818;stroke-width:1.0;"/><ellipse cx="1147.5" cy="334.1758" fill="none" rx="3" ry="3" style="stroke:#038048;stroke-width:1.0;"/><text fill="#000000" font-family="sans-serif" font-size="13" lengthAdjust="spacing" textLength="63" x="1154.5" y="338.9951">neighbours</text><text fill="#000000" font-family="sans-serif" font-size="13" lengthAdjust="spacing" textLength="7" x="1109.4785" y="297.2097">1</text><text fill="#000000" font-family="sans-serif" font-size="13" lengthAdjust="spacing" textLength="20" x="1109.3663" y="363.8752">0..*</text></g><!--MD5=[a72e3b47b61dab00795b0327653a455a]
reverse link IItemHolder to Items--><g id="link_IItemHolder_Items"><path codeLine="28" d="M865.45,116.25 C841.66,135.36 819,158.81 805,186 C711.95,366.67 743.84,622.68 761.03,720.94 " fill="none" id="IItemHolder-backto-Items" style="stroke:#181818;stroke-width:1.0;"/><polygon fill="#181818" points="876.06,108.06,868.866,108.5564,866.5573,115.388,873.7513,114.8915,876.06,108.06" style="stroke:#181818;stroke-width:1.0;"/><ellipse cx="748" cy="520.6758" fill="none" rx="3" ry="3" style="stroke:#038048;stroke-width:1.0;"/><text fill="#000000" font-family="sans-serif" font-size="13" lengthAdjust="spacing" textLength="32" x="755" y="525.4951">items</text><text fill="#000000" font-family="sans-serif" font-size="13" lengthAdjust="spacing" textLength="7" x="857.0415" y="129.4593">1</text><text fill="#000000" font-family="sans-serif" font-size="13" lengthAdjust="spacing" textLength="20" x="738.0537" y="710.2377">0..*</text></g><!--MD5=[12166b10b52f4420e411f41bfa0fbdb8]
reverse link Room to ERoomState--><g id="link_Room_ERoomState"><path codeLine="29" d="M962,494.19 C962,517.57 962,540.04 962,558.78 " fill="none" id="Room-backto-ERoomState" style="stroke:#181818;stroke-width:1.0;"/><polygon fill="#181818" points="962,481.13,958,487.13,962,493.13,966,487.13,962,481.13" style="stroke:#181818;stroke-width:1.0;"/><ellipse cx="968" cy="520.6758" fill="none" rx="3" ry="3" style="stroke:#038048;stroke-width:1.0;"/><text fill="#000000" font-family="sans-serif" font-size="13" lengthAdjust="spacing" textLength="29" x="975" y="525.4951">state</text></g><!--MD5=[0ebd48c549bb6f37e84a55a6e1059c04]
reverse link Labirinth to Room--><g id="link_Labirinth_Room"><path codeLine="30" d="M727.99,91.45 C752.07,116.26 786.89,152.12 822.34,188.64 " fill="none" id="Labirinth-backto-Room" style="stroke:#181818;stroke-width:1.0;"/><polygon fill="#181818" points="718.68,81.86,719.9897,88.9512,727.0391,90.4696,725.7294,83.3784,718.68,81.86" style="stroke:#181818;stroke-width:1.0;"/><ellipse cx="796" cy="147.6758" fill="none" rx="3" ry="3" style="stroke:#038048;stroke-width:1.0;"/><text fill="#000000" font-family="sans-serif" font-size="13" lengthAdjust="spacing" textLength="36" x="803" y="152.4951">rooms</text><text fill="#000000" font-family="sans-serif" font-size="13" lengthAdjust="spacing" textLength="7" x="716.1154" y="102.879">1</text><text fill="#000000" font-family="sans-serif" font-size="13" lengthAdjust="spacing" textLength="20" x="794.6232" y="178.2744">0..*</text></g><!--MD5=[535c3233ba2ce0c919511903bbeb5e8d]
reverse link IItemHolder to Player--><g id="link_IItemHolder_Player"><path d="M1082.28,99.74 C1130.21,120.34 1183.49,148.91 1224,186 C1256.28,215.55 1280.57,259.69 1295.37,291.79 " fill="none" id="IItemHolder-backto-Player" style="stroke:#181818;stroke-width:1.0;stroke-dasharray:7.0,7.0;"/><polygon fill="none" points="1079.3,106.09,1063.51,91.96,1084.67,93.16,1079.3,106.09" style="stroke:#181818;stroke-width:1.0;"/></g><!--MD5=[2dcf1d910f44a8f762f0609098acfed1]
reverse link IVisitor to ItemVisitor--><g id="link_IVisitor_ItemVisitor"><path codeLine="50" d="M926.04,970.76 C1009.11,989.81 1112.9,1013 1206,1032 C1278.17,1046.73 1296.91,1046.88 1369,1062 C1374.68,1063.19 1380.45,1064.42 1386.26,1065.68 " fill="none" id="IVisitor-backto-ItemVisitor" style="stroke:#181818;stroke-width:1.0;"/><polygon fill="none" points="924.4,977.56,906.48,966.26,927.54,963.92,924.4,977.56" style="stroke:#181818;stroke-width:1.0;"/></g><!--MD5=[27242c2e886db0b9168d69854632759a]
reverse link Items to TVSZ--><g id="link_Items_TVSZ"><path d="M667.79,774.42 C581.61,786.94 456.62,812.88 359,865 C259.69,918.02 168.16,1015.56 121.12,1070.71 " fill="none" id="Items-backto-TVSZ" style="stroke:#181818;stroke-width:1.0;"/><polygon fill="none" points="666.96,767.47,687.73,771.67,668.88,781.34,666.96,767.47" style="stroke:#181818;stroke-width:1.0;"/></g><!--MD5=[b3e83861e34b552264f7797ca6870fbe]
reverse link Items to Beer--><g id="link_Items_Beer"><path d="M668.63,790.68 C618.02,807.27 557.3,831.77 509,865 C425.4,922.53 351.15,1017.03 312.72,1070.77 " fill="none" id="Items-backto-Beer" style="stroke:#181818;stroke-width:1.0;"/><polygon fill="none" points="666.67,783.96,687.85,784.6,670.89,797.31,666.67,783.96" style="stroke:#181818;stroke-width:1.0;"/></g><!--MD5=[1644babe1321ea4b4271197c65974aeb]
reverse link Items to TransistorPair--><g id="link_Items_TransistorPair"><path d="M669.41,801.95 C639.91,817.59 609.94,838.38 589,865 C539.1,928.44 507.78,1018.71 492.71,1070.57 " fill="none" id="Items-backto-TransistorPair" style="stroke:#181818;stroke-width:1.0;"/><polygon fill="none" points="666.61,795.52,687.63,792.87,672.85,808.06,666.61,795.52" style="stroke:#181818;stroke-width:1.0;"/></g><!--MD5=[d9a0e5485c58655dd47338adea4da8be]
reverse link Items to Mask--><g id="link_Items_Mask"><path d="M670.25,807.37 C647.79,822.28 626.8,841.32 614,865 C585.26,918.17 598.12,942.68 614,1001 C620.78,1025.91 634.77,1050.93 648.03,1070.85 " fill="none" id="Items-backto-Mask" style="stroke:#181818;stroke-width:1.0;"/><polygon fill="none" points="666.88,801.23,687.6,796.77,674.18,813.17,666.88,801.23" style="stroke:#181818;stroke-width:1.0;"/></g><!--MD5=[bbae19c0e06b01497be516b5e8646b9d]
reverse link Items to Sponge--><g id="link_Items_Sponge"><path d="M867.45,807.71 C889.64,822.58 910.36,841.52 923,865 C958.53,930.97 925.1,1019.57 899.34,1070.61 " fill="none" id="Items-backto-Sponge" style="stroke:#181818;stroke-width:1.0;"/><polygon fill="none" points="863.64,813.58,850.3,797.12,870.99,801.67,863.64,813.58" style="stroke:#181818;stroke-width:1.0;"/></g><!--MD5=[05901c380f3d050b322e5d1d7c36e292]
reverse link Items to Cheese--><g id="link_Items_Cheese"><path d="M868.47,800.9 C888.62,810.37 909.1,821.47 927,834 C1008.72,891.21 1048.26,1008.71 1064.13,1070.87 " fill="none" id="Items-backto-Cheese" style="stroke:#181818;stroke-width:1.0;"/><polygon fill="none" points="865.51,807.24,850.14,792.66,871.25,794.47,865.51,807.24" style="stroke:#181818;stroke-width:1.0;"/></g><!--MD5=[d522258c7a8d3fa0f0f1d277974f4357]
reverse link Items to Logarlec--><g id="link_Items_Logarlec"><path d="M869.13,801.42 C896.38,811.86 925.86,823.27 953,834 C986.92,847.42 998.73,844.64 1029,865 C1074.57,895.64 1178.64,1009.01 1233.92,1070.76 " fill="none" id="Items-backto-Logarlec" style="stroke:#181818;stroke-width:1.0;"/><polygon fill="none" points="866.39,807.87,850.21,794.19,871.39,794.79,866.39,807.87" style="stroke:#181818;stroke-width:1.0;"/></g><!--MD5=[6eff51b39d805ee8eabf28593e253083]
link Items to IVisitor--><g id="link_Items_IVisitor"><path codeLine="92" d="M769,804.29 C769,820.94 769,840.7 769,859.65 " fill="none" id="Items-to-IVisitor" style="stroke:#181818;stroke-width:1.0;stroke-dasharray:7.0,7.0;"/><polygon fill="#181818" points="769,864.97,773,855.97,769,859.97,765,855.97,769,864.97" style="stroke:#181818;stroke-width:1.0;"/></g><!--MD5=[1bf3815e5dab49cfe37344eb9036a9e5]
link IVisitor to TVSZ--><g id="link_IVisitor_TVSZ"><path codeLine="93" d="M632,954.06 C512.1,973.96 334.39,1009.19 186,1062 C180.25,1064.05 174.4,1066.36 168.57,1068.83 " fill="none" id="IVisitor-to-TVSZ" style="stroke:#181818;stroke-width:1.0;stroke-dasharray:7.0,7.0;"/><polygon fill="#181818" points="163.68,1070.95,173.5284,1071.0443,168.2683,1068.9632,170.3495,1063.7031,163.68,1070.95" style="stroke:#181818;stroke-width:1.0;"/></g><!--MD5=[8a192051d38e1eae17f6f9afb810b2a9]
link IVisitor to TransistorPair--><g id="link_IVisitor_TransistorPair"><path codeLine="94" d="M660.5,1001.11 C624.19,1023.56 584.7,1047.98 552.11,1068.14 " fill="none" id="IVisitor-to-TransistorPair" style="stroke:#181818;stroke-width:1.0;stroke-dasharray:7.0,7.0;"/><polygon fill="#181818" points="547.77,1070.82,557.5273,1069.4805,552.0204,1068.1867,553.3141,1062.6798,547.77,1070.82" style="stroke:#181818;stroke-width:1.0;"/></g><!--MD5=[739b2c64aac00a13980f03b3903567c4]
link IVisitor to Beer--><g id="link_IVisitor_Beer"><path codeLine="95" d="M631.89,974.06 C557.31,997.19 464,1028.33 383,1062 C377.88,1064.13 372.66,1066.41 367.42,1068.79 " fill="none" id="IVisitor-to-Beer" style="stroke:#181818;stroke-width:1.0;stroke-dasharray:7.0,7.0;"/><polygon fill="#181818" points="362.61,1071,372.4581,1070.88,367.154,1068.9138,369.1202,1063.6096,362.61,1071" style="stroke:#181818;stroke-width:1.0;"/></g><!--MD5=[7220ffe10c2896565398af009f9ee79c]
link IVisitor to Cheese--><g id="link_IVisitor_Cheese"><path codeLine="96" d="M883.93,1001.11 C922.39,1023.56 964.22,1047.98 998.73,1068.14 " fill="none" id="IVisitor-to-Cheese" style="stroke:#181818;stroke-width:1.0;stroke-dasharray:7.0,7.0;"/><polygon fill="#181818" points="1003.34,1070.82,997.5782,1062.8324,999.0201,1068.3024,993.5501,1069.7443,1003.34,1070.82" style="stroke:#181818;stroke-width:1.0;"/></g><!--MD5=[1e11c861c649db90a25bbe76e0127a8a]
link IVisitor to Mask--><g id="link_IVisitor_Mask"><path codeLine="97" d="M734.97,1001.11 C723.96,1022.83 712.01,1046.39 701.99,1066.15 " fill="none" id="IVisitor-to-Mask" style="stroke:#181818;stroke-width:1.0;stroke-dasharray:7.0,7.0;"/><polygon fill="#181818" points="699.62,1070.82,707.2624,1064.6076,701.8845,1066.3622,700.1299,1060.9843,699.62,1070.82" style="stroke:#181818;stroke-width:1.0;"/></g><!--MD5=[3f372ba84454b60e9bcfd2cf43755b73]
link IVisitor to Logarlec--><g id="link_IVisitor_Logarlec"><path codeLine="98" d="M906.08,974.97 C1002.72,1004.35 1123.28,1042.11 1172,1062 C1177.13,1064.1 1182.37,1066.36 1187.61,1068.71 " fill="none" id="IVisitor-to-Logarlec" style="stroke:#181818;stroke-width:1.0;stroke-dasharray:7.0,7.0;"/><polygon fill="#181818" points="1192.43,1070.9,1185.8919,1063.5343,1187.8782,1068.831,1182.5815,1070.8172,1192.43,1070.9" style="stroke:#181818;stroke-width:1.0;"/></g><!--MD5=[8df641fa75aa2ec39d0f77f4b936c544]
link IVisitor to Sponge--><g id="link_IVisitor_Sponge"><path codeLine="99" d="M809.45,1001.11 C822.6,1022.92 836.87,1046.59 848.81,1066.4 " fill="none" id="IVisitor-to-Sponge" style="stroke:#181818;stroke-width:1.0;stroke-dasharray:7.0,7.0;"/><polygon fill="#181818" points="851.48,1070.82,850.2556,1061.0475,848.897,1066.5388,843.4057,1065.1803,851.48,1070.82" style="stroke:#181818;stroke-width:1.0;"/></g><!--MD5=[bdb0e9ee1a61c88a82e10735b3f80724]
link Student to ItemVisitor--><g id="link_Student_ItemVisitor"><path codeLine="102" d="M1163.15,633.66 C1228.95,709.26 1438.59,950.15 1532.6,1058.19 " fill="none" id="Student-to-ItemVisitor" style="stroke:#181818;stroke-width:1.0;stroke-dasharray:7.0,7.0;"/><polygon fill="#181818" points="1535.9,1061.97,1533.004,1052.5565,1532.6156,1058.2,1526.9721,1057.8116,1535.9,1061.97" style="stroke:#181818;stroke-width:1.0;"/></g><!--MD5=[1efd27d914d85a42a96e1b5a958d2e84]
link Student to Items--><g id="link_Student_Items"><path codeLine="103" d="M1102.25,629.94 C1082.14,639.33 1057.44,650.59 1035,660 C975.38,685.01 907.24,710.96 854.85,730.36 " fill="none" id="Student-to-Items" style="stroke:#181818;stroke-width:1.0;stroke-dasharray:7.0,7.0;"/><polygon fill="#181818" points="850.15,732.1,859.9782,732.7379,854.841,730.3695,857.2094,725.2323,850.15,732.1" style="stroke:#181818;stroke-width:1.0;"/></g><!--MD5=[bd7b26c7137ffeb0a560789e4bfac2aa]
reverse link Player to Teacher--><g id="link_Player_Teacher"><path d="M1311.55,395.51 C1311.12,455.46 1310.47,543.82 1310.17,585.34 " fill="none" id="Player-backto-Teacher" style="stroke:#181818;stroke-width:1.0;"/><polygon fill="none" points="1304.56,395.17,1311.7,375.22,1318.56,395.28,1304.56,395.17" style="stroke:#181818;stroke-width:1.0;"/></g><!--MD5=[2618489305645730ac115ff60ba2d851]
reverse link Player to Student--><g id="link_Player_Student"><path d="M1299.39,394.82 C1288.82,435.44 1270.74,488.73 1242,529 C1225.87,551.61 1201.63,571.22 1181.18,585.31 " fill="none" id="Player-backto-Student" style="stroke:#181818;stroke-width:1.0;"/><polygon fill="none" points="1292.65,392.93,1304.19,375.16,1306.25,396.25,1292.65,392.93" style="stroke:#181818;stroke-width:1.0;"/></g><!--MD5=[4307db7783ddb09d02f282197415eb3e]
@startuml UML

class Labirinth {

}

class Room implements IItemHolder{
    + maxPlayer: int

    +getNeighbours(): Room[]
    +addStudent(student: Student): void
    +removeStudent(student: Student): void
    +addTeacher(teacher: Teacher): void
    +removeTeacher(teacher: Teacher): void
    +addNeighbour(room: Room): void
    +removeNeighbour(room: Room): void
    +merge(room: Room): void
    +split(): Room
    +isFull(): boolean

    +notifyStudents(): void
    +notifyTeachers(): void

}

Room "1" o- - "0..*" Student: + students
Room "1" o- - "0..*" Teacher: + teachers
Room "1" *- - "0..*" Room: + neighbours
IItemHolder "1" *- - "0..*" Items: + items
Room *- - ERoomState: + state
Labirinth "1" *- - "0..*" Room: + rooms

abstract class Player implements IItemHolder{
  + room: Room
  + move(Room): void
}
interface IVisitor {
  + use(mask: Mask): boolean
  + use(sponge: Sponge): boolean
  + use(beer: Beer): boolean
  + use(cheese: Cheese): boolean
  + use(transistor: TransistorPair): boolean
}

class ItemVisitor {
  + saveFromTeacher(items: Item[]): boolean
  + saveFromPoison(items: Item[]): boolean
  + makeRoomPoisoned(items: Item[], room: Room): boolean
}

IVisitor <|- - ItemVisitor

abstract class Items {
  + accept(Visitor)
  + isAvaliable(): boolean
}

class TVSZ extends Items {
  + accept(Visitor)
  + isAvaliable(): boolean
}

class Beer extends Items {
  + accept(Visitor)
  + isAvaliable(): boolean
}

class TransistorPair extends Items {
  + accept(Visitor)
  + isAvaliable(): boolean
}

class Mask extends Items {
  + accept(Visitor)
  + isAvaliable(): boolean
}

class Sponge extends Items {
  + accept(Visitor)
  + isAvaliable(): boolean
}

class Cheese extends Items {
  + accept(Visitor)
  + isAvaliable(): boolean
}

class Logarlec extends Items {
  + accept(Visitor)
  + isAvaliable(): boolean
}

Items ..> IVisitor
IVisitor ..>  TVSZ
IVisitor ..>  TransistorPair
IVisitor ..>  Beer
IVisitor ..>  Cheese
IVisitor ..>  Mask
IVisitor ..>  Logarlec
IVisitor ..>  Sponge


Student ..> ItemVisitor
Student ..> Items


class Teacher extends Player{}
class Student extends Player{}



interface IItemHolder {
    + maxItem: int
    + addItemy(item: Item): void
    + removeItem(item: Item): void
}

enum ERoomState {
  OPENED
  CLOSED
  POISONED
}


@enduml

PlantUML version 1.2022.7(Mon Aug 22 18:01:30 GMT+01:00 2022)
(GPL source distribution)
Java Runtime: Java(TM) SE Runtime Environment
JVM: Java HotSpot(TM) 64-Bit Server VM
Default Encoding: Cp1252
Language: en
Country: US
--></g></svg>