<?xml version="1.0" encoding="UTF-8" standalone="no"?><svg xmlns="http://www.w3.org/2000/svg" xmlns:xlink="http://www.w3.org/1999/xlink" contentStyleType="text/css" height="309px" preserveAspectRatio="none" style="width:261px;height:309px;background:#FFFFFF;" version="1.1" viewBox="0 0 261 309" width="261px" zoomAndPan="magnify"><defs/><g><rect fill="none" height="26.7999" id="_title" style="stroke:none;stroke-width:1.0;" width="104" x="77.5" y="10"/><text fill="#000000" font-family="sans-serif" font-size="14" font-weight="bold" lengthAdjust="spacing" textLength="94" x="82.5" y="28.0059">T치rgyeldob치s</text><rect fill="#FFFFFF" height="59.2" style="stroke:#181818;stroke-width:1.0;" width="10" x="140" y="151.1999"/><line style="stroke:#181818;stroke-width:0.5;stroke-dasharray:5.0,5.0;" x1="39" x2="39" y1="119.5999" y2="228.3999"/><line style="stroke:#181818;stroke-width:0.5;stroke-dasharray:5.0,5.0;" x1="145" x2="145" y1="119.5999" y2="228.3999"/><line style="stroke:#181818;stroke-width:0.5;stroke-dasharray:5.0,5.0;" x1="229" x2="229" y1="119.5999" y2="228.3999"/><text fill="#000000" font-family="sans-serif" font-size="14" lengthAdjust="spacing" textLength="62" x="5" y="115.8059">Controller</text><ellipse cx="39" cy="51.2999" fill="#E2E2F0" rx="8" ry="8" style="stroke:#181818;stroke-width:0.5;"/><path d="M39,59.2999 L39,86.2999 M26,67.2999 L52,67.2999 M39,86.2999 L26,101.2999 M39,86.2999 L52,101.2999 " fill="none" style="stroke:#181818;stroke-width:0.5;"/><text fill="#000000" font-family="sans-serif" font-size="14" lengthAdjust="spacing" textLength="62" x="5" y="240.4058">Controller</text><ellipse cx="39" cy="252.6998" fill="#E2E2F0" rx="8" ry="8" style="stroke:#181818;stroke-width:0.5;"/><path d="M39,260.6998 L39,287.6998 M26,268.6998 L52,268.6998 M39,287.6998 L26,302.6998 M39,287.6998 L52,302.6998 " fill="none" style="stroke:#181818;stroke-width:0.5;"/><rect fill="#E2E2F0" height="30.7999" rx="2.5" ry="2.5" style="stroke:#181818;stroke-width:0.5;" width="54" x="118" y="87.7999"/><text fill="#000000" font-family="sans-serif" font-size="14" lengthAdjust="spacing" textLength="40" x="125" y="107.8059">Player</text><rect fill="#E2E2F0" height="30.7999" rx="2.5" ry="2.5" style="stroke:#181818;stroke-width:0.5;" width="54" x="118" y="227.3999"/><text fill="#000000" font-family="sans-serif" font-size="14" lengthAdjust="spacing" textLength="40" x="125" y="247.4058">Player</text><rect fill="#E2E2F0" height="30.7999" rx="2.5" ry="2.5" style="stroke:#181818;stroke-width:0.5;" width="52" x="203" y="87.7999"/><text fill="#000000" font-family="sans-serif" font-size="14" lengthAdjust="spacing" textLength="38" x="210" y="107.8059">Room</text><rect fill="#E2E2F0" height="30.7999" rx="2.5" ry="2.5" style="stroke:#181818;stroke-width:0.5;" width="52" x="203" y="227.3999"/><text fill="#000000" font-family="sans-serif" font-size="14" lengthAdjust="spacing" textLength="38" x="210" y="247.4058">Room</text><rect fill="#FFFFFF" height="59.2" style="stroke:#181818;stroke-width:1.0;" width="10" x="140" y="151.1999"/><polygon fill="#181818" points="128,147.1999,138,151.1999,128,155.1999,132,151.1999" style="stroke:#181818;stroke-width:1.0;"/><line style="stroke:#181818;stroke-width:1.0;" x1="39" x2="134" y1="151.1999" y2="151.1999"/><text fill="#000000" font-family="sans-serif" font-size="13" lengthAdjust="spacing" textLength="58" x="46" y="145.6769">listItems()</text><polygon fill="#181818" points="128,176.7999,138,180.7999,128,184.7999,132,180.7999" style="stroke:#181818;stroke-width:1.0;"/><line style="stroke:#181818;stroke-width:1.0;" x1="39" x2="134" y1="180.7999" y2="180.7999"/><text fill="#000000" font-family="sans-serif" font-size="13" lengthAdjust="spacing" textLength="77" x="46" y="175.2769">removeItem()</text><polygon fill="#181818" points="217,206.3999,227,210.3999,217,214.3999,221,210.3999" style="stroke:#181818;stroke-width:1.0;"/><line style="stroke:#181818;stroke-width:1.0;" x1="145" x2="223" y1="210.3999" y2="210.3999"/><text fill="#000000" font-family="sans-serif" font-size="13" lengthAdjust="spacing" textLength="55" x="152" y="204.8769">addItem()</text><!--MD5=[7efe881568d39c40e5b8a83183169ec7]
@startuml
title T치rgyeldob치s

actor Controller as c


c -> Player : listItems()
Activate Player
c -> Player : removeItem()
Player -> Room : addItem()
Deactivate Player
@enduml

PlantUML version 1.2022.7(Mon Aug 22 19:01:30 CEST 2022)
(GPL source distribution)
Java Runtime: OpenJDK Runtime Environment
JVM: OpenJDK 64-Bit Server VM
Default Encoding: UTF-8
Language: en
Country: US
--></g></svg>