<?xml version="1.0" encoding="UTF-8" standalone="no"?><svg xmlns="http://www.w3.org/2000/svg" xmlns:xlink="http://www.w3.org/1999/xlink" contentStyleType="text/css" height="457px" preserveAspectRatio="none" style="width:632px;height:457px;background:#FFFFFF;" version="1.1" viewBox="0 0 632 457" width="632px" zoomAndPan="magnify"><defs/><g><rect fill="none" height="26.7999" id="_title" style="stroke:none;stroke-width:1.0;" width="158" x="236" y="10"/><text fill="#000000" font-family="sans-serif" font-size="14" font-weight="bold" lengthAdjust="spacing" textLength="148" x="241" y="28.0059">Student uses Sponge</text><rect fill="#FFFFFF" height="59.2" style="stroke:#181818;stroke-width:1.0;" width="10" x="418" y="299.1999"/><line style="stroke:#181818;stroke-width:0.5;stroke-dasharray:5.0,5.0;" x1="39" x2="39" y1="119.5999" y2="376.4"/><line style="stroke:#181818;stroke-width:0.5;stroke-dasharray:5.0,5.0;" x1="134.5" x2="134.5" y1="119.5999" y2="376.4"/><line style="stroke:#181818;stroke-width:0.5;stroke-dasharray:5.0,5.0;" x1="259" x2="259" y1="119.5999" y2="376.4"/><line style="stroke:#181818;stroke-width:0.5;stroke-dasharray:5.0,5.0;" x1="422.5" x2="422.5" y1="119.5999" y2="376.4"/><line style="stroke:#181818;stroke-width:0.5;stroke-dasharray:5.0,5.0;" x1="519" x2="519" y1="119.5999" y2="376.4"/><line style="stroke:#181818;stroke-width:0.5;stroke-dasharray:5.0,5.0;" x1="590" x2="590" y1="119.5999" y2="376.4"/><text fill="#000000" font-family="sans-serif" font-size="14" lengthAdjust="spacing" textLength="62" x="5" y="115.8059">Controller</text><ellipse cx="39" cy="51.2999" fill="#E2E2F0" rx="8" ry="8" style="stroke:#181818;stroke-width:0.5;"/><path d="M39,59.2999 L39,86.2999 M26,67.2999 L52,67.2999 M39,86.2999 L26,101.2999 M39,86.2999 L52,101.2999 " fill="none" style="stroke:#181818;stroke-width:0.5;"/><text fill="#000000" font-family="sans-serif" font-size="14" lengthAdjust="spacing" textLength="62" x="5" y="388.4059">Controller</text><ellipse cx="39" cy="400.6999" fill="#E2E2F0" rx="8" ry="8" style="stroke:#181818;stroke-width:0.5;"/><path d="M39,408.6999 L39,435.6999 M26,416.6999 L52,416.6999 M39,435.6999 L26,450.6999 M39,435.6999 L52,450.6999 " fill="none" style="stroke:#181818;stroke-width:0.5;"/><rect fill="#E2E2F0" height="30.7999" rx="2.5" ry="2.5" style="stroke:#181818;stroke-width:0.5;" width="63" x="103.5" y="87.7999"/><text fill="#000000" font-family="sans-serif" font-size="14" lengthAdjust="spacing" textLength="49" x="110.5" y="107.8059">Student</text><rect fill="#E2E2F0" height="30.7999" rx="2.5" ry="2.5" style="stroke:#181818;stroke-width:0.5;" width="63" x="103.5" y="375.4"/><text fill="#000000" font-family="sans-serif" font-size="14" lengthAdjust="spacing" textLength="49" x="110.5" y="395.4059">Student</text><rect fill="#E2E2F0" height="30.7999" style="stroke:#181818;stroke-width:0.5;" width="42" x="240" y="83.7999"/><rect fill="#E2E2F0" height="30.7999" style="stroke:#181818;stroke-width:0.5;" width="42" x="236" y="87.7999"/><text fill="#000000" font-family="sans-serif" font-size="14" lengthAdjust="spacing" textLength="28" x="243" y="107.8059">Item</text><rect fill="#E2E2F0" height="30.7999" style="stroke:#181818;stroke-width:0.5;" width="42" x="240" y="375.4"/><rect fill="#E2E2F0" height="30.7999" style="stroke:#181818;stroke-width:0.5;" width="42" x="236" y="379.4"/><text fill="#000000" font-family="sans-serif" font-size="14" lengthAdjust="spacing" textLength="28" x="243" y="399.4059">Item</text><rect fill="#E2E2F0" height="30.7999" rx="2.5" ry="2.5" style="stroke:#181818;stroke-width:0.5;" width="63" x="391.5" y="87.7999"/><text fill="#000000" font-family="sans-serif" font-size="14" lengthAdjust="spacing" textLength="49" x="398.5" y="107.8059">Sponge</text><rect fill="#E2E2F0" height="30.7999" rx="2.5" ry="2.5" style="stroke:#181818;stroke-width:0.5;" width="63" x="391.5" y="375.4"/><text fill="#000000" font-family="sans-serif" font-size="14" lengthAdjust="spacing" textLength="49" x="398.5" y="395.4059">Sponge</text><rect fill="#E2E2F0" height="30.7999" rx="2.5" ry="2.5" style="stroke:#181818;stroke-width:0.5;" width="52" x="493" y="87.7999"/><text fill="#000000" font-family="sans-serif" font-size="14" lengthAdjust="spacing" textLength="38" x="500" y="107.8059">Room</text><rect fill="#E2E2F0" height="30.7999" rx="2.5" ry="2.5" style="stroke:#181818;stroke-width:0.5;" width="52" x="493" y="375.4"/><text fill="#000000" font-family="sans-serif" font-size="14" lengthAdjust="spacing" textLength="38" x="500" y="395.4059">Room</text><rect fill="#E2E2F0" height="30.7999" style="stroke:#181818;stroke-width:0.5;" width="67" x="559" y="83.7999"/><rect fill="#E2E2F0" height="30.7999" style="stroke:#181818;stroke-width:0.5;" width="67" x="555" y="87.7999"/><text fill="#000000" font-family="sans-serif" font-size="14" lengthAdjust="spacing" textLength="53" x="562" y="107.8059">Teacher</text><rect fill="#E2E2F0" height="30.7999" style="stroke:#181818;stroke-width:0.5;" width="67" x="559" y="375.4"/><rect fill="#E2E2F0" height="30.7999" style="stroke:#181818;stroke-width:0.5;" width="67" x="555" y="379.4"/><text fill="#000000" font-family="sans-serif" font-size="14" lengthAdjust="spacing" textLength="53" x="562" y="399.4059">Teacher</text><rect fill="#FFFFFF" height="59.2" style="stroke:#181818;stroke-width:1.0;" width="10" x="418" y="299.1999"/><polygon fill="#181818" points="123,147.1999,133,151.1999,123,155.1999,127,151.1999" style="stroke:#181818;stroke-width:1.0;"/><line style="stroke:#181818;stroke-width:1.0;" x1="39" x2="129" y1="151.1999" y2="151.1999"/><text fill="#000000" font-family="sans-serif" font-size="13" lengthAdjust="spacing" textLength="58" x="46" y="145.6769">listItems()</text><polygon fill="#181818" points="50,176.7999,40,180.7999,50,184.7999,46,180.7999" style="stroke:#181818;stroke-width:1.0;"/><line style="stroke:#181818;stroke-width:1.0;stroke-dasharray:2.0,2.0;" x1="44" x2="134" y1="180.7999" y2="180.7999"/><text fill="#000000" font-family="sans-serif" font-size="13" lengthAdjust="spacing" textLength="32" x="56" y="175.2769">items</text><polygon fill="#181818" points="123,206.3999,133,210.3999,123,214.3999,127,210.3999" style="stroke:#181818;stroke-width:1.0;"/><line style="stroke:#181818;stroke-width:1.0;" x1="39" x2="129" y1="210.3999" y2="210.3999"/><text fill="#000000" font-family="sans-serif" font-size="13" lengthAdjust="spacing" textLength="72" x="46" y="204.8769">useItem(idx)</text><polygon fill="#181818" points="247,235.9999,257,239.9999,247,243.9999,251,239.9999" style="stroke:#181818;stroke-width:1.0;"/><line style="stroke:#181818;stroke-width:1.0;" x1="135" x2="253" y1="239.9999" y2="239.9999"/><text fill="#000000" font-family="sans-serif" font-size="13" lengthAdjust="spacing" textLength="100" x="142" y="234.4769">useItem(Student)</text><polygon fill="#181818" points="411,265.5999,421,269.5999,411,273.5999,415,269.5999" style="stroke:#181818;stroke-width:1.0;"/><line style="stroke:#181818;stroke-width:1.0;" x1="259" x2="417" y1="269.5999" y2="269.5999"/><text fill="#000000" font-family="sans-serif" font-size="13" lengthAdjust="spacing" textLength="140" x="266" y="264.0769">Student.accept(Sponge)</text><polygon fill="#181818" points="507,295.1999,517,299.1999,507,303.1999,511,299.1999" style="stroke:#181818;stroke-width:1.0;"/><line style="stroke:#181818;stroke-width:1.0;" x1="428" x2="513" y1="299.1999" y2="299.1999"/><text fill="#000000" font-family="sans-serif" font-size="13" lengthAdjust="spacing" textLength="72" x="435" y="293.6769">listTeacher()</text><polygon fill="#181818" points="439,324.7999,429,328.7999,439,332.7999,435,328.7999" style="stroke:#181818;stroke-width:1.0;"/><line style="stroke:#181818;stroke-width:1.0;stroke-dasharray:2.0,2.0;" x1="433" x2="518" y1="328.7999" y2="328.7999"/><text fill="#000000" font-family="sans-serif" font-size="13" lengthAdjust="spacing" textLength="50" x="445" y="323.2769">teachers</text><polygon fill="#181818" points="578.5,354.4,588.5,358.4,578.5,362.4,582.5,358.4" style="stroke:#181818;stroke-width:1.0;"/><line style="stroke:#181818;stroke-width:1.0;" x1="423" x2="584.5" y1="358.4" y2="358.4"/><text fill="#000000" font-family="sans-serif" font-size="13" lengthAdjust="spacing" textLength="130" x="430" y="352.877">setState(unconscious)</text><!--MD5=[9086a09b8944abc3c2f9ac4f8a346668]
@startuml
title Student uses Sponge

actor Controller as c order 1
collections Item as Item order 30
participant Student order 20
participant Sponge order 40
participant Room order 50
collections Teacher as t order 60

c -> Student : listItems()
Student - -> c : items
c -> Student : useItem(idx)
Student -> Item : useItem(Student)

Item -> Sponge : Student.accept(Sponge)
Sponge -> Room : listTeacher()
Activate Sponge
Room - -> Sponge : teachers
Sponge -> t : setState(unconscious) 
Deactivate Sponge

@enduml

PlantUML version 1.2022.7(Mon Aug 22 19:01:30 CEST 2022)
(GPL source distribution)
Java Runtime: OpenJDK Runtime Environment
JVM: OpenJDK 64-Bit Server VM
Default Encoding: UTF-8
Language: en
Country: US
--></g></svg>