<?xml version="1.0" encoding="UTF-8" standalone="no"?><svg xmlns="http://www.w3.org/2000/svg" xmlns:xlink="http://www.w3.org/1999/xlink" contentStyleType="text/css" height="560px" preserveAspectRatio="none" style="width:689px;height:560px;background:#FFFFFF;" version="1.1" viewBox="0 0 689 560" width="689px" zoomAndPan="magnify"><defs/><g><rect fill="none" height="26.7999" id="_title" style="stroke:none;stroke-width:1.0;" width="175" x="258" y="10"/><text fill="#000000" font-family="sans-serif" font-size="14" font-weight="bold" lengthAdjust="spacing" textLength="165" x="263" y="28.0059">Student uses Transistor</text><rect fill="#FFFFFF" height="229.3999" style="stroke:#181818;stroke-width:1.0;" width="10" x="437" y="239.9999"/><rect fill="none" height="177.7999" style="stroke:#000000;stroke-width:1.5;" width="289" x="393" y="284.5999"/><line style="stroke:#181818;stroke-width:0.5;stroke-dasharray:5.0,5.0;" x1="39" x2="39" y1="119.5999" y2="479.3998"/><line style="stroke:#181818;stroke-width:0.5;stroke-dasharray:5.0,5.0;" x1="134.5" x2="134.5" y1="119.5999" y2="479.3998"/><line style="stroke:#181818;stroke-width:0.5;stroke-dasharray:5.0,5.0;" x1="259" x2="259" y1="119.5999" y2="479.3998"/><line style="stroke:#181818;stroke-width:0.5;stroke-dasharray:5.0,5.0;" x1="442" x2="442" y1="119.5999" y2="479.3998"/><text fill="#000000" font-family="sans-serif" font-size="14" lengthAdjust="spacing" textLength="62" x="5" y="115.8059">Controller</text><ellipse cx="39" cy="51.2999" fill="#E2E2F0" rx="8" ry="8" style="stroke:#181818;stroke-width:0.5;"/><path d="M39,59.2999 L39,86.2999 M26,67.2999 L52,67.2999 M39,86.2999 L26,101.2999 M39,86.2999 L52,101.2999 " fill="none" style="stroke:#181818;stroke-width:0.5;"/><text fill="#000000" font-family="sans-serif" font-size="14" lengthAdjust="spacing" textLength="62" x="5" y="491.4057">Controller</text><ellipse cx="39" cy="503.6997" fill="#E2E2F0" rx="8" ry="8" style="stroke:#181818;stroke-width:0.5;"/><path d="M39,511.6997 L39,538.6997 M26,519.6997 L52,519.6997 M39,538.6997 L26,553.6997 M39,538.6997 L52,553.6997 " fill="none" style="stroke:#181818;stroke-width:0.5;"/><rect fill="#E2E2F0" height="30.7999" rx="2.5" ry="2.5" style="stroke:#181818;stroke-width:0.5;" width="63" x="103.5" y="87.7999"/><text fill="#000000" font-family="sans-serif" font-size="14" lengthAdjust="spacing" textLength="49" x="110.5" y="107.8059">Student</text><rect fill="#E2E2F0" height="30.7999" rx="2.5" ry="2.5" style="stroke:#181818;stroke-width:0.5;" width="63" x="103.5" y="478.3998"/><text fill="#000000" font-family="sans-serif" font-size="14" lengthAdjust="spacing" textLength="49" x="110.5" y="498.4057">Student</text><rect fill="#E2E2F0" height="30.7999" style="stroke:#181818;stroke-width:0.5;" width="42" x="240" y="83.7999"/><rect fill="#E2E2F0" height="30.7999" style="stroke:#181818;stroke-width:0.5;" width="42" x="236" y="87.7999"/><text fill="#000000" font-family="sans-serif" font-size="14" lengthAdjust="spacing" textLength="28" x="243" y="107.8059">Item</text><rect fill="#E2E2F0" height="30.7999" style="stroke:#181818;stroke-width:0.5;" width="42" x="240" y="478.3998"/><rect fill="#E2E2F0" height="30.7999" style="stroke:#181818;stroke-width:0.5;" width="42" x="236" y="482.3998"/><text fill="#000000" font-family="sans-serif" font-size="14" lengthAdjust="spacing" textLength="28" x="243" y="502.4057">Item</text><rect fill="#E2E2F0" height="30.7999" rx="2.5" ry="2.5" style="stroke:#181818;stroke-width:0.5;" width="78" x="403" y="87.7999"/><text fill="#000000" font-family="sans-serif" font-size="14" lengthAdjust="spacing" textLength="64" x="410" y="107.8059">Transistor</text><rect fill="#E2E2F0" height="30.7999" rx="2.5" ry="2.5" style="stroke:#181818;stroke-width:0.5;" width="78" x="403" y="478.3998"/><text fill="#000000" font-family="sans-serif" font-size="14" lengthAdjust="spacing" textLength="64" x="410" y="498.4057">Transistor</text><rect fill="#FFFFFF" height="229.3999" style="stroke:#181818;stroke-width:1.0;" width="10" x="437" y="239.9999"/><polygon fill="#181818" points="123,147.1999,133,151.1999,123,155.1999,127,151.1999" style="stroke:#181818;stroke-width:1.0;"/><line style="stroke:#181818;stroke-width:1.0;" x1="39" x2="129" y1="151.1999" y2="151.1999"/><text fill="#000000" font-family="sans-serif" font-size="13" lengthAdjust="spacing" textLength="58" x="46" y="145.6769">listItems()</text><polygon fill="#181818" points="50,176.7999,40,180.7999,50,184.7999,46,180.7999" style="stroke:#181818;stroke-width:1.0;"/><line style="stroke:#181818;stroke-width:1.0;stroke-dasharray:2.0,2.0;" x1="44" x2="134" y1="180.7999" y2="180.7999"/><text fill="#000000" font-family="sans-serif" font-size="13" lengthAdjust="spacing" textLength="32" x="56" y="175.2769">items</text><polygon fill="#181818" points="123,206.3999,133,210.3999,123,214.3999,127,210.3999" style="stroke:#181818;stroke-width:1.0;"/><line style="stroke:#181818;stroke-width:1.0;" x1="39" x2="129" y1="210.3999" y2="210.3999"/><text fill="#000000" font-family="sans-serif" font-size="13" lengthAdjust="spacing" textLength="72" x="46" y="204.8769">useItem(idx)</text><polygon fill="#181818" points="247,235.9999,257,239.9999,247,243.9999,251,239.9999" style="stroke:#181818;stroke-width:1.0;"/><line style="stroke:#181818;stroke-width:1.0;" x1="135" x2="253" y1="239.9999" y2="239.9999"/><text fill="#000000" font-family="sans-serif" font-size="13" lengthAdjust="spacing" textLength="100" x="142" y="234.4769">useItem(Student)</text><polygon fill="#181818" points="425,265.5999,435,269.5999,425,273.5999,429,269.5999" style="stroke:#181818;stroke-width:1.0;"/><line style="stroke:#181818;stroke-width:1.0;" x1="259" x2="431" y1="269.5999" y2="269.5999"/><text fill="#000000" font-family="sans-serif" font-size="13" lengthAdjust="spacing" textLength="154" x="266" y="264.0769">Student.accept(Transistor)</text><path d="M393,284.5999 L453,284.5999 L453,292.1999 L443,302.1999 L393,302.1999 L393,284.5999 " fill="#EEEEEE" style="stroke:#000000;stroke-width:1.5;"/><rect fill="none" height="177.7999" style="stroke:#000000;stroke-width:1.5;" width="289" x="393" y="284.5999"/><text fill="#000000" font-family="sans-serif" font-size="13" font-weight="bold" lengthAdjust="spacing" textLength="15" x="408" y="297.6769">alt</text><text fill="#000000" font-family="sans-serif" font-size="11" font-weight="bold" lengthAdjust="spacing" textLength="209" x="468" y="296.8188">[Student has another Transistor, pair it]</text><line style="stroke:#181818;stroke-width:1.0;" x1="447" x2="489" y1="323.7999" y2="323.7999"/><line style="stroke:#181818;stroke-width:1.0;" x1="489" x2="489" y1="323.7999" y2="336.7999"/><line style="stroke:#181818;stroke-width:1.0;" x1="448" x2="489" y1="336.7999" y2="336.7999"/><polygon fill="#181818" points="458,332.7999,448,336.7999,458,340.7999,454,336.7999" style="stroke:#181818;stroke-width:1.0;"/><text fill="#000000" font-family="sans-serif" font-size="13" lengthAdjust="spacing" textLength="29" x="454" y="318.2769">pair()</text><line style="stroke:#000000;stroke-width:1.0;stroke-dasharray:2.0,2.0;" x1="393" x2="682" y1="345.7999" y2="345.7999"/><text fill="#000000" font-family="sans-serif" font-size="11" font-weight="bold" lengthAdjust="spacing" textLength="134" x="398" y="356.0189">[Pair is set, drop in room]</text><line style="stroke:#181818;stroke-width:1.0;" x1="447" x2="489" y1="381.5999" y2="381.5999"/><line style="stroke:#181818;stroke-width:1.0;" x1="489" x2="489" y1="381.5999" y2="394.5999"/><line style="stroke:#181818;stroke-width:1.0;" x1="448" x2="489" y1="394.5999" y2="394.5999"/><polygon fill="#181818" points="458,390.5999,448,394.5999,458,398.5999,454,394.5999" style="stroke:#181818;stroke-width:1.0;"/><text fill="#000000" font-family="sans-serif" font-size="13" lengthAdjust="spacing" textLength="60" x="454" y="376.0769">setRoom()</text><line style="stroke:#000000;stroke-width:1.0;stroke-dasharray:2.0,2.0;" x1="393" x2="682" y1="403.5999" y2="403.5999"/><text fill="#000000" font-family="sans-serif" font-size="11" font-weight="bold" lengthAdjust="spacing" textLength="188" x="398" y="413.8188">[Teleport Student to pair, clear pair]</text><line style="stroke:#181818;stroke-width:1.0;" x1="447" x2="489" y1="439.3998" y2="439.3998"/><line style="stroke:#181818;stroke-width:1.0;" x1="489" x2="489" y1="439.3998" y2="452.3998"/><line style="stroke:#181818;stroke-width:1.0;" x1="448" x2="489" y1="452.3998" y2="452.3998"/><polygon fill="#181818" points="458,448.3998,448,452.3998,458,456.3998,454,452.3998" style="stroke:#181818;stroke-width:1.0;"/><text fill="#000000" font-family="sans-serif" font-size="13" lengthAdjust="spacing" textLength="141" x="454" y="433.8768">teleportStudent(Student)</text><line style="stroke:#000000;stroke-width:1.0;stroke-dasharray:2.0,2.0;" x1="393" x2="682" y1="461.3998" y2="461.3998"/><!--MD5=[18674db744fcf05d75e1e411f9cecd9b]
@startuml
title Student uses Transistor

actor Controller as c order 1
collections Item as Item order 30
participant Student order 20
participant Transistor order 40

c -> Student : listItems()
Student - -> c : items
c -> Student : useItem(idx)
Student -> Item : useItem(Student)

Activate Transistor
Item -> Transistor : Student.accept(Transistor)
alt Student has another Transistor, pair it
Transistor -> Transistor : pair()
else Pair is set, drop in room
Transistor -> Transistor : setRoom()
else Teleport Student to pair, clear pair
Transistor -> Transistor : teleportStudent(Student)
else
end

Deactivate Transistor

@enduml

PlantUML version 1.2022.7(Mon Aug 22 19:01:30 CEST 2022)
(GPL source distribution)
Java Runtime: OpenJDK Runtime Environment
JVM: OpenJDK 64-Bit Server VM
Default Encoding: UTF-8
Language: en
Country: US
--></g></svg>