<?xml version="1.0" encoding="UTF-8" standalone="no"?><svg xmlns="http://www.w3.org/2000/svg" xmlns:xlink="http://www.w3.org/1999/xlink" contentStyleType="text/css" height="1015px" preserveAspectRatio="none" style="width:1087px;height:1015px;background:#FFFFFF;" version="1.1" viewBox="0 0 1087 1015" width="1087px" zoomAndPan="magnify"><defs/><g><!--MD5=[1bfdc1f3f254e89d48b920601f79dbc4]
class Labyrinth--><g id="elem_Labyrinth"><rect codeLine="2" fill="#F1F1F1" height="48" id="Labyrinth" rx="2.5" ry="2.5" style="stroke:#181818;stroke-width:0.5;" width="91" x="344.5" y="23.8"/><ellipse cx="359.5" cy="39.8" fill="#ADD1B2" rx="11" ry="11" style="stroke:#181818;stroke-width:1.0;"/><path d="M354.5,40.9562 C354.5,43.4562 356.6406,45.2687 359.5625,45.2687 C360.7969,45.2687 361.9688,44.9719 362.7188,44.4562 C363.3281,44.0344 363.6563,43.6125 363.6563,43.2062 C363.6563,42.7375 363.2344,42.3312 362.7344,42.3312 C362.5,42.3312 362.2813,42.4094 362.0781,42.6125 C361.6406,43.05 361.6406,43.05 361.4688,43.1437 C361.0156,43.3781 360.375,43.5187 359.6094,43.5187 C357.6094,43.5187 356.3281,42.5031 356.3281,40.925 L356.3281,39.8781 C356.3281,38.175 357.5469,36.9719 359.25,36.9719 C359.8281,36.9719 360.4063,37.1125 360.875,37.3625 C361.3438,37.6281 361.5156,37.8156 361.5781,38.175 C361.7031,38.8469 361.9531,39.0969 362.4844,39.0969 C362.7656,39.0969 363.0469,38.9562 363.2344,38.7375 C363.3594,38.5656 363.4063,38.3937 363.4063,37.9562 L363.4063,36.5969 C363.4063,36.175 363.3906,36.0344 363.2656,35.8625 C363.0938,35.6125 362.8125,35.4562 362.4844,35.4562 C362.1719,35.4562 361.9688,35.5656 361.75,35.8312 C360.5781,35.3312 360.1406,35.2219 359.1875,35.2219 C356.5156,35.2219 354.5,37.2375 354.5,39.8625 L354.5,40.9562 Z " fill="#000000"/><text fill="#000000" font-family="sans-serif" font-size="14" lengthAdjust="spacing" textLength="59" x="373.5" y="44.406">Labyrinth</text><line style="stroke:#181818;stroke-width:0.5;" x1="345.5" x2="434.5" y1="55.8" y2="55.8"/><line style="stroke:#181818;stroke-width:0.5;" x1="345.5" x2="434.5" y1="63.8" y2="63.8"/></g><!--MD5=[d218c48b946d362ff1ecd879cabebcad]
class Room--><g id="elem_Room"><rect codeLine="6" fill="#F1F1F1" height="283.199" id="Room" rx="2.5" ry="2.5" style="stroke:#181818;stroke-width:0.5;" width="280" x="324" y="188.8"/><ellipse cx="440.75" cy="204.8" fill="#ADD1B2" rx="11" ry="11" style="stroke:#181818;stroke-width:1.0;"/><path d="M435.75,205.9562 C435.75,208.4562 437.8906,210.2687 440.8125,210.2687 C442.0469,210.2687 443.2188,209.9719 443.9688,209.4562 C444.5781,209.0344 444.9063,208.6125 444.9063,208.2062 C444.9063,207.7375 444.4844,207.3312 443.9844,207.3312 C443.75,207.3312 443.5313,207.4094 443.3281,207.6125 C442.8906,208.05 442.8906,208.05 442.7188,208.1437 C442.2656,208.3781 441.625,208.5187 440.8594,208.5187 C438.8594,208.5187 437.5781,207.5031 437.5781,205.925 L437.5781,204.8781 C437.5781,203.175 438.7969,201.9719 440.5,201.9719 C441.0781,201.9719 441.6563,202.1125 442.125,202.3625 C442.5938,202.6281 442.7656,202.8156 442.8281,203.175 C442.9531,203.8469 443.2031,204.0969 443.7344,204.0969 C444.0156,204.0969 444.2969,203.9562 444.4844,203.7375 C444.6094,203.5656 444.6563,203.3937 444.6563,202.9562 L444.6563,201.5969 C444.6563,201.175 444.6406,201.0344 444.5156,200.8625 C444.3438,200.6125 444.0625,200.4562 443.7344,200.4562 C443.4219,200.4562 443.2188,200.5656 443,200.8312 C441.8281,200.3312 441.3906,200.2219 440.4375,200.2219 C437.7656,200.2219 435.75,202.2375 435.75,204.8625 L435.75,205.9562 Z " fill="#000000"/><text fill="#000000" font-family="sans-serif" font-size="14" lengthAdjust="spacing" textLength="38" x="461.25" y="209.406">Room</text><line style="stroke:#181818;stroke-width:0.5;" x1="325" x2="603" y1="220.8" y2="220.8"/><ellipse cx="335" cy="234.7" fill="none" rx="3" ry="3" style="stroke:#038048;stroke-width:1.0;"/><text fill="#000000" font-family="sans-serif" font-size="14" lengthAdjust="spacing" textLength="90" x="344" y="237.8059">maxPlayer: int</text><line style="stroke:#181818;stroke-width:0.5;" x1="325" x2="603" y1="245.5999" y2="245.5999"/><ellipse cx="335" cy="259.4999" fill="#84BE84" rx="3" ry="3" style="stroke:#038048;stroke-width:1.0;"/><text fill="#000000" font-family="sans-serif" font-size="14" lengthAdjust="spacing" textLength="157" x="344" y="262.6059">getNeighbours(): Room[]</text><ellipse cx="335" cy="276.2998" fill="#84BE84" rx="3" ry="3" style="stroke:#038048;stroke-width:1.0;"/><text fill="#000000" font-family="sans-serif" font-size="14" lengthAdjust="spacing" textLength="221" x="344" y="279.4058">addStudent(student: Student): void</text><ellipse cx="335" cy="293.0997" fill="#84BE84" rx="3" ry="3" style="stroke:#038048;stroke-width:1.0;"/><text fill="#000000" font-family="sans-serif" font-size="14" lengthAdjust="spacing" textLength="245" x="344" y="296.2057">removeStudent(student: Student): void</text><ellipse cx="335" cy="309.8997" fill="#84BE84" rx="3" ry="3" style="stroke:#038048;stroke-width:1.0;"/><text fill="#000000" font-family="sans-serif" font-size="14" lengthAdjust="spacing" textLength="230" x="344" y="313.0057">addTeacher(teacher: Teacher): void</text><ellipse cx="335" cy="326.6996" fill="#84BE84" rx="3" ry="3" style="stroke:#038048;stroke-width:1.0;"/><text fill="#000000" font-family="sans-serif" font-size="14" lengthAdjust="spacing" textLength="254" x="344" y="329.8056">removeTeacher(teacher: Teacher): void</text><ellipse cx="335" cy="343.4995" fill="#84BE84" rx="3" ry="3" style="stroke:#038048;stroke-width:1.0;"/><text fill="#000000" font-family="sans-serif" font-size="14" lengthAdjust="spacing" textLength="213" x="344" y="346.6055">addNeighbour(room: Room): void</text><ellipse cx="335" cy="360.2995" fill="#84BE84" rx="3" ry="3" style="stroke:#038048;stroke-width:1.0;"/><text fill="#000000" font-family="sans-serif" font-size="14" lengthAdjust="spacing" textLength="237" x="344" y="363.4054">removeNeighbour(room: Room): void</text><ellipse cx="335" cy="377.0994" fill="#84BE84" rx="3" ry="3" style="stroke:#038048;stroke-width:1.0;"/><text fill="#000000" font-family="sans-serif" font-size="14" lengthAdjust="spacing" textLength="164" x="344" y="380.2054">merge(room: Room): void</text><ellipse cx="335" cy="393.8993" fill="#84BE84" rx="3" ry="3" style="stroke:#038048;stroke-width:1.0;"/><text fill="#000000" font-family="sans-serif" font-size="14" lengthAdjust="spacing" textLength="81" x="344" y="397.0053">split(): Room</text><ellipse cx="335" cy="410.6992" fill="#84BE84" rx="3" ry="3" style="stroke:#038048;stroke-width:1.0;"/><text fill="#000000" font-family="sans-serif" font-size="14" lengthAdjust="spacing" textLength="102" x="344" y="413.8052">isFull(): boolean</text><text fill="#000000" font-family="sans-serif" font-size="14" lengthAdjust="spacing" textLength="4" x="344" y="430.6051"> </text><ellipse cx="335" cy="444.2991" fill="#84BE84" rx="3" ry="3" style="stroke:#038048;stroke-width:1.0;"/><text fill="#000000" font-family="sans-serif" font-size="14" lengthAdjust="spacing" textLength="134" x="344" y="447.4051">notifyStudents(): void</text><ellipse cx="335" cy="461.099" fill="#84BE84" rx="3" ry="3" style="stroke:#038048;stroke-width:1.0;"/><text fill="#000000" font-family="sans-serif" font-size="14" lengthAdjust="spacing" textLength="138" x="344" y="464.205">notifyTeachers(): void</text></g><!--MD5=[fa1ef67668cfde76bbd6c36ac5cb3dd1]
class IItemHolder--><g id="elem_IItemHolder"><rect codeLine="57" fill="#F1F1F1" height="81.5999" id="IItemHolder" rx="2.5" ry="2.5" style="stroke:#181818;stroke-width:0.5;" width="210" x="759" y="7"/><ellipse cx="822.75" cy="23" fill="#B4A7E5" rx="11" ry="11" style="stroke:#181818;stroke-width:1.0;"/><path d="M823.7656,20.1563 L825.4219,20.1563 C825.8125,20.1563 826.0156,20.125 826.1719,20.0469 C826.4375,19.875 826.6094,19.5781 826.6094,19.2813 C826.6094,19 826.4688,18.75 826.2344,18.5781 C826.0469,18.4531 825.8906,18.4063 825.4219,18.4063 L820.2813,18.4063 C819.8438,18.4063 819.7031,18.4219 819.5313,18.5313 C819.2656,18.7031 819.0938,18.9844 819.0938,19.2813 C819.0938,19.5625 819.2344,19.8438 819.4688,20 C819.6563,20.125 819.8438,20.1563 820.2813,20.1563 L821.9375,20.1563 L821.9375,26.25 L820.2813,26.25 C819.8438,26.25 819.7031,26.2656 819.5313,26.375 C819.2656,26.5313 819.0938,26.8281 819.0938,27.1094 C819.0938,27.7188 819.5,28 820.2813,28 L825.4219,28 C826.2031,28 826.6094,27.7188 826.6094,27.1094 C826.6094,26.8438 826.4688,26.5938 826.2344,26.4219 C826.0469,26.2813 825.875,26.25 825.4219,26.25 L823.7656,26.25 L823.7656,20.1563 Z " fill="#000000"/><text fill="#000000" font-family="sans-serif" font-size="14" font-style="italic" lengthAdjust="spacing" textLength="74" x="843.25" y="28.95">IItemHolder</text><line style="stroke:#181818;stroke-width:0.5;" x1="760" x2="968" y1="39" y2="39"/><line style="stroke:#181818;stroke-width:0.5;" x1="760" x2="968" y1="47" y2="47"/><ellipse cx="770" cy="60.9" fill="#84BE84" rx="3" ry="3" style="stroke:#038048;stroke-width:1.0;"/><text fill="#000000" font-family="sans-serif" font-size="14" lengthAdjust="spacing" textLength="167" x="779" y="64.0059">addItemy(Item: Item): void</text><ellipse cx="770" cy="77.6999" fill="#84BE84" rx="3" ry="3" style="stroke:#038048;stroke-width:1.0;"/><text fill="#000000" font-family="sans-serif" font-size="14" lengthAdjust="spacing" textLength="184" x="779" y="80.8059">removeItem(Item: Item): void</text></g><!--MD5=[4143ea605c72c11fa9abe0fb2eb5ba3c]
class IItemTarget--><g id="elem_IItemTarget"><rect codeLine="42" fill="#F1F1F1" height="64.7999" id="IItemTarget" rx="2.5" ry="2.5" style="stroke:#181818;stroke-width:0.5;" width="230" x="494" y="15.4"/><ellipse cx="567.75" cy="31.4" fill="#B4A7E5" rx="11" ry="11" style="stroke:#181818;stroke-width:1.0;"/><path d="M568.7656,28.5562 L570.4219,28.5562 C570.8125,28.5562 571.0156,28.525 571.1719,28.4469 C571.4375,28.275 571.6094,27.9781 571.6094,27.6812 C571.6094,27.4 571.4688,27.15 571.2344,26.9781 C571.0469,26.8531 570.8906,26.8062 570.4219,26.8062 L565.2813,26.8062 C564.8438,26.8062 564.7031,26.8219 564.5313,26.9312 C564.2656,27.1031 564.0938,27.3844 564.0938,27.6812 C564.0938,27.9625 564.2344,28.2437 564.4688,28.4 C564.6563,28.525 564.8438,28.5562 565.2813,28.5562 L566.9375,28.5562 L566.9375,34.65 L565.2813,34.65 C564.8438,34.65 564.7031,34.6656 564.5313,34.775 C564.2656,34.9312 564.0938,35.2281 564.0938,35.5094 C564.0938,36.1187 564.5,36.4 565.2813,36.4 L570.4219,36.4 C571.2031,36.4 571.6094,36.1187 571.6094,35.5094 C571.6094,35.2437 571.4688,34.9937 571.2344,34.8219 C571.0469,34.6812 570.875,34.65 570.4219,34.65 L568.7656,34.65 L568.7656,28.5562 Z " fill="#000000"/><text fill="#000000" font-family="sans-serif" font-size="14" font-style="italic" lengthAdjust="spacing" textLength="74" x="588.25" y="37.35">IItemTarget</text><line style="stroke:#181818;stroke-width:0.5;" x1="495" x2="723" y1="47.4" y2="47.4"/><line style="stroke:#181818;stroke-width:0.5;" x1="495" x2="723" y1="55.4" y2="55.4"/><ellipse cx="505" cy="69.3" fill="#84BE84" rx="3" ry="3" style="stroke:#038048;stroke-width:1.0;"/><text fill="#000000" font-family="sans-serif" font-size="14" lengthAdjust="spacing" textLength="204" x="514" y="72.4059">accept(v: IVisitor, t: EuseTarget)</text></g><!--MD5=[2cb47ba637a0d19583e6199456f6ad0b]
class Player--><g id="elem_Player"><rect codeLine="25" fill="#F1F1F1" height="81.5999" id="Player" rx="2.5" ry="2.5" style="stroke:#181818;stroke-width:0.5;" width="143" x="792.5" y="289.8"/><ellipse cx="839.75" cy="305.8" fill="#A9DCDF" rx="11" ry="11" style="stroke:#181818;stroke-width:1.0;"/><path d="M841.2813,307.7375 L841.6094,308.5344 L841.3281,308.5344 C840.875,308.5344 840.75,308.5656 840.5781,308.675 C840.2969,308.8156 840.125,309.1125 840.125,309.4094 C840.125,309.7062 840.2656,309.9562 840.5,310.1281 C840.6719,310.2531 840.9063,310.3 841.3281,310.3 L843.6875,310.3 C844.0469,310.3 844.2969,310.2687 844.4375,310.175 C844.7031,310.0344 844.875,309.7219 844.875,309.4094 C844.875,309.1437 844.7344,308.8781 844.5,308.7062 C844.3125,308.5812 844.1563,308.55 843.7031,308.5344 L840.3125,300.7062 L836.5938,300.7062 C836.1406,300.7062 836,300.7219 835.8281,300.8312 C835.5625,301.0031 835.3906,301.2844 835.3906,301.5812 C835.3906,301.8625 835.5313,302.1281 835.7813,302.3 C835.9531,302.425 836.1406,302.4562 836.5938,302.4562 L837.5625,302.4562 L834.9844,308.5344 C834.2344,308.5344 833.8281,308.8312 833.8281,309.4094 C833.8281,310.0187 834.2188,310.3 835.0156,310.3 L837.2813,310.3 C837.6406,310.3 837.8906,310.2687 838.0313,310.175 C838.2969,310.0187 838.4688,309.7219 838.4688,309.4094 C838.4688,309.1437 838.3281,308.8781 838.0938,308.7062 C837.9063,308.5656 837.75,308.5344 837.2813,308.5344 L836.9844,308.5344 L837.3281,307.7375 L841.2813,307.7375 Z M840.5156,305.9875 L838.0625,305.9875 L839.2969,303.1125 L840.5156,305.9875 Z " fill="#000000"/><text fill="#000000" font-family="sans-serif" font-size="14" font-style="italic" lengthAdjust="spacing" textLength="40" x="860.25" y="311.75">Player</text><line style="stroke:#181818;stroke-width:0.5;" x1="793.5" x2="934.5" y1="321.8" y2="321.8"/><ellipse cx="803.5" cy="335.7" fill="none" rx="3" ry="3" style="stroke:#038048;stroke-width:1.0;"/><text fill="#000000" font-family="sans-serif" font-size="14" lengthAdjust="spacing" textLength="79" x="812.5" y="338.8059">room: Room</text><line style="stroke:#181818;stroke-width:0.5;" x1="793.5" x2="934.5" y1="346.5999" y2="346.5999"/><ellipse cx="803.5" cy="360.4999" fill="#84BE84" rx="3" ry="3" style="stroke:#038048;stroke-width:1.0;"/><text fill="#000000" font-family="sans-serif" font-size="14" lengthAdjust="spacing" textLength="117" x="812.5" y="363.6059">move(Room): void</text></g><!--MD5=[86b19e389e6533d37437225d9ce7df37]
class IVisitor--><g id="elem_IVisitor"><rect codeLine="30" fill="#F1F1F1" height="98.3998" id="IVisitor" rx="2.5" ry="2.5" style="stroke:#181818;stroke-width:0.5;" width="268" x="381" y="767.8"/><ellipse cx="489.25" cy="783.8" fill="#B4A7E5" rx="11" ry="11" style="stroke:#181818;stroke-width:1.0;"/><path d="M490.2656,780.9563 L491.9219,780.9563 C492.3125,780.9563 492.5156,780.925 492.6719,780.8469 C492.9375,780.675 493.1094,780.3781 493.1094,780.0813 C493.1094,779.8 492.9688,779.55 492.7344,779.3781 C492.5469,779.2531 492.3906,779.2063 491.9219,779.2063 L486.7813,779.2063 C486.3438,779.2063 486.2031,779.2219 486.0313,779.3313 C485.7656,779.5031 485.5938,779.7844 485.5938,780.0813 C485.5938,780.3625 485.7344,780.6438 485.9688,780.8 C486.1563,780.925 486.3438,780.9563 486.7813,780.9563 L488.4375,780.9563 L488.4375,787.05 L486.7813,787.05 C486.3438,787.05 486.2031,787.0656 486.0313,787.175 C485.7656,787.3313 485.5938,787.6281 485.5938,787.9094 C485.5938,788.5188 486,788.8 486.7813,788.8 L491.9219,788.8 C492.7031,788.8 493.1094,788.5188 493.1094,787.9094 C493.1094,787.6438 492.9688,787.3938 492.7344,787.2219 C492.5469,787.0813 492.375,787.05 491.9219,787.05 L490.2656,787.05 L490.2656,780.9563 Z " fill="#000000"/><text fill="#000000" font-family="sans-serif" font-size="14" font-style="italic" lengthAdjust="spacing" textLength="43" x="509.75" y="789.75">IVisitor</text><line style="stroke:#181818;stroke-width:0.5;" x1="382" x2="648" y1="799.8" y2="799.8"/><line style="stroke:#181818;stroke-width:0.5;" x1="382" x2="648" y1="807.8" y2="807.8"/><text fill="#000000" font-family="sans-serif" font-size="14" lengthAdjust="spacing" textLength="226" x="387" y="824.8059">visitRoom(Room, EuseTarget): void</text><text fill="#000000" font-family="sans-serif" font-size="14" lengthAdjust="spacing" textLength="248" x="387" y="841.6059">visitStudent(Student, EuseTarget): void</text><text fill="#000000" font-family="sans-serif" font-size="14" lengthAdjust="spacing" textLength="256" x="387" y="858.4058">visitTeacher(Teacher, EuseTarget): void</text></g><!--MD5=[44a1b4afaef76c16e6c9ec4990ad0c8d]
class Item--><g id="elem_Item"><rect codeLine="36" fill="#F1F1F1" height="98.3998" id="Item" rx="2.5" ry="2.5" style="stroke:#181818;stroke-width:0.5;" width="327" x="589.5" y="588.8"/><ellipse cx="734.75" cy="604.8" fill="#A9DCDF" rx="11" ry="11" style="stroke:#181818;stroke-width:1.0;"/><path d="M736.2813,606.7375 L736.6094,607.5344 L736.3281,607.5344 C735.875,607.5344 735.75,607.5656 735.5781,607.675 C735.2969,607.8156 735.125,608.1125 735.125,608.4094 C735.125,608.7063 735.2656,608.9563 735.5,609.1281 C735.6719,609.2531 735.9063,609.3 736.3281,609.3 L738.6875,609.3 C739.0469,609.3 739.2969,609.2688 739.4375,609.175 C739.7031,609.0344 739.875,608.7219 739.875,608.4094 C739.875,608.1438 739.7344,607.8781 739.5,607.7063 C739.3125,607.5813 739.1563,607.55 738.7031,607.5344 L735.3125,599.7063 L731.5938,599.7063 C731.1406,599.7063 731,599.7219 730.8281,599.8313 C730.5625,600.0031 730.3906,600.2844 730.3906,600.5813 C730.3906,600.8625 730.5313,601.1281 730.7813,601.3 C730.9531,601.425 731.1406,601.4563 731.5938,601.4563 L732.5625,601.4563 L729.9844,607.5344 C729.2344,607.5344 728.8281,607.8313 728.8281,608.4094 C728.8281,609.0188 729.2188,609.3 730.0156,609.3 L732.2813,609.3 C732.6406,609.3 732.8906,609.2688 733.0313,609.175 C733.2969,609.0188 733.4688,608.7219 733.4688,608.4094 C733.4688,608.1438 733.3281,607.8781 733.0938,607.7063 C732.9063,607.5656 732.75,607.5344 732.2813,607.5344 L731.9844,607.5344 L732.3281,606.7375 L736.2813,606.7375 Z M735.5156,604.9875 L733.0625,604.9875 L734.2969,602.1125 L735.5156,604.9875 Z " fill="#000000"/><text fill="#000000" font-family="sans-serif" font-size="14" font-style="italic" lengthAdjust="spacing" textLength="28" x="755.25" y="610.75">Item</text><line style="stroke:#181818;stroke-width:0.5;" x1="590.5" x2="915.5" y1="620.8" y2="620.8"/><rect fill="none" height="6" style="stroke:#C82930;stroke-width:1.0;" width="6" x="597.5" y="631.7"/><text fill="#000000" font-family="sans-serif" font-size="14" lengthAdjust="spacing" textLength="111" x="609.5" y="637.8059">itemV: ItemVisitor</text><line style="stroke:#181818;stroke-width:0.5;" x1="590.5" x2="915.5" y1="645.5999" y2="645.5999"/><ellipse cx="600.5" cy="659.4999" fill="#84BE84" rx="3" ry="3" style="stroke:#038048;stroke-width:1.0;"/><text fill="#000000" font-family="sans-serif" font-size="14" lengthAdjust="spacing" textLength="301" x="609.5" y="662.6059">useItem(EItem, IITemTarget, EuseTarget): void</text><ellipse cx="600.5" cy="676.2998" fill="#84BE84" rx="3" ry="3" style="stroke:#038048;stroke-width:1.0;"/><text fill="#000000" font-family="sans-serif" font-size="14" lengthAdjust="spacing" textLength="136" x="609.5" y="679.4058">isAvaliable(): boolean</text></g><!--MD5=[61a83f88cb8b7d3a80bc8c481f3736bf]
class Teacher--><g id="elem_Teacher"><rect codeLine="46" fill="#F1F1F1" height="48" id="Teacher" rx="2.5" ry="2.5" style="stroke:#181818;stroke-width:0.5;" width="85" x="421.5" y="613.8"/><ellipse cx="436.5" cy="629.8" fill="#ADD1B2" rx="11" ry="11" style="stroke:#181818;stroke-width:1.0;"/><path d="M431.5,630.9563 C431.5,633.4563 433.6406,635.2688 436.5625,635.2688 C437.7969,635.2688 438.9688,634.9719 439.7188,634.4563 C440.3281,634.0344 440.6563,633.6125 440.6563,633.2063 C440.6563,632.7375 440.2344,632.3313 439.7344,632.3313 C439.5,632.3313 439.2813,632.4094 439.0781,632.6125 C438.6406,633.05 438.6406,633.05 438.4688,633.1438 C438.0156,633.3781 437.375,633.5188 436.6094,633.5188 C434.6094,633.5188 433.3281,632.5031 433.3281,630.925 L433.3281,629.8781 C433.3281,628.175 434.5469,626.9719 436.25,626.9719 C436.8281,626.9719 437.4063,627.1125 437.875,627.3625 C438.3438,627.6281 438.5156,627.8156 438.5781,628.175 C438.7031,628.8469 438.9531,629.0969 439.4844,629.0969 C439.7656,629.0969 440.0469,628.9563 440.2344,628.7375 C440.3594,628.5656 440.4063,628.3938 440.4063,627.9563 L440.4063,626.5969 C440.4063,626.175 440.3906,626.0344 440.2656,625.8625 C440.0938,625.6125 439.8125,625.4563 439.4844,625.4563 C439.1719,625.4563 438.9688,625.5656 438.75,625.8313 C437.5781,625.3313 437.1406,625.2219 436.1875,625.2219 C433.5156,625.2219 431.5,627.2375 431.5,629.8625 L431.5,630.9563 Z " fill="#000000"/><text fill="#000000" font-family="sans-serif" font-size="14" lengthAdjust="spacing" textLength="53" x="450.5" y="634.406">Teacher</text><line style="stroke:#181818;stroke-width:0.5;" x1="422.5" x2="505.5" y1="645.8" y2="645.8"/><line style="stroke:#181818;stroke-width:0.5;" x1="422.5" x2="505.5" y1="653.8" y2="653.8"/></g><!--MD5=[d6181cb537bdc20c0a3007a98a56832d]
class Student--><g id="elem_Student"><rect codeLine="49" fill="#F1F1F1" height="48" id="Student" rx="2.5" ry="2.5" style="stroke:#181818;stroke-width:0.5;" width="81" x="999.5" y="613.8"/><ellipse cx="1014.5" cy="629.8" fill="#ADD1B2" rx="11" ry="11" style="stroke:#181818;stroke-width:1.0;"/><path d="M1009.5,630.9563 C1009.5,633.4563 1011.6406,635.2688 1014.5625,635.2688 C1015.7969,635.2688 1016.9688,634.9719 1017.7188,634.4563 C1018.3281,634.0344 1018.6563,633.6125 1018.6563,633.2063 C1018.6563,632.7375 1018.2344,632.3313 1017.7344,632.3313 C1017.5,632.3313 1017.2813,632.4094 1017.0781,632.6125 C1016.6406,633.05 1016.6406,633.05 1016.4688,633.1438 C1016.0156,633.3781 1015.375,633.5188 1014.6094,633.5188 C1012.6094,633.5188 1011.3281,632.5031 1011.3281,630.925 L1011.3281,629.8781 C1011.3281,628.175 1012.5469,626.9719 1014.25,626.9719 C1014.8281,626.9719 1015.4063,627.1125 1015.875,627.3625 C1016.3438,627.6281 1016.5156,627.8156 1016.5781,628.175 C1016.7031,628.8469 1016.9531,629.0969 1017.4844,629.0969 C1017.7656,629.0969 1018.0469,628.9563 1018.2344,628.7375 C1018.3594,628.5656 1018.4063,628.3938 1018.4063,627.9563 L1018.4063,626.5969 C1018.4063,626.175 1018.3906,626.0344 1018.2656,625.8625 C1018.0938,625.6125 1017.8125,625.4563 1017.4844,625.4563 C1017.1719,625.4563 1016.9688,625.5656 1016.75,625.8313 C1015.5781,625.3313 1015.1406,625.2219 1014.1875,625.2219 C1011.5156,625.2219 1009.5,627.2375 1009.5,629.8625 L1009.5,630.9563 Z " fill="#000000"/><text fill="#000000" font-family="sans-serif" font-size="14" lengthAdjust="spacing" textLength="49" x="1028.5" y="634.406">Student</text><line style="stroke:#181818;stroke-width:0.5;" x1="1000.5" x2="1079.5" y1="645.8" y2="645.8"/><line style="stroke:#181818;stroke-width:0.5;" x1="1000.5" x2="1079.5" y1="653.8" y2="653.8"/></g><!--MD5=[662e00d482ff87b0a11f7fbcbd28d2bf]
class EuseTarget--><g id="elem_EuseTarget"><rect codeLine="52" fill="#F1F1F1" height="81.5999" id="EuseTarget" rx="2.5" ry="2.5" style="stroke:#181818;stroke-width:0.5;" width="106" x="793" y="927.2"/><ellipse cx="808" cy="943.2" fill="#EB937F" rx="11" ry="11" style="stroke:#181818;stroke-width:1.0;"/><path d="M806.8594,944.2625 L808.1719,944.2625 L808.1719,944.3094 C808.1719,944.7156 808.1875,944.8719 808.2969,945.0281 C808.4688,945.2781 808.7656,945.45 809.0781,945.45 C809.3594,945.45 809.6563,945.3094 809.8281,945.0906 C809.9531,944.9031 810,944.7625 810,944.3094 L810,942.4656 C810,942.1375 809.9844,942.0281 809.9219,941.8562 C809.8125,941.5594 809.4531,941.3094 809.0781,941.3094 C808.7813,941.3094 808.5156,941.45 808.3438,941.6687 C808.2031,941.8562 808.1719,942.0281 808.1719,942.4656 L808.1719,942.5281 L806.8594,942.5281 L806.8594,940.3562 L810.7031,940.3562 L810.7031,941.1062 C810.7031,941.4969 810.7344,941.6844 810.8438,941.8406 C811.0156,942.0906 811.3125,942.2625 811.625,942.2625 C811.9219,942.2625 812.1875,942.1375 812.375,941.9031 C812.5156,941.7156 812.5469,941.575 812.5469,941.1062 L812.5469,938.6062 L804.8438,938.6062 C804.3906,938.6062 804.2656,938.6219 804.0938,938.7312 C803.8281,938.9031 803.6563,939.1687 803.6563,939.4812 C803.6563,939.7625 803.7813,940.0281 804.0313,940.2 C804.2188,940.325 804.4063,940.3562 804.8438,940.3562 L805.0313,940.3562 L805.0313,946.45 L804.8438,946.45 C804.4219,946.45 804.2656,946.4812 804.0938,946.575 C803.8281,946.7312 803.6563,947.0125 803.6563,947.3094 C803.6563,947.8875 804.0625,948.2 804.8438,948.2 L812.9219,948.2 L812.9219,945.6687 C812.9219,945.2625 812.8906,945.0906 812.7813,944.9344 C812.6094,944.6687 812.3281,944.5125 812,944.5125 C811.7188,944.5125 811.4375,944.6531 811.25,944.8719 C811.1094,945.0594 811.0781,945.2156 811.0781,945.6687 L811.0781,946.45 L806.8594,946.45 L806.8594,944.2625 Z " fill="#000000"/><text fill="#000000" font-family="sans-serif" font-size="14" lengthAdjust="spacing" textLength="74" x="822" y="947.806">EuseTarget</text><line style="stroke:#181818;stroke-width:0.5;" x1="794" x2="898" y1="959.2" y2="959.2"/><text fill="#000000" font-family="sans-serif" font-size="14" lengthAdjust="spacing" textLength="24" x="799" y="976.2059">Self</text><text fill="#000000" font-family="sans-serif" font-size="14" lengthAdjust="spacing" textLength="46" x="799" y="993.0059">NotSelf</text><line style="stroke:#181818;stroke-width:0.5;" x1="794" x2="898" y1="1000.7999" y2="1000.7999"/></g><!--MD5=[a6e6126e6474d52d53165ad77c0fa12c]
class ERoomState--><g id="elem_ERoomState"><rect codeLine="62" fill="#F1F1F1" height="98.3998" id="ERoomState" rx="2.5" ry="2.5" style="stroke:#181818;stroke-width:0.5;" width="112" x="250" y="588.6"/><ellipse cx="265" cy="604.6" fill="#EB937F" rx="11" ry="11" style="stroke:#181818;stroke-width:1.0;"/><path d="M263.8594,605.6625 L265.1719,605.6625 L265.1719,605.7094 C265.1719,606.1156 265.1875,606.2719 265.2969,606.4281 C265.4688,606.6781 265.7656,606.85 266.0781,606.85 C266.3594,606.85 266.6563,606.7094 266.8281,606.4906 C266.9531,606.3031 267,606.1625 267,605.7094 L267,603.8656 C267,603.5375 266.9844,603.4281 266.9219,603.2562 C266.8125,602.9594 266.4531,602.7094 266.0781,602.7094 C265.7813,602.7094 265.5156,602.85 265.3438,603.0687 C265.2031,603.2562 265.1719,603.4281 265.1719,603.8656 L265.1719,603.9281 L263.8594,603.9281 L263.8594,601.7562 L267.7031,601.7562 L267.7031,602.5062 C267.7031,602.8969 267.7344,603.0844 267.8438,603.2406 C268.0156,603.4906 268.3125,603.6625 268.625,603.6625 C268.9219,603.6625 269.1875,603.5375 269.375,603.3031 C269.5156,603.1156 269.5469,602.975 269.5469,602.5062 L269.5469,600.0062 L261.8438,600.0062 C261.3906,600.0062 261.2656,600.0219 261.0938,600.1312 C260.8281,600.3031 260.6563,600.5687 260.6563,600.8812 C260.6563,601.1625 260.7813,601.4281 261.0313,601.6 C261.2188,601.725 261.4063,601.7562 261.8438,601.7562 L262.0313,601.7562 L262.0313,607.85 L261.8438,607.85 C261.4219,607.85 261.2656,607.8812 261.0938,607.975 C260.8281,608.1312 260.6563,608.4125 260.6563,608.7094 C260.6563,609.2875 261.0625,609.6 261.8438,609.6 L269.9219,609.6 L269.9219,607.0687 C269.9219,606.6625 269.8906,606.4906 269.7813,606.3344 C269.6094,606.0687 269.3281,605.9125 269,605.9125 C268.7188,605.9125 268.4375,606.0531 268.25,606.2719 C268.1094,606.4594 268.0781,606.6156 268.0781,607.0687 L268.0781,607.85 L263.8594,607.85 L263.8594,605.6625 Z " fill="#000000"/><text fill="#000000" font-family="sans-serif" font-size="14" lengthAdjust="spacing" textLength="80" x="279" y="609.206">ERoomState</text><line style="stroke:#181818;stroke-width:0.5;" x1="251" x2="361" y1="620.6" y2="620.6"/><text fill="#000000" font-family="sans-serif" font-size="14" lengthAdjust="spacing" textLength="58" x="256" y="637.6059">OPENED</text><text fill="#000000" font-family="sans-serif" font-size="14" lengthAdjust="spacing" textLength="57" x="256" y="654.4059">CLOSED</text><text fill="#000000" font-family="sans-serif" font-size="14" lengthAdjust="spacing" textLength="73" x="256" y="671.2058">POISONED</text><line style="stroke:#181818;stroke-width:0.5;" x1="251" x2="361" y1="678.9998" y2="678.9998"/></g><!--MD5=[1c2b96da30051402419535db1ceb071a]
class TVSZ--><g id="elem_TVSZ"><rect codeLine="69" fill="#F1F1F1" height="48" id="TVSZ" rx="2.5" ry="2.5" style="stroke:#181818;stroke-width:0.5;" width="68" x="593" y="944"/><ellipse cx="608" cy="960" fill="#ADD1B2" rx="11" ry="11" style="stroke:#181818;stroke-width:1.0;"/><path d="M603,961.1563 C603,963.6563 605.1406,965.4688 608.0625,965.4688 C609.2969,965.4688 610.4688,965.1719 611.2188,964.6563 C611.8281,964.2344 612.1563,963.8125 612.1563,963.4063 C612.1563,962.9375 611.7344,962.5313 611.2344,962.5313 C611,962.5313 610.7813,962.6094 610.5781,962.8125 C610.1406,963.25 610.1406,963.25 609.9688,963.3438 C609.5156,963.5781 608.875,963.7188 608.1094,963.7188 C606.1094,963.7188 604.8281,962.7031 604.8281,961.125 L604.8281,960.0781 C604.8281,958.375 606.0469,957.1719 607.75,957.1719 C608.3281,957.1719 608.9063,957.3125 609.375,957.5625 C609.8438,957.8281 610.0156,958.0156 610.0781,958.375 C610.2031,959.0469 610.4531,959.2969 610.9844,959.2969 C611.2656,959.2969 611.5469,959.1563 611.7344,958.9375 C611.8594,958.7656 611.9063,958.5938 611.9063,958.1563 L611.9063,956.7969 C611.9063,956.375 611.8906,956.2344 611.7656,956.0625 C611.5938,955.8125 611.3125,955.6563 610.9844,955.6563 C610.6719,955.6563 610.4688,955.7656 610.25,956.0313 C609.0781,955.5313 608.6406,955.4219 607.6875,955.4219 C605.0156,955.4219 603,957.4375 603,960.0625 L603,961.1563 Z " fill="#000000"/><text fill="#000000" font-family="sans-serif" font-size="14" lengthAdjust="spacing" textLength="36" x="622" y="964.606">TVSZ</text><line style="stroke:#181818;stroke-width:0.5;" x1="594" x2="660" y1="976" y2="976"/><line style="stroke:#181818;stroke-width:0.5;" x1="594" x2="660" y1="984" y2="984"/></g><!--MD5=[6029bd9eaad172140eff99b2ee6a63ba]
class Beer--><g id="elem_Beer"><rect codeLine="72" fill="#F1F1F1" height="48" id="Beer" rx="2.5" ry="2.5" style="stroke:#181818;stroke-width:0.5;" width="62" x="696" y="944"/><ellipse cx="711" cy="960" fill="#ADD1B2" rx="11" ry="11" style="stroke:#181818;stroke-width:1.0;"/><path d="M706,961.1563 C706,963.6563 708.1406,965.4688 711.0625,965.4688 C712.2969,965.4688 713.4688,965.1719 714.2188,964.6563 C714.8281,964.2344 715.1563,963.8125 715.1563,963.4063 C715.1563,962.9375 714.7344,962.5313 714.2344,962.5313 C714,962.5313 713.7813,962.6094 713.5781,962.8125 C713.1406,963.25 713.1406,963.25 712.9688,963.3438 C712.5156,963.5781 711.875,963.7188 711.1094,963.7188 C709.1094,963.7188 707.8281,962.7031 707.8281,961.125 L707.8281,960.0781 C707.8281,958.375 709.0469,957.1719 710.75,957.1719 C711.3281,957.1719 711.9063,957.3125 712.375,957.5625 C712.8438,957.8281 713.0156,958.0156 713.0781,958.375 C713.2031,959.0469 713.4531,959.2969 713.9844,959.2969 C714.2656,959.2969 714.5469,959.1563 714.7344,958.9375 C714.8594,958.7656 714.9063,958.5938 714.9063,958.1563 L714.9063,956.7969 C714.9063,956.375 714.8906,956.2344 714.7656,956.0625 C714.5938,955.8125 714.3125,955.6563 713.9844,955.6563 C713.6719,955.6563 713.4688,955.7656 713.25,956.0313 C712.0781,955.5313 711.6406,955.4219 710.6875,955.4219 C708.0156,955.4219 706,957.4375 706,960.0625 L706,961.1563 Z " fill="#000000"/><text fill="#000000" font-family="sans-serif" font-size="14" lengthAdjust="spacing" textLength="30" x="725" y="964.606">Beer</text><line style="stroke:#181818;stroke-width:0.5;" x1="697" x2="757" y1="976" y2="976"/><line style="stroke:#181818;stroke-width:0.5;" x1="697" x2="757" y1="984" y2="984"/></g><!--MD5=[61a125226e4297501364251274c76dd5]
class Transistor--><g id="elem_Transistor"><rect codeLine="75" fill="#F1F1F1" height="48" id="Transistor" rx="2.5" ry="2.5" style="stroke:#181818;stroke-width:0.5;" width="96" x="7" y="944"/><ellipse cx="22" cy="960" fill="#ADD1B2" rx="11" ry="11" style="stroke:#181818;stroke-width:1.0;"/><path d="M17,961.1563 C17,963.6563 19.1406,965.4688 22.0625,965.4688 C23.2969,965.4688 24.4688,965.1719 25.2188,964.6563 C25.8281,964.2344 26.1563,963.8125 26.1563,963.4063 C26.1563,962.9375 25.7344,962.5313 25.2344,962.5313 C25,962.5313 24.7813,962.6094 24.5781,962.8125 C24.1406,963.25 24.1406,963.25 23.9688,963.3438 C23.5156,963.5781 22.875,963.7188 22.1094,963.7188 C20.1094,963.7188 18.8281,962.7031 18.8281,961.125 L18.8281,960.0781 C18.8281,958.375 20.0469,957.1719 21.75,957.1719 C22.3281,957.1719 22.9063,957.3125 23.375,957.5625 C23.8438,957.8281 24.0156,958.0156 24.0781,958.375 C24.2031,959.0469 24.4531,959.2969 24.9844,959.2969 C25.2656,959.2969 25.5469,959.1563 25.7344,958.9375 C25.8594,958.7656 25.9063,958.5938 25.9063,958.1563 L25.9063,956.7969 C25.9063,956.375 25.8906,956.2344 25.7656,956.0625 C25.5938,955.8125 25.3125,955.6563 24.9844,955.6563 C24.6719,955.6563 24.4688,955.7656 24.25,956.0313 C23.0781,955.5313 22.6406,955.4219 21.6875,955.4219 C19.0156,955.4219 17,957.4375 17,960.0625 L17,961.1563 Z " fill="#000000"/><text fill="#000000" font-family="sans-serif" font-size="14" lengthAdjust="spacing" textLength="64" x="36" y="964.606">Transistor</text><line style="stroke:#181818;stroke-width:0.5;" x1="8" x2="102" y1="976" y2="976"/><line style="stroke:#181818;stroke-width:0.5;" x1="8" x2="102" y1="984" y2="984"/></g><!--MD5=[685d6ec15f3caaaf2ddc1ca659765db7]
class Mask--><g id="elem_Mask"><rect codeLine="78" fill="#F1F1F1" height="48" id="Mask" rx="2.5" ry="2.5" style="stroke:#181818;stroke-width:0.5;" width="66" x="138" y="944"/><ellipse cx="153" cy="960" fill="#ADD1B2" rx="11" ry="11" style="stroke:#181818;stroke-width:1.0;"/><path d="M148,961.1563 C148,963.6563 150.1406,965.4688 153.0625,965.4688 C154.2969,965.4688 155.4688,965.1719 156.2188,964.6563 C156.8281,964.2344 157.1563,963.8125 157.1563,963.4063 C157.1563,962.9375 156.7344,962.5313 156.2344,962.5313 C156,962.5313 155.7813,962.6094 155.5781,962.8125 C155.1406,963.25 155.1406,963.25 154.9688,963.3438 C154.5156,963.5781 153.875,963.7188 153.1094,963.7188 C151.1094,963.7188 149.8281,962.7031 149.8281,961.125 L149.8281,960.0781 C149.8281,958.375 151.0469,957.1719 152.75,957.1719 C153.3281,957.1719 153.9063,957.3125 154.375,957.5625 C154.8438,957.8281 155.0156,958.0156 155.0781,958.375 C155.2031,959.0469 155.4531,959.2969 155.9844,959.2969 C156.2656,959.2969 156.5469,959.1563 156.7344,958.9375 C156.8594,958.7656 156.9063,958.5938 156.9063,958.1563 L156.9063,956.7969 C156.9063,956.375 156.8906,956.2344 156.7656,956.0625 C156.5938,955.8125 156.3125,955.6563 155.9844,955.6563 C155.6719,955.6563 155.4688,955.7656 155.25,956.0313 C154.0781,955.5313 153.6406,955.4219 152.6875,955.4219 C150.0156,955.4219 148,957.4375 148,960.0625 L148,961.1563 Z " fill="#000000"/><text fill="#000000" font-family="sans-serif" font-size="14" lengthAdjust="spacing" textLength="34" x="167" y="964.606">Mask</text><line style="stroke:#181818;stroke-width:0.5;" x1="139" x2="203" y1="976" y2="976"/><line style="stroke:#181818;stroke-width:0.5;" x1="139" x2="203" y1="984" y2="984"/></g><!--MD5=[05f1555ef92e877635b52318d1be26d7]
class Sponge--><g id="elem_Sponge"><rect codeLine="81" fill="#F1F1F1" height="48" id="Sponge" rx="2.5" ry="2.5" style="stroke:#181818;stroke-width:0.5;" width="81" x="239.5" y="944"/><ellipse cx="254.5" cy="960" fill="#ADD1B2" rx="11" ry="11" style="stroke:#181818;stroke-width:1.0;"/><path d="M249.5,961.1563 C249.5,963.6563 251.6406,965.4688 254.5625,965.4688 C255.7969,965.4688 256.9688,965.1719 257.7188,964.6563 C258.3281,964.2344 258.6563,963.8125 258.6563,963.4063 C258.6563,962.9375 258.2344,962.5313 257.7344,962.5313 C257.5,962.5313 257.2813,962.6094 257.0781,962.8125 C256.6406,963.25 256.6406,963.25 256.4688,963.3438 C256.0156,963.5781 255.375,963.7188 254.6094,963.7188 C252.6094,963.7188 251.3281,962.7031 251.3281,961.125 L251.3281,960.0781 C251.3281,958.375 252.5469,957.1719 254.25,957.1719 C254.8281,957.1719 255.4063,957.3125 255.875,957.5625 C256.3438,957.8281 256.5156,958.0156 256.5781,958.375 C256.7031,959.0469 256.9531,959.2969 257.4844,959.2969 C257.7656,959.2969 258.0469,959.1563 258.2344,958.9375 C258.3594,958.7656 258.4063,958.5938 258.4063,958.1563 L258.4063,956.7969 C258.4063,956.375 258.3906,956.2344 258.2656,956.0625 C258.0938,955.8125 257.8125,955.6563 257.4844,955.6563 C257.1719,955.6563 256.9688,955.7656 256.75,956.0313 C255.5781,955.5313 255.1406,955.4219 254.1875,955.4219 C251.5156,955.4219 249.5,957.4375 249.5,960.0625 L249.5,961.1563 Z " fill="#000000"/><text fill="#000000" font-family="sans-serif" font-size="14" lengthAdjust="spacing" textLength="49" x="268.5" y="964.606">Sponge</text><line style="stroke:#181818;stroke-width:0.5;" x1="240.5" x2="319.5" y1="976" y2="976"/><line style="stroke:#181818;stroke-width:0.5;" x1="240.5" x2="319.5" y1="984" y2="984"/></g><!--MD5=[6a2897fb52bc57835b526dc756c6e029]
class Cheese--><g id="elem_Cheese"><rect codeLine="84" fill="#F1F1F1" height="48" id="Cheese" rx="2.5" ry="2.5" style="stroke:#181818;stroke-width:0.5;" width="81" x="355.5" y="944"/><ellipse cx="370.5" cy="960" fill="#ADD1B2" rx="11" ry="11" style="stroke:#181818;stroke-width:1.0;"/><path d="M365.5,961.1563 C365.5,963.6563 367.6406,965.4688 370.5625,965.4688 C371.7969,965.4688 372.9688,965.1719 373.7188,964.6563 C374.3281,964.2344 374.6563,963.8125 374.6563,963.4063 C374.6563,962.9375 374.2344,962.5313 373.7344,962.5313 C373.5,962.5313 373.2813,962.6094 373.0781,962.8125 C372.6406,963.25 372.6406,963.25 372.4688,963.3438 C372.0156,963.5781 371.375,963.7188 370.6094,963.7188 C368.6094,963.7188 367.3281,962.7031 367.3281,961.125 L367.3281,960.0781 C367.3281,958.375 368.5469,957.1719 370.25,957.1719 C370.8281,957.1719 371.4063,957.3125 371.875,957.5625 C372.3438,957.8281 372.5156,958.0156 372.5781,958.375 C372.7031,959.0469 372.9531,959.2969 373.4844,959.2969 C373.7656,959.2969 374.0469,959.1563 374.2344,958.9375 C374.3594,958.7656 374.4063,958.5938 374.4063,958.1563 L374.4063,956.7969 C374.4063,956.375 374.3906,956.2344 374.2656,956.0625 C374.0938,955.8125 373.8125,955.6563 373.4844,955.6563 C373.1719,955.6563 372.9688,955.7656 372.75,956.0313 C371.5781,955.5313 371.1406,955.4219 370.1875,955.4219 C367.5156,955.4219 365.5,957.4375 365.5,960.0625 L365.5,961.1563 Z " fill="#000000"/><text fill="#000000" font-family="sans-serif" font-size="14" lengthAdjust="spacing" textLength="49" x="384.5" y="964.606">Cheese</text><line style="stroke:#181818;stroke-width:0.5;" x1="356.5" x2="435.5" y1="976" y2="976"/><line style="stroke:#181818;stroke-width:0.5;" x1="356.5" x2="435.5" y1="984" y2="984"/></g><!--MD5=[7bdc6823cbffa7805e02487292c15c0d]
class Logarlec--><g id="elem_Logarlec"><rect codeLine="87" fill="#F1F1F1" height="48" id="Logarlec" rx="2.5" ry="2.5" style="stroke:#181818;stroke-width:0.5;" width="87" x="471.5" y="944"/><ellipse cx="486.5" cy="960" fill="#ADD1B2" rx="11" ry="11" style="stroke:#181818;stroke-width:1.0;"/><path d="M481.5,961.1563 C481.5,963.6563 483.6406,965.4688 486.5625,965.4688 C487.7969,965.4688 488.9688,965.1719 489.7188,964.6563 C490.3281,964.2344 490.6563,963.8125 490.6563,963.4063 C490.6563,962.9375 490.2344,962.5313 489.7344,962.5313 C489.5,962.5313 489.2813,962.6094 489.0781,962.8125 C488.6406,963.25 488.6406,963.25 488.4688,963.3438 C488.0156,963.5781 487.375,963.7188 486.6094,963.7188 C484.6094,963.7188 483.3281,962.7031 483.3281,961.125 L483.3281,960.0781 C483.3281,958.375 484.5469,957.1719 486.25,957.1719 C486.8281,957.1719 487.4063,957.3125 487.875,957.5625 C488.3438,957.8281 488.5156,958.0156 488.5781,958.375 C488.7031,959.0469 488.9531,959.2969 489.4844,959.2969 C489.7656,959.2969 490.0469,959.1563 490.2344,958.9375 C490.3594,958.7656 490.4063,958.5938 490.4063,958.1563 L490.4063,956.7969 C490.4063,956.375 490.3906,956.2344 490.2656,956.0625 C490.0938,955.8125 489.8125,955.6563 489.4844,955.6563 C489.1719,955.6563 488.9688,955.7656 488.75,956.0313 C487.5781,955.5313 487.1406,955.4219 486.1875,955.4219 C483.5156,955.4219 481.5,957.4375 481.5,960.0625 L481.5,961.1563 Z " fill="#000000"/><text fill="#000000" font-family="sans-serif" font-size="14" lengthAdjust="spacing" textLength="55" x="500.5" y="964.606">Logarlec</text><line style="stroke:#181818;stroke-width:0.5;" x1="472.5" x2="557.5" y1="976" y2="976"/><line style="stroke:#181818;stroke-width:0.5;" x1="472.5" x2="557.5" y1="984" y2="984"/></g><!--MD5=[0201718b592c2b324e6330b672f9bdd7]
reverse link IItemHolder to Room--><g id="link_IItemHolder_Room"><path d="M789.1,101.32 C737.01,137.85 666,187.65 603.63,231.38 " fill="none" id="IItemHolder-backto-Room" style="stroke:#181818;stroke-width:1.0;stroke-dasharray:7.0,7.0;"/><polygon fill="none" points="785.06,95.61,805.45,89.86,793.09,107.07,785.06,95.61" style="stroke:#181818;stroke-width:1.0;"/></g><!--MD5=[b60c5b0f7ca88e6e221acebd72796020]
reverse link IItemTarget to Room--><g id="link_IItemTarget_Room"><path d="M582.95,99.19 C569.85,124.54 553.24,156.67 536.62,188.81 " fill="none" id="IItemTarget-backto-Room" style="stroke:#181818;stroke-width:1.0;stroke-dasharray:7.0,7.0;"/><polygon fill="none" points="576.55,96.33,591.95,81.78,588.99,102.76,576.55,96.33" style="stroke:#181818;stroke-width:1.0;"/></g><!--MD5=[535c3233ba2ce0c919511903bbeb5e8d]
reverse link IItemHolder to Player--><g id="link_IItemHolder_Player"><path d="M864,110.48 C864,165.21 864,243.5 864,290.09 " fill="none" id="IItemHolder-backto-Player" style="stroke:#181818;stroke-width:1.0;stroke-dasharray:7.0,7.0;"/><polygon fill="none" points="857,110.5,864,90.5,871,110.5,857,110.5" style="stroke:#181818;stroke-width:1.0;"/></g><!--MD5=[14048efbebf3ab3b8cf7bf459d1bca67]
reverse link IItemTarget to Player--><g id="link_IItemTarget_Player"><path d="M668.94,93.77 C695.49,115.08 726.24,141.75 751,168.8 C785.86,206.88 819.04,256.1 840.31,289.94 " fill="none" id="IItemTarget-backto-Player" style="stroke:#181818;stroke-width:1.0;stroke-dasharray:7.0,7.0;"/><polygon fill="none" points="664.78,99.4,653.39,81.53,673.44,88.4,664.78,99.4" style="stroke:#181818;stroke-width:1.0;"/></g><!--MD5=[bd7b26c7137ffeb0a560789e4bfac2aa]
reverse link Player to Teacher--><g id="link_Player_Teacher"><path d="M833.24,389.25 C813.3,422.58 784.76,463.34 751,491.8 C713.76,523.19 697.55,521.55 652,538.8 C607.01,555.84 590.66,546.56 548,568.8 C525.21,580.69 502.75,599.32 486.8,614.09 " fill="none" id="Player-backto-Teacher" style="stroke:#181818;stroke-width:1.0;"/><polygon fill="none" points="827.16,385.78,843.22,371.95,839.29,392.77,827.16,385.78" style="stroke:#181818;stroke-width:1.0;"/></g><!--MD5=[2618489305645730ac115ff60ba2d851]
reverse link Player to Student--><g id="link_Player_Student"><path d="M897.24,389 C936.37,456.93 999.49,566.48 1026.75,613.8 " fill="none" id="Player-backto-Student" style="stroke:#181818;stroke-width:1.0;"/><polygon fill="none" points="891.32,392.75,887.4,371.93,903.45,385.76,891.32,392.75" style="stroke:#181818;stroke-width:1.0;"/></g><!--MD5=[de6cb932d520e0c96eab0757f6d171d2]
reverse link IVisitor to TVSZ--><g id="link_IVisitor_TVSZ"><path d="M564.11,883.34 C580.35,904.94 597.38,927.59 609.61,943.87 " fill="none" id="IVisitor-backto-TVSZ" style="stroke:#181818;stroke-width:1.0;stroke-dasharray:7.0,7.0;"/><polygon fill="none" points="558.69,887.78,552.27,867.59,569.89,879.37,558.69,887.78" style="stroke:#181818;stroke-width:1.0;"/></g><!--MD5=[57488a1c702e49311c2b9d5d5d395125]
reverse link IVisitor to Beer--><g id="link_IVisitor_Beer"><path d="M608.36,878.41 C631.41,893.9 655.84,910.83 678,927.2 C684.96,932.34 692.3,938.1 699.11,943.61 " fill="none" id="IVisitor-backto-Beer" style="stroke:#181818;stroke-width:1.0;stroke-dasharray:7.0,7.0;"/><polygon fill="none" points="604.67,884.36,591.91,867.44,612.43,872.71,604.67,884.36" style="stroke:#181818;stroke-width:1.0;"/></g><!--MD5=[ecb7158d035ef4db79d2e4060258d49a]
reverse link IVisitor to Transistor--><g id="link_IVisitor_Transistor"><path d="M360.07,850.2 C285.78,868.29 196.51,893.99 120,927.2 C109.56,931.73 98.8,937.71 89.11,943.65 " fill="none" id="IVisitor-backto-Transistor" style="stroke:#181818;stroke-width:1.0;stroke-dasharray:7.0,7.0;"/><polygon fill="none" points="358.06,843.48,379.14,845.65,361.31,857.1,358.06,843.48" style="stroke:#181818;stroke-width:1.0;"/></g><!--MD5=[a179f783d1236c6fcfa0ad68190af8dd]
reverse link IVisitor to Mask--><g id="link_IVisitor_Mask"><path d="M360.53,865.56 C314.64,882.32 265.13,903.09 222,927.2 C213.67,931.86 205.25,937.81 197.71,943.68 " fill="none" id="IVisitor-backto-Mask" style="stroke:#181818;stroke-width:1.0;stroke-dasharray:7.0,7.0;"/><polygon fill="none" points="358.02,859.02,379.21,858.89,362.73,872.21,358.02,859.02" style="stroke:#181818;stroke-width:1.0;"/></g><!--MD5=[83227efca128aea838fd5a61cc04df44]
reverse link IVisitor to Sponge--><g id="link_IVisitor_Sponge"><path d="M416.05,877.87 C390.47,893.67 363.08,910.87 338,927.2 C330.02,932.4 321.51,938.12 313.55,943.57 " fill="none" id="IVisitor-backto-Sponge" style="stroke:#181818;stroke-width:1.0;stroke-dasharray:7.0,7.0;"/><polygon fill="none" points="412.31,871.96,433.01,867.44,419.64,883.88,412.31,871.96" style="stroke:#181818;stroke-width:1.0;"/></g><!--MD5=[241495fcdec3c8230143a4edf9aeab07]
reverse link IVisitor to Cheese--><g id="link_IVisitor_Cheese"><path d="M463.07,883.02 C445.74,904.72 427.54,927.51 414.47,943.87 " fill="none" id="IVisitor-backto-Cheese" style="stroke:#181818;stroke-width:1.0;stroke-dasharray:7.0,7.0;"/><polygon fill="none" points="457.47,878.82,475.42,867.56,468.41,887.55,457.47,878.82" style="stroke:#181818;stroke-width:1.0;"/></g><!--MD5=[172ded8fa872e5b0434b51992c58f5c4]
reverse link IVisitor to Logarlec--><g id="link_IVisitor_Logarlec"><path d="M515,887.84 C515,908.05 515,928.72 515,943.87 " fill="none" id="IVisitor-backto-Logarlec" style="stroke:#181818;stroke-width:1.0;stroke-dasharray:7.0,7.0;"/><polygon fill="none" points="508,887.89,515,867.89,522,887.89,508,887.89" style="stroke:#181818;stroke-width:1.0;"/></g><!--MD5=[d20d8e8d5383227d6c455ad4b7ce0dc8]
reverse link Room to Student--><g id="link_Room_Student"><path codeLine="90" d="M615.52,462.81 C656.22,492.11 701.83,520.01 748,538.8 C835.33,574.33 871.8,530.6 958,568.8 C981.67,579.29 1003.98,598.64 1019.33,614.03 " fill="none" id="Room-backto-Student" style="stroke:#181818;stroke-width:1.0;"/><polygon fill="none" points="605.12,455.2,607.599,461.9716,614.8031,462.2878,612.3242,455.5162,605.12,455.2" style="stroke:#181818;stroke-width:1.0;"/><ellipse cx="754" cy="531.1" fill="none" rx="3" ry="3" style="stroke:#038048;stroke-width:1.0;"/><text fill="#000000" font-family="sans-serif" font-size="13" lengthAdjust="spacing" textLength="50" x="761" y="534.877">students</text><text fill="#000000" font-family="sans-serif" font-size="13" lengthAdjust="spacing" textLength="7" x="611.8077" y="464.1522">1</text><text fill="#000000" font-family="sans-serif" font-size="13" lengthAdjust="spacing" textLength="20" x="990.7041" y="602.3967">0..*</text></g><!--MD5=[35c0babd9536547d5b839d016026bf02]
reverse link Room to Teacher--><g id="link_Room_Teacher"><path codeLine="91" d="M464,486 C464,536.08 464,585.87 464,613.86 " fill="none" id="Room-backto-Teacher" style="stroke:#181818;stroke-width:1.0;"/><polygon fill="none" points="464,473.05,460,479.05,464,485.05,468,479.05,464,473.05" style="stroke:#181818;stroke-width:1.0;"/><ellipse cx="470" cy="531.1" fill="none" rx="3" ry="3" style="stroke:#038048;stroke-width:1.0;"/><text fill="#000000" font-family="sans-serif" font-size="13" lengthAdjust="spacing" textLength="50" x="477" y="534.877">teachers</text><text fill="#000000" font-family="sans-serif" font-size="13" lengthAdjust="spacing" textLength="7" x="456.3766" y="492.4634">1</text><text fill="#000000" font-family="sans-serif" font-size="13" lengthAdjust="spacing" textLength="20" x="441.1875" y="602.1789">0..*</text></g><!--MD5=[c15279ab822b0e6c1e247978d31666f3]
reverse link Room to Room--><g id="link_Room_Room"><path codeLine="92" d="M618.04,295.24 C644.58,299.98 663,311.67 663,330.3 C663,352.08 637.83,364.37 603.94,367.18 " fill="none" id="Room-backto-Room" style="stroke:#181818;stroke-width:1.0;"/><polygon fill="#181818" points="605.44,293.62,610.8814,298.3519,617.3422,295.149,611.9008,290.4171,605.44,293.62" style="stroke:#181818;stroke-width:1.0;"/><ellipse cx="674" cy="331.1" fill="none" rx="3" ry="3" style="stroke:#038048;stroke-width:1.0;"/><text fill="#000000" font-family="sans-serif" font-size="13" lengthAdjust="spacing" textLength="63" x="681" y="334.877">neighbours</text><text fill="#000000" font-family="sans-serif" font-size="13" lengthAdjust="spacing" textLength="7" x="611.8631" y="285.6649">1</text><text fill="#000000" font-family="sans-serif" font-size="13" lengthAdjust="spacing" textLength="20" x="612.3644" y="370.7277">0..*</text></g><!--MD5=[6f515c13ddce17eba158212721e0779d]
reverse link Player to Item--><g id="link_Player_Item"><path codeLine="93" d="M858.46,384.92 C852.67,427.88 841.32,488.98 820,538.8 C812.58,556.14 801.91,573.6 791.25,588.89 " fill="none" id="Player-backto-Item" style="stroke:#181818;stroke-width:1.0;"/><polygon fill="#181818" points="860.1,372.03,855.3792,377.4811,858.5953,383.9353,863.3161,378.4842,860.1,372.03" style="stroke:#181818;stroke-width:1.0;"/><ellipse cx="832" cy="531.1" fill="none" rx="3" ry="3" style="stroke:#038048;stroke-width:1.0;"/><text fill="#000000" font-family="sans-serif" font-size="13" lengthAdjust="spacing" textLength="33" x="839" y="534.877">Items</text><text fill="#000000" font-family="sans-serif" font-size="13" lengthAdjust="spacing" textLength="7" x="847.9726" y="391.7454">1</text><text fill="#000000" font-family="sans-serif" font-size="13" lengthAdjust="spacing" textLength="20" x="775.5758" y="577.3446">0..*</text></g><!--MD5=[e425a994f36f2c64d3812a507677929f]
reverse link Room to Item--><g id="link_Room_Item"><path codeLine="94" d="M604.56,482.28 C622.49,501.35 640.64,520.57 658,538.8 C673.69,555.28 690.97,573.18 706.44,589.12 " fill="none" id="Room-backto-Item" style="stroke:#181818;stroke-width:1.0;"/><polygon fill="#181818" points="595.66,472.81,596.8483,479.9225,603.8708,481.5612,602.6825,474.4486,595.66,472.81" style="stroke:#181818;stroke-width:1.0;"/><ellipse cx="664" cy="531.1" fill="none" rx="3" ry="3" style="stroke:#038048;stroke-width:1.0;"/><text fill="#000000" font-family="sans-serif" font-size="13" lengthAdjust="spacing" textLength="33" x="671" y="534.877">Items</text><text fill="#000000" font-family="sans-serif" font-size="13" lengthAdjust="spacing" textLength="7" x="609.4688" y="491.8255">1</text><text fill="#000000" font-family="sans-serif" font-size="13" lengthAdjust="spacing" textLength="20" x="677.4258" y="577.2593">0..*</text></g><!--MD5=[12166b10b52f4420e411f41bfa0fbdb8]
reverse link Room to ERoomState--><g id="link_Room_ERoomState"><path codeLine="95" d="M384.86,484.32 C365.34,522.06 345.84,559.78 331.11,588.26 " fill="none" id="Room-backto-ERoomState" style="stroke:#181818;stroke-width:1.0;"/><polygon fill="#181818" points="390.78,472.88,384.4704,476.3712,385.2662,483.5382,391.5759,480.0471,390.78,472.88" style="stroke:#181818;stroke-width:1.0;"/><ellipse cx="368" cy="531.1" fill="none" rx="3" ry="3" style="stroke:#038048;stroke-width:1.0;"/><text fill="#000000" font-family="sans-serif" font-size="13" lengthAdjust="spacing" textLength="29" x="375" y="534.877">state</text></g><!--MD5=[6fed11c6c2ed78f569e72149c8bb4853]
reverse link Labyrinth to Room--><g id="link_Labyrinth_Room"><path codeLine="96" d="M399.67,85.44 C406.76,112.34 416.89,150.73 427.02,189.12 " fill="none" id="Labyrinth-backto-Room" style="stroke:#181818;stroke-width:1.0;"/><polygon fill="#181818" points="396.44,73.22,394.1017,80.0415,399.4991,84.8235,401.8374,78.0021,396.44,73.22" style="stroke:#181818;stroke-width:1.0;"/><ellipse cx="418" cy="131.1" fill="none" rx="3" ry="3" style="stroke:#038048;stroke-width:1.0;"/><text fill="#000000" font-family="sans-serif" font-size="13" lengthAdjust="spacing" textLength="36" x="425" y="134.877">rooms</text><text fill="#000000" font-family="sans-serif" font-size="13" lengthAdjust="spacing" textLength="7" x="392.58" y="91.8583">1</text><text fill="#000000" font-family="sans-serif" font-size="13" lengthAdjust="spacing" textLength="20" x="404.1572" y="177.149">0..*</text></g><!--MD5=[1f5b51acb1bff149c1793c9c55c8d0ef]
link Item to IVisitor--><g id="link_Item_IVisitor"><path codeLine="98" d="M688.59,686.75 C656.71,710.49 618.15,739.2 585.48,763.53 " fill="none" id="Item-to-IVisitor" style="stroke:#181818;stroke-width:1.0;stroke-dasharray:7.0,7.0;"/><polygon fill="#181818" points="581.5,766.49,591.1087,764.3284,585.512,763.506,586.3343,757.9093,581.5,766.49" style="stroke:#181818;stroke-width:1.0;"/></g><!--MD5=[136aab8cff5f4def96aa75def1dca3db]
link Item to EuseTarget--><g id="link_Item_EuseTarget"><path codeLine="99" d="M766.52,686.52 C784.3,749.26 815.33,858.75 832.89,920.75 " fill="none" id="Item-to-EuseTarget" style="stroke:#181818;stroke-width:1.0;stroke-dasharray:7.0,7.0;"/><polygon fill="#181818" points="834.24,925.51,835.6405,915.7612,832.8796,920.6986,827.9422,917.9378,834.24,925.51" style="stroke:#181818;stroke-width:1.0;"/></g><!--MD5=[9dfe30397375938fb3f6645c110975e7]
link IVisitor to EuseTarget--><g id="link_IVisitor_EuseTarget"><path codeLine="100" d="M638.62,866.57 C682.2,884.57 731.23,905.82 775,927.2 C779.02,929.16 783.12,931.25 787.24,933.39 " fill="none" id="IVisitor-to-EuseTarget" style="stroke:#181818;stroke-width:1.0;stroke-dasharray:7.0,7.0;"/><polygon fill="#181818" points="791.51,935.65,785.4056,927.921,787.0845,933.323,781.6825,935.0019,791.51,935.65" style="stroke:#181818;stroke-width:1.0;"/></g><!--MD5=[829c05d6f6997f29908333bd323061c5]
@startuml UML

class Labyrinth {

}

class Room implements IItemHolder, IItemTarget{
    + maxPlayer: int

    +getNeighbours(): Room[]
    +addStudent(student: Student): void
    +removeStudent(student: Student): void
    +addTeacher(teacher: Teacher): void
    +removeTeacher(teacher: Teacher): void
    +addNeighbour(room: Room): void
    +removeNeighbour(room: Room): void
    +merge(room: Room): void
    +split(): Room
    +isFull(): boolean

    +notifyStudents(): void
    +notifyTeachers(): void

}

abstract class Player implements IItemHolder, IItemTarget{
    + room: Room
    + move(Room): void
}

interface IVisitor {
    visitRoom(Room, EuseTarget): void
    visitStudent(Student, EuseTarget): void
    visitTeacher(Teacher, EuseTarget): void
}

abstract class Item{
    -itemV: ItemVisitor
    + useItem(EItem, IITemTarget, EuseTarget): void
    + isAvaliable(): boolean
}

interface IItemTarget{
    + accept(v: IVisitor, t: EuseTarget)
}

class Teacher extends Player{}


class Student extends Player{
}

enum EuseTarget{
    Self
    NotSelf
}

interface IItemHolder {
    + addItemy(Item: Item): void
    + removeItem(Item: Item): void
}

enum ERoomState {
    OPENED
    CLOSED
    POISONED

}

class TVSZ implements IVisitor {
}

class Beer  implements IVisitor {
}

class Transistor implements IVisitor  {
}

class Mask  implements IVisitor  {
}

class Sponge  implements IVisitor  {
}

class Cheese  implements IVisitor {
}

class Logarlec  implements IVisitor  {
}

Room "1" o- - "0..*" Student: + students
Room "1" o- - "0..*" Teacher: + teachers
Room "1" *- - "0..*" Room: + neighbours
Player "1" *- - "0..*" Item: + Items
Room "1" *- - "0..*" Item: + Items
Room *- - ERoomState: + state
Labyrinth "1" *- - "0..*" Room: + rooms

Item ..> IVisitor
Item ..> EuseTarget
IVisitor ..> EuseTarget

@enduml

PlantUML version 1.2022.7(Mon Aug 22 19:01:30 CEST 2022)
(GPL source distribution)
Java Runtime: OpenJDK Runtime Environment
JVM: OpenJDK 64-Bit Server VM
Default Encoding: UTF-8
Language: en
Country: US
--></g></svg>